<?xml version="1.0" encoding="utf-8"?>
<!-- Generator: Adobe Illustrator 21.1.0, SVG Export Plug-In . SVG Version: 6.00 Build 0)  -->
<svg version="1.1" id="Слой_1" xmlns="http://www.w3.org/2000/svg"  x="0px" y="0px"
	 viewBox="0 0 69.4 69.4" style="enable-background:new 0 0 69.4 69.4;" xml:space="preserve">
<style type="text/css">
	.st0{filter:url(#Adobe_OpacityMaskFilter);}
	.st1{fill:#FFFFFF;}
	.st2{mask:url(#mask-46_1_);fill:#A9C833;}
	.st3{fill:#A9C833;}
</style>
<g id="Group-22" transform="translate(0.000000, 49.000000)">
	<g id="Group-3_6_" transform="translate(0.000000, 0.078835)">
		<g id="Clip-2_6_">
		</g>
		<defs>
			<filter id="Adobe_OpacityMaskFilter" filterUnits="userSpaceOnUse" x="0" y="-49.1" width="69.4" height="69.4">
				<feColorMatrix  type="matrix" values="1 0 0 0 0  0 1 0 0 0  0 0 1 0 0  0 0 0 1 0"/>
			</filter>
		</defs>
		<mask maskUnits="userSpaceOnUse" x="0" y="-49.1" width="69.4" height="69.4" id="mask-46_1_">
			<g class="st0">
				<polygon id="path-45_1_" class="st1" points="0,-49.1 69.4,-49.1 69.4,20.3 0,20.3 				"/>
			</g>
		</mask>
		<path id="Fill-1_16_" class="st2" d="M69.4-14.4c0,19.2-15.5,34.7-34.7,34.7C15.5,20.3,0,4.8,0-14.4s15.5-34.7,34.7-34.7
			C53.9-49.1,69.4-33.5,69.4-14.4"/>
	</g>
	<path id="Fill-4_5_" class="st1" d="M55.8-26.4H13.5c-0.6,0-1-0.5-1-1s0.5-1,1-1h42.3c0.6,0,1,0.5,1,1S56.4-26.4,55.8-26.4"/>
	<path id="Fill-6_11_" class="st1" d="M55.8-12.1H13.5c-0.6,0-1-0.5-1-1c0-0.6,0.5-1,1-1h42.3c0.6,0,1,0.5,1,1
		C56.8-12.6,56.4-12.1,55.8-12.1"/>
	<path id="Fill-8_10_" class="st1" d="M55.8,2.2H13.5c-0.6,0-1-0.5-1-1c0-0.6,0.5-1,1-1h42.3c0.6,0,1,0.5,1,1
		C56.8,1.8,56.4,2.2,55.8,2.2"/>
	<path id="Fill-10_9_" class="st3" d="M29.7-13.3c0-3,2.4-5.4,5.4-5.4c3,0,5.4,2.4,5.4,5.4s-2.4,5.4-5.4,5.4
		C32.2-7.9,29.7-10.3,29.7-13.3z"/>
	<path id="Fill-12_7_" class="st1" d="M35.2-17.7c-2.4,0-4.4,2-4.4,4.4c0,2.4,2,4.4,4.4,4.4s4.4-2,4.4-4.4
		C39.5-15.7,37.6-17.7,35.2-17.7 M35.2-6.9c-3.5,0-6.4-2.9-6.4-6.4c0-3.5,2.9-6.4,6.4-6.4s6.4,2.9,6.4,6.4
		C41.6-9.7,38.7-6.9,35.2-6.9"/>
	<path id="Fill-14_7_" class="st3" d="M41.9,0.9c0-3,2.4-5.4,5.4-5.4c3,0,5.4,2.4,5.4,5.4s-2.4,5.4-5.4,5.4
		C44.3,6.3,41.9,3.9,41.9,0.9z"/>
	<path id="Fill-16_3_" class="st1" d="M47.3-3.5c-2.4,0-4.4,2-4.4,4.4c0,2.4,2,4.4,4.4,4.4s4.4-2,4.4-4.4
		C51.7-1.5,49.7-3.5,47.3-3.5 M47.3,7.4c-3.5,0-6.4-2.9-6.4-6.4c0-3.5,2.9-6.4,6.4-6.4c3.5,0,6.4,2.9,6.4,6.4
		C53.8,4.5,50.9,7.4,47.3,7.4"/>
	<path id="Fill-18_3_" class="st3" d="M23-22.1c-3,0-5.4-2.4-5.4-5.4v0c0-3,2.4-5.4,5.4-5.4c3,0,5.4,2.4,5.4,5.4v0
		C28.4-24.5,26-22.1,23-22.1"/>
	<path id="Fill-20" class="st1" d="M23-31.9c-2.4,0-4.4,2-4.4,4.4c0,2.4,2,4.4,4.4,4.4s4.4-2,4.4-4.4C27.4-29.9,25.4-31.9,23-31.9
		 M23-21.1c-3.5,0-6.4-2.9-6.4-6.4c0-3.5,2.9-6.4,6.4-6.4c3.5,0,6.4,2.9,6.4,6.4C29.4-24,26.5-21.1,23-21.1"/>
</g>
</svg>
