<?xml version="1.0" encoding="utf-8"?>
<!-- Generator: Adobe Illustrator 21.1.0, SVG Export Plug-In . SVG Version: 6.00 Build 0)  -->
<svg version="1.1" id="Слой_1" xmlns="http://www.w3.org/2000/svg"  x="0px" y="0px"
	 viewBox="0 0 177.3 62" style="enable-background:new 0 0 177.3 62;" xml:space="preserve">
<style type="text/css">
	.st0{fill:none;stroke:#A9C833;stroke-width:2;}
	.st1{fill:none;stroke:#9EC323;stroke-width:1.946;stroke-linecap:round;stroke-linejoin:round;}
	.st2{fill:none;stroke:#A9C833;stroke-width:1.898;stroke-linecap:round;stroke-linejoin:round;}
</style>
<g id="Group-7" transform="translate(64.000000, 0.000000)">
	<path id="Stroke-1_2_" class="st0" d="M-58,49.9c2.8,0,5-2.2,5-5c0-2.8-2.2-5-5-5s-5,2.2-5,5C-63,47.7-60.8,49.9-58,49.9z"/>
	<path id="Stroke-3" class="st1" d="M112.3,40.5l-4.1,4.4"/>
	<path id="Stroke-5" class="st2" d="M102.4,40.3l5.3,4.6V11.6c0-5.9-4.7-10.6-10.6-10.6h-3.2c-5.8,0-10.6,4.8-10.6,10.6v22.7
		c0,5.9-4.7,10.6-10.6,10.6h-3.2c-5.8,0-10.6-4.8-10.6-10.6c0-5.9-4.7-10.6-10.6-10.6h-2.9c-5.8,0-10.6,4.8-10.6,10.6v16.1
		c0,5.9-4.7,10.6-10.6,10.6h-2.5c-5.8,0-10.6-4.8-10.6-10.6V11.6c0-5.9-4.7-10.6-10.6-10.6h-2.5c-5.8,0-10.6,4.8-10.6,10.6v22.7
		c0,5.9-4.7,10.6-10.6,10.6h-1.8c-5.8,0-10.6-4.8-10.6-10.6v-8c0-5.9-4.7-10.6-10.6-10.6h-1.3c-5.8,0-10.6,4.8-10.6,10.6v12.8"/>
</g>
</svg>
