<?xml version="1.0" encoding="utf-8"?>
<!-- Generator: Adobe Illustrator 21.1.0, SVG Export Plug-In . SVG Version: 6.00 Build 0)  -->
<svg version="1.1" id="Слой_1" xmlns="http://www.w3.org/2000/svg"  x="0px" y="0px"
	 viewBox="0 0 69.4 69.4" style="enable-background:new 0 0 69.4 69.4;" xml:space="preserve">
<style type="text/css">
	.st0{filter:url(#Adobe_OpacityMaskFilter);}
	.st1{fill:#FFFFFF;}
	.st2{mask:url(#mask-44_1_);fill:#5300BC;}
</style>
<g id="Group-12" transform="translate(0.000000, 47.000000)">
	<g id="Group-3_5_" transform="translate(0.000000, 0.078835)">
		<g id="Clip-2_5_">
		</g>
		<defs>
			<filter id="Adobe_OpacityMaskFilter" filterUnits="userSpaceOnUse" x="0" y="-47.1" width="69.4" height="69.4">
				<feColorMatrix  type="matrix" values="1 0 0 0 0  0 1 0 0 0  0 0 1 0 0  0 0 0 1 0"/>
			</filter>
		</defs>
		<mask maskUnits="userSpaceOnUse" x="0" y="-47.1" width="69.4" height="69.4" id="mask-44_1_">
			<g class="st0">
				<polygon id="path-43_1_" class="st1" points="0,-47.1 69.4,-47.1 69.4,22.3 0,22.3 				"/>
			</g>
		</mask>
		<path id="Fill-1_15_" class="st2" d="M34.7,22.3C15.5,22.3,0,6.8,0-12.4c0-19.2,15.5-34.7,34.7-34.7c19.2,0,34.7,15.5,34.7,34.7
			C69.4,6.8,53.9,22.3,34.7,22.3z"/>
	</g>
	<path id="Fill-4_4_" class="st1" d="M34.8-36.5c-5.2,0-9.4,4.2-9.4,9.4c0,5.2,4.2,9.4,9.4,9.4s9.4-4.2,9.4-9.4
		C44.2-32.3,40-36.5,34.8-36.5 M34.8-15.7c-6.3,0-11.4-5.1-11.4-11.4s5.1-11.4,11.4-11.4s11.4,5.1,11.4,11.4S41.1-15.7,34.8-15.7"/>
	<path id="Fill-6_10_" class="st1" d="M52.2,0.5c-0.6,0-1-0.5-1-1v-5.6c0-3.5-2.8-6.4-6.3-6.6l-9.7,8.9c-0.4,0.4-1,0.4-1.4,0
		l-9.7-8.9c-3.5,0.2-6.3,3.1-6.3,6.6v5.6c0,0.6-0.5,1-1,1c-0.6,0-1-0.5-1-1v-5.6c0-4.8,3.9-8.7,8.7-8.7c0.3,0,0.5,0.1,0.7,0.3
		l9.3,8.6l9.3-8.6c0.2-0.2,0.4-0.3,0.7-0.3c4.8,0,8.7,3.9,8.7,8.7v5.6C53.2,0.1,52.7,0.5,52.2,0.5"/>
	<path id="Fill-8_9_" class="st1" d="M52.2,2.8H16.8c-0.6,0-1-0.5-1-1v-7.1c0-0.6,0.5-1,1-1c0.6,0,1,0.5,1,1v6h33.3v-6
		c0-0.6,0.5-1,1-1s1,0.5,1,1v7.1C53.2,2.3,52.7,2.8,52.2,2.8"/>
	<path id="Fill-10_8_" class="st1" d="M42,9.8H27c-0.6,0-1-0.5-1-1c0-0.6,0.5-1,1-1h15c0.6,0,1,0.5,1,1C43,9.4,42.5,9.8,42,9.8"/>
</g>
</svg>
