<?xml version="1.0" encoding="utf-8"?>
<!-- Generator: Adobe Illustrator 21.1.0, SVG Export Plug-In . SVG Version: 6.00 Build 0)  -->
<svg xmlns:xlink="http://www.w3.org/1999/xlink" version="1.1" id="Слой_1" xmlns="http://www.w3.org/2000/svg" x="0px" y="0px"
	 viewBox="0 0 26.3 26.3" style="enable-background:new 0 0 26.3 26.3;" xml:space="preserve">
<style type="text/css">
	.st0{clip-path:url(#SVGID_2_);}
	.st1{clip-path:url(#SVGID_4_);fill:#97CA52;}
	.st2{clip-path:url(#SVGID_6_);}
	.st3{clip-path:url(#SVGID_8_);enable-background:new    ;}
	.st4{clip-path:url(#SVGID_10_);}
	.st5{clip-path:url(#SVGID_12_);}
	.st6{clip-path:url(#SVGID_14_);fill:#97CA50;}
	.st7{clip-path:url(#SVGID_16_);}
	.st8{clip-path:url(#SVGID_18_);fill:#FEFEFE;}
	.st9{clip-path:url(#SVGID_20_);}
	.st10{clip-path:url(#SVGID_22_);fill:#FEFEFE;}
	.st11{clip-path:url(#SVGID_24_);}
	.st12{clip-path:url(#SVGID_26_);fill:#FEFEFE;}
	.st13{clip-path:url(#SVGID_28_);}
	.st14{clip-path:url(#SVGID_30_);fill:#FEFEFE;}
	.st15{clip-path:url(#SVGID_32_);}
	.st16{clip-path:url(#SVGID_34_);fill:#FEFEFE;}
</style>
<g>
	<defs>
		<path id="SVGID_1_" d="M25.6,13.2c0,6.9-5.6,12.4-12.4,12.4C6.3,25.6,0.8,20,0.8,13.2S6.3,0.7,13.2,0.7C20,0.7,25.6,6.3,25.6,13.2
			"/>
	</defs>
	<clipPath id="SVGID_2_">
		<use xlink:href="#SVGID_1_"  style="overflow:visible;"/>
	</clipPath>
	<g class="st0">
		<defs>
			<rect id="SVGID_3_" x="-140" y="-1794" width="1920" height="2203"/>
		</defs>
		<clipPath id="SVGID_4_">
			<use xlink:href="#SVGID_3_"  style="overflow:visible;"/>
		</clipPath>
		<rect x="-4.2" y="-4.3" class="st1" width="34.8" height="34.8"/>
	</g>
</g>
<g>
	<defs>
		<rect id="SVGID_5_" width="26.3" height="26.3"/>
	</defs>
	<clipPath id="SVGID_6_">
		<use xlink:href="#SVGID_5_"  style="overflow:visible;"/>
	</clipPath>
	<g class="st2">
		<defs>
			<rect id="SVGID_7_" x="-140" y="-1794" width="1920" height="2203"/>
		</defs>
		<clipPath id="SVGID_8_">
			<use xlink:href="#SVGID_7_"  style="overflow:visible;"/>
		</clipPath>
		<g class="st3">
			<g>
				<defs>
					<rect id="SVGID_9_" x="0" y="0" width="27" height="27"/>
				</defs>
				<clipPath id="SVGID_10_">
					<use xlink:href="#SVGID_9_"  style="overflow:visible;"/>
				</clipPath>
				<g class="st4">
					<defs>
						<path id="SVGID_11_" d="M13.2,26.3C5.9,26.3,0,20.4,0,13.2C0,5.9,5.9,0,13.2,0s13.2,5.9,13.2,13.2
							C26.3,20.4,20.4,26.3,13.2,26.3 M13.2,1.5C6.7,1.5,1.5,6.7,1.5,13.2c0,6.4,5.2,11.7,11.7,11.7c6.4,0,11.7-5.2,11.7-11.7
							C24.8,6.7,19.6,1.5,13.2,1.5"/>
					</defs>
					<clipPath id="SVGID_12_">
						<use xlink:href="#SVGID_11_"  style="overflow:visible;"/>
					</clipPath>
					<g class="st5">
						<defs>
							<rect id="SVGID_13_" x="0" y="0" width="27" height="27"/>
						</defs>
						<clipPath id="SVGID_14_">
							<use xlink:href="#SVGID_13_"  style="overflow:visible;"/>
						</clipPath>
						<rect x="-5" y="-5" class="st6" width="36.3" height="36.3"/>
					</g>
				</g>
			</g>
		</g>
	</g>
</g>
<g>
	<defs>
		<path id="SVGID_15_" d="M13.5,18.4H8.4c-0.4,0-0.8-0.3-0.8-0.8s0.3-0.8,0.8-0.8h5.1c0.4,0,0.8,0.3,0.8,0.8S13.9,18.4,13.5,18.4"/>
	</defs>
	<clipPath id="SVGID_16_">
		<use xlink:href="#SVGID_15_"  style="overflow:visible;"/>
	</clipPath>
	<g class="st7">
		<defs>
			<rect id="SVGID_17_" x="-140" y="-1794" width="1920" height="2203"/>
		</defs>
		<clipPath id="SVGID_18_">
			<use xlink:href="#SVGID_17_"  style="overflow:visible;"/>
		</clipPath>
		<rect x="2.6" y="11.9" class="st8" width="16.6" height="11.5"/>
	</g>
</g>
<g>
	<defs>
		<path id="SVGID_19_" d="M10.9,20.9c-0.4,0-0.8-0.3-0.8-0.8V7c0-0.4,0.3-0.8,0.8-0.8s0.8,0.3,0.8,0.8v13.1
			C11.7,20.6,11.3,20.9,10.9,20.9"/>
	</defs>
	<clipPath id="SVGID_20_">
		<use xlink:href="#SVGID_19_"  style="overflow:visible;"/>
	</clipPath>
	<g class="st9">
		<defs>
			<rect id="SVGID_21_" x="-140" y="-1794" width="1920" height="2203"/>
		</defs>
		<clipPath id="SVGID_22_">
			<use xlink:href="#SVGID_21_"  style="overflow:visible;"/>
		</clipPath>
		<rect x="5.2" y="1.3" class="st10" width="11.5" height="24.6"/>
	</g>
</g>
<g>
	<defs>
		<path id="SVGID_23_" d="M11,15H8.4c-0.4,0-0.8-0.3-0.8-0.8s0.3-0.8,0.8-0.8H11c0.4,0,0.8,0.3,0.8,0.8S11.4,15,11,15"/>
	</defs>
	<clipPath id="SVGID_24_">
		<use xlink:href="#SVGID_23_"  style="overflow:visible;"/>
	</clipPath>
	<g class="st11">
		<defs>
			<rect id="SVGID_25_" x="-140" y="-1794" width="1920" height="2203"/>
		</defs>
		<clipPath id="SVGID_26_">
			<use xlink:href="#SVGID_25_"  style="overflow:visible;"/>
		</clipPath>
		<rect x="2.6" y="8.5" class="st12" width="14.2" height="11.5"/>
	</g>
</g>
<g>
	<defs>
		<path id="SVGID_27_" d="M14.4,15h-3.6c-0.4,0-0.8-0.3-0.8-0.8V6.4c0-0.4,0.3-0.8,0.8-0.8h3.6c0.4,0,0.8,0.3,0.8,0.8
			s-0.3,0.8-0.8,0.8h-2.9v6.3h2.9c0.4,0,0.8,0.3,0.8,0.8S14.8,15,14.4,15"/>
	</defs>
	<clipPath id="SVGID_28_">
		<use xlink:href="#SVGID_27_"  style="overflow:visible;"/>
	</clipPath>
	<g class="st13">
		<defs>
			<rect id="SVGID_29_" x="-140" y="-1794" width="1920" height="2203"/>
		</defs>
		<clipPath id="SVGID_30_">
			<use xlink:href="#SVGID_29_"  style="overflow:visible;"/>
		</clipPath>
		<rect x="5" y="0.7" class="st14" width="15.1" height="19.3"/>
	</g>
</g>
<g>
	<defs>
		<path id="SVGID_31_" d="M14.7,15c-0.4,0-0.8-0.3-0.8-0.8s0.3-0.8,0.8-0.8c1.7,0,3.2-1.4,3.2-3.2c0-1.7-1.4-3.2-3.2-3.2
			c-0.4,0-0.8-0.3-0.8-0.8s0.3-0.8,0.8-0.8c2.6,0,4.7,2.1,4.7,4.7C19.3,12.9,17.2,15,14.7,15"/>
	</defs>
	<clipPath id="SVGID_32_">
		<use xlink:href="#SVGID_31_"  style="overflow:visible;"/>
	</clipPath>
	<g class="st15">
		<defs>
			<rect id="SVGID_33_" x="-140" y="-1794" width="1920" height="2203"/>
		</defs>
		<clipPath id="SVGID_34_">
			<use xlink:href="#SVGID_33_"  style="overflow:visible;"/>
		</clipPath>
		<rect x="8.9" y="0.7" class="st16" width="15.4" height="19.3"/>
	</g>
</g>
</svg>
