<?xml version="1.0" encoding="utf-8"?>
<!-- Generator: Adobe Illustrator 21.1.0, SVG Export Plug-In . SVG Version: 6.00 Build 0)  -->
<svg xmlns:xlink="http://www.w3.org/1999/xlink" version="1.1" id="Слой_1" xmlns="http://www.w3.org/2000/svg" x="0px" y="0px"
	 viewBox="0 0 26.3 26.3" style="enable-background:new 0 0 26.3 26.3;" xml:space="preserve">
<style type="text/css">
	.st0{clip-path:url(#SVGID_2_);}
	.st1{clip-path:url(#SVGID_4_);fill:#97CA52;}
	.st2{clip-path:url(#SVGID_6_);}
	.st3{clip-path:url(#SVGID_8_);enable-background:new    ;}
	.st4{clip-path:url(#SVGID_10_);}
	.st5{clip-path:url(#SVGID_12_);}
	.st6{clip-path:url(#SVGID_14_);fill:#97CA50;}
	.st7{clip-path:url(#SVGID_16_);}
	.st8{clip-path:url(#SVGID_18_);fill:#FEFEFE;}
	.st9{clip-path:url(#SVGID_20_);}
	.st10{clip-path:url(#SVGID_22_);fill:#FEFEFE;}
	.st11{clip-path:url(#SVGID_24_);}
	.st12{clip-path:url(#SVGID_26_);fill:#FEFEFE;}
</style>
<g>
	<defs>
		<path id="SVGID_1_" d="M25.6,13.2c0,6.9-5.6,12.4-12.4,12.4C6.3,25.6,0.8,20,0.8,13.2S6.3,0.7,13.2,0.7C20,0.7,25.6,6.3,25.6,13.2
			"/>
	</defs>
	<clipPath id="SVGID_2_">
		<use xlink:href="#SVGID_1_"  style="overflow:visible;"/>
	</clipPath>
	<g class="st0">
		<defs>
			<rect id="SVGID_3_" x="-140" y="-1845" width="1920" height="2203"/>
		</defs>
		<clipPath id="SVGID_4_">
			<use xlink:href="#SVGID_3_"  style="overflow:visible;"/>
		</clipPath>
		<rect x="-4.2" y="-4.3" class="st1" width="34.8" height="34.8"/>
	</g>
</g>
<g>
	<defs>
		<rect id="SVGID_5_" width="26.3" height="26.3"/>
	</defs>
	<clipPath id="SVGID_6_">
		<use xlink:href="#SVGID_5_"  style="overflow:visible;"/>
	</clipPath>
	<g class="st2">
		<defs>
			<rect id="SVGID_7_" x="-140" y="-1845" width="1920" height="2203"/>
		</defs>
		<clipPath id="SVGID_8_">
			<use xlink:href="#SVGID_7_"  style="overflow:visible;"/>
		</clipPath>
		<g class="st3">
			<g>
				<defs>
					<rect id="SVGID_9_" x="0" y="0" width="27" height="27"/>
				</defs>
				<clipPath id="SVGID_10_">
					<use xlink:href="#SVGID_9_"  style="overflow:visible;"/>
				</clipPath>
				<g class="st4">
					<defs>
						<path id="SVGID_11_" d="M13.2,26.3C5.9,26.3,0,20.4,0,13.2C0,5.9,5.9,0,13.2,0s13.2,5.9,13.2,13.2
							C26.3,20.4,20.4,26.3,13.2,26.3 M13.2,1.5C6.7,1.5,1.5,6.7,1.5,13.2c0,6.4,5.2,11.7,11.7,11.7c6.4,0,11.7-5.2,11.7-11.7
							C24.8,6.7,19.6,1.5,13.2,1.5"/>
					</defs>
					<clipPath id="SVGID_12_">
						<use xlink:href="#SVGID_11_"  style="overflow:visible;"/>
					</clipPath>
					<g class="st5">
						<defs>
							<rect id="SVGID_13_" x="0" y="0" width="27" height="27"/>
						</defs>
						<clipPath id="SVGID_14_">
							<use xlink:href="#SVGID_13_"  style="overflow:visible;"/>
						</clipPath>
						<rect x="-5" y="-5" class="st6" width="36.3" height="36.3"/>
					</g>
				</g>
			</g>
		</g>
	</g>
</g>
<g>
	<defs>
		<path id="SVGID_15_" d="M11.9,20.4c-0.4,0-0.7-0.3-0.7-0.7v-3c0-0.4,0.3-0.7,0.7-0.7s0.7,0.3,0.7,0.7v3
			C12.6,20.1,12.3,20.4,11.9,20.4"/>
	</defs>
	<clipPath id="SVGID_16_">
		<use xlink:href="#SVGID_15_"  style="overflow:visible;"/>
	</clipPath>
	<g class="st7">
		<defs>
			<rect id="SVGID_17_" x="-135.1" y="-1851.4" width="1873.4" height="2149.5"/>
		</defs>
		<clipPath id="SVGID_18_">
			<use xlink:href="#SVGID_17_"  style="overflow:visible;"/>
		</clipPath>
		<rect x="6.3" y="11.1" class="st8" width="11.2" height="14.2"/>
	</g>
</g>
<g>
	<defs>
		<path id="SVGID_19_" d="M19.1,13.6h-3.9c-0.4,0-0.7-0.3-0.7-0.7c0-0.4,0.3-0.7,0.7-0.7h3.9c0.4,0,0.7,0.3,0.7,0.7
			C19.9,13.3,19.5,13.6,19.1,13.6"/>
	</defs>
	<clipPath id="SVGID_20_">
		<use xlink:href="#SVGID_19_"  style="overflow:visible;"/>
	</clipPath>
	<g class="st9">
		<defs>
			<rect id="SVGID_21_" x="-135.1" y="-1851.4" width="1873.4" height="2149.5"/>
		</defs>
		<clipPath id="SVGID_22_">
			<use xlink:href="#SVGID_21_"  style="overflow:visible;"/>
		</clipPath>
		<rect x="9.6" y="7.3" class="st10" width="15.2" height="11.2"/>
	</g>
</g>
<g>
	<defs>
		<path id="SVGID_23_" d="M17.9,20.8h-10c-1.6,0-2.9-1.3-2.9-2.9v-10C5,6.3,6.3,5,7.9,5h10c1.6,0,2.9,1.3,2.9,2.9v10
			C20.8,19.5,19.5,20.8,17.9,20.8z M7.9,6.5c-0.8,0-1.4,0.6-1.4,1.4v10c0,0.8,0.6,1.4,1.4,1.4h10c0.8,0,1.4-0.6,1.4-1.4v-10
			c0-0.8-0.6-1.4-1.4-1.4H7.9z"/>
	</defs>
	<clipPath id="SVGID_24_">
		<use xlink:href="#SVGID_23_"  style="overflow:visible;"/>
	</clipPath>
	<g class="st11">
		<defs>
			<rect id="SVGID_25_" x="-135.1" y="-1851.4" width="1873.4" height="2149.5"/>
		</defs>
		<clipPath id="SVGID_26_">
			<use xlink:href="#SVGID_25_"  style="overflow:visible;"/>
		</clipPath>
		<rect x="0.1" y="0.1" class="st12" width="25.5" height="25.5"/>
	</g>
</g>
</svg>
