<?xml version="1.0" encoding="utf-8"?>
<!-- Generator: Adobe Illustrator 21.1.0, SVG Export Plug-In . SVG Version: 6.00 Build 0)  -->
<svg xmlns:xlink="http://www.w3.org/1999/xlink" version="1.1" id="Слой_1" xmlns="http://www.w3.org/2000/svg" x="0px" y="0px"
	 viewBox="0 0 26.3 26.3" style="enable-background:new 0 0 26.3 26.3;" xml:space="preserve">
<style type="text/css">
	.st0{clip-path:url(#SVGID_2_);}
	.st1{clip-path:url(#SVGID_4_);fill:#97CA52;}
	.st2{clip-path:url(#SVGID_6_);}
	.st3{clip-path:url(#SVGID_8_);enable-background:new    ;}
	.st4{clip-path:url(#SVGID_10_);}
	.st5{clip-path:url(#SVGID_12_);}
	.st6{clip-path:url(#SVGID_14_);fill:#97CA50;}
	.st7{clip-path:url(#SVGID_16_);}
	.st8{clip-path:url(#SVGID_18_);fill:#FEFEFE;}
	.st9{clip-path:url(#SVGID_20_);}
	.st10{clip-path:url(#SVGID_22_);fill:#FEFEFE;}
	.st11{clip-path:url(#SVGID_24_);}
	.st12{clip-path:url(#SVGID_26_);fill:#FEFEFE;}
</style>
<g>
	<defs>
		<path id="SVGID_1_" d="M25.6,13.2c0,6.9-5.6,12.4-12.4,12.4C6.3,25.6,0.8,20,0.8,13.2S6.3,0.7,13.2,0.7C20,0.7,25.6,6.3,25.6,13.2
			"/>
	</defs>
	<clipPath id="SVGID_2_">
		<use xlink:href="#SVGID_1_"  style="overflow:visible;"/>
	</clipPath>
	<g class="st0">
		<defs>
			<rect id="SVGID_3_" x="-140" y="-1845" width="1920" height="2203"/>
		</defs>
		<clipPath id="SVGID_4_">
			<use xlink:href="#SVGID_3_"  style="overflow:visible;"/>
		</clipPath>
		<rect x="-4.2" y="-4.3" class="st1" width="34.8" height="34.8"/>
	</g>
</g>
<g>
	<defs>
		<rect id="SVGID_5_" width="26.3" height="26.3"/>
	</defs>
	<clipPath id="SVGID_6_">
		<use xlink:href="#SVGID_5_"  style="overflow:visible;"/>
	</clipPath>
	<g class="st2">
		<defs>
			<rect id="SVGID_7_" x="-140" y="-1845" width="1920" height="2203"/>
		</defs>
		<clipPath id="SVGID_8_">
			<use xlink:href="#SVGID_7_"  style="overflow:visible;"/>
		</clipPath>
		<g class="st3">
			<g>
				<defs>
					<rect id="SVGID_9_" x="0" y="0" width="27" height="27"/>
				</defs>
				<clipPath id="SVGID_10_">
					<use xlink:href="#SVGID_9_"  style="overflow:visible;"/>
				</clipPath>
				<g class="st4">
					<defs>
						<path id="SVGID_11_" d="M13.2,26.3C5.9,26.3,0,20.4,0,13.2C0,5.9,5.9,0,13.2,0s13.2,5.9,13.2,13.2
							C26.3,20.4,20.4,26.3,13.2,26.3 M13.2,1.5C6.7,1.5,1.5,6.7,1.5,13.2c0,6.4,5.2,11.7,11.7,11.7c6.4,0,11.7-5.2,11.7-11.7
							C24.8,6.7,19.6,1.5,13.2,1.5"/>
					</defs>
					<clipPath id="SVGID_12_">
						<use xlink:href="#SVGID_11_"  style="overflow:visible;"/>
					</clipPath>
					<g class="st5">
						<defs>
							<rect id="SVGID_13_" x="0" y="0" width="27" height="27"/>
						</defs>
						<clipPath id="SVGID_14_">
							<use xlink:href="#SVGID_13_"  style="overflow:visible;"/>
						</clipPath>
						<rect x="-5" y="-5" class="st6" width="36.3" height="36.3"/>
					</g>
				</g>
			</g>
		</g>
	</g>
</g>
<g>
	<defs>
		<path id="SVGID_15_" d="M10.6,17c-0.4,0-0.8-0.3-0.8-0.8V12c0-0.9-0.7-1.7-1.7-1.7c-0.9,0-1.7,0.7-1.7,1.7v4.3
			c0,0.4-0.3,0.8-0.8,0.8s-0.8-0.3-0.8-0.8V12c0-1.7,1.4-3.2,3.2-3.2s3.2,1.4,3.2,3.2v4.3C11.4,16.7,11,17,10.6,17"/>
	</defs>
	<clipPath id="SVGID_16_">
		<use xlink:href="#SVGID_15_"  style="overflow:visible;"/>
	</clipPath>
	<g class="st7">
		<defs>
			<rect id="SVGID_17_" x="-140" y="-1845" width="1920" height="2203"/>
		</defs>
		<clipPath id="SVGID_18_">
			<use xlink:href="#SVGID_17_"  style="overflow:visible;"/>
		</clipPath>
		<rect x="0.1" y="3.9" class="st8" width="16.3" height="18.2"/>
	</g>
</g>
<g>
	<defs>
		<path id="SVGID_19_" d="M15.4,17c-0.4,0-0.8-0.3-0.8-0.8V12c0-0.9-0.7-1.7-1.7-1.7c-0.9,0-1.7,0.7-1.7,1.7v4.3
			c0,0.4-0.3,0.8-0.8,0.8s-0.8-0.3-0.8-0.8V12c0-1.7,1.4-3.2,3.2-3.2c1.7,0,3.2,1.4,3.2,3.2v4.3C16.2,16.7,15.9,17,15.4,17"/>
	</defs>
	<clipPath id="SVGID_20_">
		<use xlink:href="#SVGID_19_"  style="overflow:visible;"/>
	</clipPath>
	<g class="st9">
		<defs>
			<rect id="SVGID_21_" x="-140" y="-1845" width="1920" height="2203"/>
		</defs>
		<clipPath id="SVGID_22_">
			<use xlink:href="#SVGID_21_"  style="overflow:visible;"/>
		</clipPath>
		<rect x="4.9" y="3.9" class="st10" width="16.3" height="18.2"/>
	</g>
</g>
<g>
	<defs>
		<path id="SVGID_23_" d="M21.5,12.4h-2.6c-0.4,0-0.6-0.3-0.6-0.6c0-0.2,0.1-0.3,0.1-0.4l2.4-3.1c0.1-0.3,0-0.5-0.2-0.7
			c-0.2-0.1-0.4-0.2-0.7-0.1c-0.2,0.1-0.3,0.3-0.3,0.5c0,0.4-0.3,0.7-0.7,0.7c-0.4,0-0.7-0.3-0.7-0.7c0-0.5,0.2-0.9,0.5-1.2v0
			l0.1-0.1c0.6-0.6,1.4-0.7,2.2-0.4c0.5,0.2,0.8,0.6,1,1.1c0.2,0.4,0.3,1.1-0.1,1.7l-1.7,2.1h1.3c0.4,0,0.6,0.3,0.6,0.7
			C22.2,12.1,21.9,12.4,21.5,12.4 M20.2,6.9c0.3,0,0.5,0.1,0.8,0.3c0.4,0.3,0.5,0.9,0.3,1.3l-2.5,3.1c0,0.1-0.1,0.1-0.1,0.1
			c0,0.1,0.1,0.1,0.1,0.1h2.6c0.1,0,0.1-0.1,0.1-0.1c0-0.1-0.1-0.2-0.1-0.2h-2.3l2.3-3c0.2-0.3,0.2-0.8,0.1-1.2
			c-0.1-0.3-0.4-0.6-0.8-0.8c-0.5-0.2-1.1-0.1-1.6,0.3L19.2,7c-0.3,0.3-0.4,0.6-0.4,1c0,0.2,0.3,0.2,0.3,0c0-0.4,0.2-0.7,0.5-0.9
			C19.8,7,20,6.9,20.2,6.9"/>
	</defs>
	<clipPath id="SVGID_24_">
		<use xlink:href="#SVGID_23_"  style="overflow:visible;"/>
	</clipPath>
	<g class="st11">
		<defs>
			<rect id="SVGID_25_" x="-140" y="-1845" width="1920" height="2203"/>
		</defs>
		<clipPath id="SVGID_26_">
			<use xlink:href="#SVGID_25_"  style="overflow:visible;"/>
		</clipPath>
		<rect x="13.2" y="1.1" class="st12" width="14" height="16.3"/>
	</g>
</g>
</svg>
