<?xml version="1.0" encoding="utf-8"?>
<!-- Generator: Adobe Illustrator 21.1.0, SVG Export Plug-In . SVG Version: 6.00 Build 0)  -->
<svg xmlns:xlink="http://www.w3.org/1999/xlink" version="1.1" id="Слой_1" xmlns="http://www.w3.org/2000/svg" x="0px" y="0px"
	 viewBox="0 0 75 75" style="enable-background:new 0 0 75 75;" xml:space="preserve">
<style type="text/css">
	.st0{clip-path:url(#SVGID_2_);}
	.st1{clip-path:url(#SVGID_4_);enable-background:new    ;}
	.st2{clip-path:url(#SVGID_6_);}
	.st3{clip-path:url(#SVGID_8_);}
	.st4{clip-path:url(#SVGID_10_);fill:#9FC41F;}
	.st5{clip-path:url(#SVGID_12_);}
	.st6{clip-path:url(#SVGID_14_);fill:#FFFFFF;}
	.st7{clip-path:url(#SVGID_16_);}
	.st8{clip-path:url(#SVGID_18_);fill:#FFFFFF;}
	.st9{clip-path:url(#SVGID_20_);}
	.st10{clip-path:url(#SVGID_22_);fill:#FFFFFF;}
	.st11{clip-path:url(#SVGID_24_);}
	.st12{clip-path:url(#SVGID_26_);fill:#FFFFFF;}
	.st13{clip-path:url(#SVGID_28_);}
	.st14{clip-path:url(#SVGID_30_);fill:#FFFFFF;}
	.st15{clip-path:url(#SVGID_32_);}
	.st16{clip-path:url(#SVGID_34_);fill:#FFFFFF;}
</style>
<g>
	<defs>
		<rect id="SVGID_1_" width="75" height="75"/>
	</defs>
	<clipPath id="SVGID_2_">
		<use xlink:href="#SVGID_1_"  style="overflow:visible;"/>
	</clipPath>
	<g class="st0">
		<defs>
			<rect id="SVGID_3_" x="-164" y="-981.1" width="1920" height="2203"/>
		</defs>
		<clipPath id="SVGID_4_">
			<use xlink:href="#SVGID_3_"  style="overflow:visible;"/>
		</clipPath>
		<g class="st1">
			<g>
				<defs>
					<rect id="SVGID_5_" y="-0.1" width="75" height="76"/>
				</defs>
				<clipPath id="SVGID_6_">
					<use xlink:href="#SVGID_5_"  style="overflow:visible;"/>
				</clipPath>
				<g class="st2">
					<defs>
						<path id="SVGID_7_" d="M37.5,0C16.8,0,0,16.8,0,37.5S16.8,75,37.5,75C58.2,75,75,58.2,75,37.5S58.2,0,37.5,0"/>
					</defs>
					<clipPath id="SVGID_8_">
						<use xlink:href="#SVGID_7_"  style="overflow:visible;"/>
					</clipPath>
					<g class="st3">
						<defs>
							<rect id="SVGID_9_" y="-0.1" width="75" height="76"/>
						</defs>
						<clipPath id="SVGID_10_">
							<use xlink:href="#SVGID_9_"  style="overflow:visible;"/>
						</clipPath>
						<rect x="-5" y="-5" class="st4" width="85" height="85"/>
					</g>
				</g>
			</g>
		</g>
	</g>
</g>
<g>
	<defs>
		<path id="SVGID_11_" d="M32.1,54.7H15c-0.7,0-1.2-0.5-1.2-1.2V21.2c0-0.5,0.3-1,0.8-1.1L31.8,15c0.4-0.1,0.7,0,1,0.2
			c0.3,0.2,0.5,0.6,0.5,0.9v37.4C33.3,54.2,32.8,54.7,32.1,54.7z M16.2,52.3h14.7V17.7l-14.7,4.4V52.3z"/>
	</defs>
	<clipPath id="SVGID_12_">
		<use xlink:href="#SVGID_11_"  style="overflow:visible;"/>
	</clipPath>
	<g class="st5">
		<defs>
			<rect id="SVGID_13_" x="-164" y="-981.1" width="1920" height="2203"/>
		</defs>
		<clipPath id="SVGID_14_">
			<use xlink:href="#SVGID_13_"  style="overflow:visible;"/>
		</clipPath>
		<rect x="8.8" y="9.9" class="st6" width="29.4" height="49.8"/>
	</g>
</g>
<g>
	<defs>
		<path id="SVGID_15_" d="M40.6,54.7h-8.5c-0.7,0-1.2-0.5-1.2-1.2V16.1c0-0.4,0.2-0.8,0.6-1c0.4-0.2,0.8-0.2,1.2,0l8.5,5.1
			c0.4,0.2,0.6,0.6,0.6,1v32.3C41.8,54.2,41.2,54.7,40.6,54.7z M33.3,52.3h6.1V21.9l-6.1-3.7V52.3z"/>
	</defs>
	<clipPath id="SVGID_16_">
		<use xlink:href="#SVGID_15_"  style="overflow:visible;"/>
	</clipPath>
	<g class="st7">
		<defs>
			<rect id="SVGID_17_" x="-164" y="-981.1" width="1920" height="2203"/>
		</defs>
		<clipPath id="SVGID_18_">
			<use xlink:href="#SVGID_17_"  style="overflow:visible;"/>
		</clipPath>
		<rect x="25.9" y="9.9" class="st8" width="20.8" height="49.8"/>
	</g>
</g>
<g>
	<defs>
		<path id="SVGID_19_" d="M46,54.7h-5.6c-0.7,0-1.2-0.5-1.2-1.2c0-0.7,0.5-1.2,1.2-1.2h4.4V26.8l-3.6,1C40.6,28,40,27.6,39.8,27
			c-0.2-0.6,0.2-1.3,0.8-1.5l5.1-1.4c0.4-0.1,0.7,0,1,0.2c0.3,0.2,0.5,0.6,0.5,0.9v28.3C47.2,54.2,46.6,54.7,46,54.7"/>
	</defs>
	<clipPath id="SVGID_20_">
		<use xlink:href="#SVGID_19_"  style="overflow:visible;"/>
	</clipPath>
	<g class="st9">
		<defs>
			<rect id="SVGID_21_" x="-164" y="-981.1" width="1920" height="2203"/>
		</defs>
		<clipPath id="SVGID_22_">
			<use xlink:href="#SVGID_21_"  style="overflow:visible;"/>
		</clipPath>
		<rect x="34.2" y="19" class="st10" width="18" height="40.7"/>
	</g>
</g>
<g>
	<defs>
		<path id="SVGID_23_" d="M52.4,54.7H46c-0.7,0-1.2-0.5-1.2-1.2V25.2c0-0.4,0.2-0.8,0.6-1c0.4-0.2,0.8-0.2,1.2,0l6.4,3.9
			c0.4,0.2,0.6,0.6,0.6,1v24.4C53.6,54.2,53.1,54.7,52.4,54.7z M47.2,52.3h4.1V29.8l-4.1-2.4V52.3z"/>
	</defs>
	<clipPath id="SVGID_24_">
		<use xlink:href="#SVGID_23_"  style="overflow:visible;"/>
	</clipPath>
	<g class="st11">
		<defs>
			<rect id="SVGID_25_" x="-164" y="-981.1" width="1920" height="2203"/>
		</defs>
		<clipPath id="SVGID_26_">
			<use xlink:href="#SVGID_25_"  style="overflow:visible;"/>
		</clipPath>
		<rect x="39.8" y="19" class="st12" width="18.8" height="40.7"/>
	</g>
</g>
<g>
	<defs>
		<path id="SVGID_27_" d="M57.1,54.7h-4.6c-0.7,0-1.2-0.5-1.2-1.2c0-0.7,0.5-1.2,1.2-1.2h3.5V34.2L53.4,35c-0.6,0.2-1.3-0.2-1.5-0.8
			c-0.2-0.6,0.2-1.3,0.8-1.5l4-1.2c0.4-0.1,0.7,0,1,0.2c0.3,0.2,0.5,0.6,0.5,0.9v20.9C58.3,54.2,57.7,54.7,57.1,54.7"/>
	</defs>
	<clipPath id="SVGID_28_">
		<use xlink:href="#SVGID_27_"  style="overflow:visible;"/>
	</clipPath>
	<g class="st13">
		<defs>
			<rect id="SVGID_29_" x="-164" y="-981.1" width="1920" height="2203"/>
		</defs>
		<clipPath id="SVGID_30_">
			<use xlink:href="#SVGID_29_"  style="overflow:visible;"/>
		</clipPath>
		<rect x="46.3" y="26.5" class="st14" width="17" height="33.2"/>
	</g>
</g>
<g>
	<defs>
		<path id="SVGID_31_" d="M61.8,54.7h-4.7c-0.7,0-1.2-0.5-1.2-1.2V32.7c0-0.4,0.2-0.8,0.6-1c0.4-0.2,0.8-0.2,1.2,0l4.7,2.9
			c0.4,0.2,0.6,0.6,0.6,1v18C63,54.2,62.5,54.7,61.8,54.7z M58.3,52.3h2.4V36.2l-2.4-1.4V52.3z"/>
	</defs>
	<clipPath id="SVGID_32_">
		<use xlink:href="#SVGID_31_"  style="overflow:visible;"/>
	</clipPath>
	<g class="st15">
		<defs>
			<rect id="SVGID_33_" x="-164" y="-981.1" width="1920" height="2203"/>
		</defs>
		<clipPath id="SVGID_34_">
			<use xlink:href="#SVGID_33_"  style="overflow:visible;"/>
		</clipPath>
		<rect x="50.9" y="26.5" class="st16" width="17.1" height="33.2"/>
	</g>
</g>
</svg>
