<?xml version="1.0" encoding="utf-8"?>
<!-- Generator: Adobe Illustrator 21.1.0, SVG Export Plug-In . SVG Version: 6.00 Build 0)  -->
<svg xmlns:xlink="http://www.w3.org/1999/xlink" version="1.1" id="Слой_1" xmlns="http://www.w3.org/2000/svg" x="0px" y="0px"
	 viewBox="0 0 75 75" style="enable-background:new 0 0 75 75;" xml:space="preserve">
<style type="text/css">
	.st0{clip-path:url(#SVGID_2_);}
	.st1{clip-path:url(#SVGID_4_);enable-background:new    ;}
	.st2{clip-path:url(#SVGID_6_);}
	.st3{clip-path:url(#SVGID_8_);}
	.st4{clip-path:url(#SVGID_10_);fill:#9FC41F;}
	.st5{clip-path:url(#SVGID_12_);}
	.st6{clip-path:url(#SVGID_14_);fill:#FFFFFF;}
	.st7{clip-path:url(#SVGID_16_);}
	.st8{clip-path:url(#SVGID_18_);fill:#FFFFFF;}
	.st9{clip-path:url(#SVGID_20_);}
	.st10{clip-path:url(#SVGID_22_);fill:#FFFFFF;}
	.st11{clip-path:url(#SVGID_24_);}
	.st12{clip-path:url(#SVGID_26_);fill:#FFFFFF;}
	.st13{clip-path:url(#SVGID_28_);}
	.st14{clip-path:url(#SVGID_30_);fill:#FFFFFF;}
</style>
<g>
	<defs>
		<rect id="SVGID_1_" width="75" height="75"/>
	</defs>
	<clipPath id="SVGID_2_">
		<use xlink:href="#SVGID_1_"  style="overflow:visible;"/>
	</clipPath>
	<g class="st0">
		<defs>
			<rect id="SVGID_3_" x="-1338" y="-981.1" width="1920" height="2203"/>
		</defs>
		<clipPath id="SVGID_4_">
			<use xlink:href="#SVGID_3_"  style="overflow:visible;"/>
		</clipPath>
		<g class="st1">
			<g>
				<defs>
					<rect id="SVGID_5_" y="-0.1" width="75" height="76"/>
				</defs>
				<clipPath id="SVGID_6_">
					<use xlink:href="#SVGID_5_"  style="overflow:visible;"/>
				</clipPath>
				<g class="st2">
					<defs>
						<path id="SVGID_7_" d="M37.5,0C16.8,0,0,16.8,0,37.5S16.8,75,37.5,75C58.2,75,75,58.2,75,37.5S58.2,0,37.5,0"/>
					</defs>
					<clipPath id="SVGID_8_">
						<use xlink:href="#SVGID_7_"  style="overflow:visible;"/>
					</clipPath>
					<g class="st3">
						<defs>
							<rect id="SVGID_9_" y="-0.1" width="75" height="76"/>
						</defs>
						<clipPath id="SVGID_10_">
							<use xlink:href="#SVGID_9_"  style="overflow:visible;"/>
						</clipPath>
						<rect x="-5" y="-5" class="st4" width="85" height="85"/>
					</g>
				</g>
			</g>
		</g>
	</g>
</g>
<g>
	<defs>
		<path id="SVGID_11_" d="M29.3,55h-8.8c-0.7,0-1.2-0.5-1.2-1.2v-34c0-0.7,0.5-1.2,1.2-1.2h9.1c0.7,0,1.2,0.5,1.2,1.2
			c0,0.7-0.5,1.2-1.2,1.2h-7.9v31.7h7.6c0.7,0,1.2,0.5,1.2,1.2C30.5,54.4,30,55,29.3,55"/>
	</defs>
	<clipPath id="SVGID_12_">
		<use xlink:href="#SVGID_11_"  style="overflow:visible;"/>
	</clipPath>
	<g class="st5">
		<defs>
			<rect id="SVGID_13_" x="-1338" y="-981.1" width="1920" height="2203"/>
		</defs>
		<clipPath id="SVGID_14_">
			<use xlink:href="#SVGID_13_"  style="overflow:visible;"/>
		</clipPath>
		<rect x="14.4" y="13.6" class="st6" width="21.4" height="46.4"/>
	</g>
</g>
<g>
	<defs>
		<path id="SVGID_15_" d="M34.4,62c-0.3,0-0.6-0.1-0.8-0.3c-0.5-0.5-0.5-1.2,0-1.7l7-7c0.2-0.2,0.5-0.3,0.8-0.3h12V20.9H39.9
			c-0.7,0-1.2-0.5-1.2-1.2c0-0.7,0.5-1.2,1.2-1.2h14.7c0.7,0,1.2,0.5,1.2,1.2v34c0,0.7-0.5,1.2-1.2,1.2H41.9l-6.7,6.7
			C35,61.9,34.7,62,34.4,62"/>
	</defs>
	<clipPath id="SVGID_16_">
		<use xlink:href="#SVGID_15_"  style="overflow:visible;"/>
	</clipPath>
	<g class="st7">
		<defs>
			<rect id="SVGID_17_" x="-1338" y="-981.1" width="1920" height="2203"/>
		</defs>
		<clipPath id="SVGID_18_">
			<use xlink:href="#SVGID_17_"  style="overflow:visible;"/>
		</clipPath>
		<rect x="28.2" y="13.6" class="st8" width="32.6" height="53.4"/>
	</g>
</g>
<g>
	<defs>
		<path id="SVGID_19_" d="M35.8,36.9H20.6c-0.7,0-1.2-0.5-1.2-1.2s0.5-1.2,1.2-1.2h14V28c0-0.7,0.5-1.2,1.2-1.2
			c0.7,0,1.2,0.5,1.2,1.2v7.8C37,36.4,36.4,36.9,35.8,36.9"/>
	</defs>
	<clipPath id="SVGID_20_">
		<use xlink:href="#SVGID_19_"  style="overflow:visible;"/>
	</clipPath>
	<g class="st9">
		<defs>
			<rect id="SVGID_21_" x="-1338" y="-981.1" width="1920" height="2203"/>
		</defs>
		<clipPath id="SVGID_22_">
			<use xlink:href="#SVGID_21_"  style="overflow:visible;"/>
		</clipPath>
		<rect x="14.4" y="21.8" class="st10" width="27.6" height="20.1"/>
	</g>
</g>
<g>
	<defs>
		<path id="SVGID_23_" d="M53.8,46.2H41.2c-0.6,0-1.2-0.5-1.2-1.2s0.5-1.2,1.2-1.2h12.6c0.7,0,1.2,0.5,1.2,1.2S54.5,46.2,53.8,46.2"
			/>
	</defs>
	<clipPath id="SVGID_24_">
		<use xlink:href="#SVGID_23_"  style="overflow:visible;"/>
	</clipPath>
	<g class="st11">
		<defs>
			<rect id="SVGID_25_" x="-1338" y="-981.1" width="1920" height="2203"/>
		</defs>
		<clipPath id="SVGID_26_">
			<use xlink:href="#SVGID_25_"  style="overflow:visible;"/>
		</clipPath>
		<rect x="35.1" y="38.9" class="st12" width="24.9" height="12.4"/>
	</g>
</g>
<g>
	<defs>
		<path id="SVGID_27_" d="M45.6,28.4c-0.7,0-1.2-0.5-1.2-1.2v-6.8c0-0.7,0.5-1.2,1.2-1.2s1.2,0.5,1.2,1.2v6.8
			C46.8,27.9,46.3,28.4,45.6,28.4"/>
	</defs>
	<clipPath id="SVGID_28_">
		<use xlink:href="#SVGID_27_"  style="overflow:visible;"/>
	</clipPath>
	<g class="st13">
		<defs>
			<rect id="SVGID_29_" x="-1338" y="-981.1" width="1920" height="2203"/>
		</defs>
		<clipPath id="SVGID_30_">
			<use xlink:href="#SVGID_29_"  style="overflow:visible;"/>
		</clipPath>
		<rect x="39.5" y="14.2" class="st14" width="12.4" height="19.2"/>
	</g>
</g>
</svg>
