<?xml version="1.0" encoding="utf-8"?>
<!-- Generator: Adobe Illustrator 21.1.0, SVG Export Plug-In . SVG Version: 6.00 Build 0)  -->
<svg xmlns:xlink="http://www.w3.org/1999/xlink" version="1.1" id="Слой_1" xmlns="http://www.w3.org/2000/svg" x="0px" y="0px"
	 viewBox="0 0 75 75" style="enable-background:new 0 0 75 75;" xml:space="preserve">
<style type="text/css">
	.st0{clip-path:url(#SVGID_2_);}
	.st1{clip-path:url(#SVGID_4_);enable-background:new    ;}
	.st2{clip-path:url(#SVGID_6_);}
	.st3{clip-path:url(#SVGID_8_);}
	.st4{clip-path:url(#SVGID_10_);fill:#9FC41F;}
	.st5{clip-path:url(#SVGID_12_);}
	.st6{clip-path:url(#SVGID_14_);fill:#FFFFFF;}
	.st7{clip-path:url(#SVGID_16_);}
	.st8{clip-path:url(#SVGID_18_);fill:#FFFFFF;}
</style>
<g>
	<defs>
		<rect id="SVGID_1_" width="75" height="75"/>
	</defs>
	<clipPath id="SVGID_2_">
		<use xlink:href="#SVGID_1_"  style="overflow:visible;"/>
	</clipPath>
	<g class="st0">
		<defs>
			<rect id="SVGID_3_" x="-748" y="-981.1" width="1920" height="2203"/>
		</defs>
		<clipPath id="SVGID_4_">
			<use xlink:href="#SVGID_3_"  style="overflow:visible;"/>
		</clipPath>
		<g class="st1">
			<g>
				<defs>
					<rect id="SVGID_5_" y="-0.1" width="75" height="76"/>
				</defs>
				<clipPath id="SVGID_6_">
					<use xlink:href="#SVGID_5_"  style="overflow:visible;"/>
				</clipPath>
				<g class="st2">
					<defs>
						<path id="SVGID_7_" d="M37.5,0C16.8,0,0,16.8,0,37.5C0,58.2,16.8,75,37.5,75C58.2,75,75,58.2,75,37.5C75,16.8,58.2,0,37.5,0"
							/>
					</defs>
					<clipPath id="SVGID_8_">
						<use xlink:href="#SVGID_7_"  style="overflow:visible;"/>
					</clipPath>
					<g class="st3">
						<defs>
							<rect id="SVGID_9_" y="-0.1" width="75" height="76"/>
						</defs>
						<clipPath id="SVGID_10_">
							<use xlink:href="#SVGID_9_"  style="overflow:visible;"/>
						</clipPath>
						<rect x="-5" y="-5" class="st4" width="85" height="85"/>
					</g>
				</g>
			</g>
		</g>
	</g>
</g>
<g>
	<defs>
		<path id="SVGID_11_" d="M41.7,57.7h-21c-0.7,0-1.2-0.5-1.2-1.2V19.8c0-0.5,0.4-1,0.9-1.1l21-5.8c0.4-0.1,0.7,0,1,0.2
			c0.3,0.2,0.5,0.6,0.5,0.9v42.6C42.9,57.2,42.4,57.7,41.7,57.7z M21.9,55.4h18.6V15.5l-18.6,5.2V55.4z"/>
	</defs>
	<clipPath id="SVGID_12_">
		<use xlink:href="#SVGID_11_"  style="overflow:visible;"/>
	</clipPath>
	<g class="st5">
		<defs>
			<rect id="SVGID_13_" x="-748" y="-981.1" width="1920" height="2203"/>
		</defs>
		<clipPath id="SVGID_14_">
			<use xlink:href="#SVGID_13_"  style="overflow:visible;"/>
		</clipPath>
		<rect x="14.6" y="7.8" class="st6" width="33.3" height="54.9"/>
	</g>
</g>
<g>
	<defs>
		<path id="SVGID_15_" d="M52.1,57.7H41.7c-0.7,0-1.2-0.5-1.2-1.2V14c0-0.4,0.2-0.8,0.6-1c0.4-0.2,0.8-0.2,1.2,0l10.4,5.8
			c0.4,0.2,0.6,0.6,0.6,1v36.7C53.3,57.2,52.8,57.7,52.1,57.7z M42.9,55.4h8V20.5l-8-4.5V55.4z"/>
	</defs>
	<clipPath id="SVGID_16_">
		<use xlink:href="#SVGID_15_"  style="overflow:visible;"/>
	</clipPath>
	<g class="st7">
		<defs>
			<rect id="SVGID_17_" x="-748" y="-981.1" width="1920" height="2203"/>
		</defs>
		<clipPath id="SVGID_18_">
			<use xlink:href="#SVGID_17_"  style="overflow:visible;"/>
		</clipPath>
		<rect x="35.5" y="7.8" class="st8" width="22.8" height="54.9"/>
	</g>
</g>
</svg>
