<?xml version="1.0" encoding="utf-8"?>
<!-- Generator: Adobe Illustrator 21.1.0, SVG Export Plug-In . SVG Version: 6.00 Build 0)  -->
<svg version="1.1" id="Слой_1" xmlns="http://www.w3.org/2000/svg"  x="0px" y="0px"
	 viewBox="0 0 70 70" style="enable-background:new 0 0 70 70;" xml:space="preserve">
<style type="text/css">
	.st0{fill:#9FC41F;}
	.st1{fill:none;stroke:#FFFFFF;stroke-width:2.2;stroke-linecap:round;stroke-linejoin:round;stroke-miterlimit:10;}
</style>
<path class="st0" d="M35,0C15.7,0,0,15.7,0,35s15.7,35,35,35c19.3,0,35-15.7,35-35S54.3,0,35,0"/>
<polyline class="st1" points="16.1,15.3 22.1,15.3 24.8,42.7 49,42.7 51.1,23.8 44.5,23.8 "/>
<path class="st1" d="M22.4,52.4h-0.9c-2.7,0-4.9-2.2-4.9-4.9c0-2.7,2.2-4.9,4.9-4.9h5.4"/>
<circle class="st1" cx="27.4" cy="52.5" r="4.1"/>
<circle class="st1" cx="48" cy="52.5" r="4.1"/>
<line class="st1" x1="31.7" y1="52.4" x2="43.7" y2="52.4"/>
<line class="st1" x1="37.2" y1="26.1" x2="37.2" y2="36.8"/>
<line class="st1" x1="42.6" y1="31.5" x2="31.8" y2="31.5"/>
</svg>
