<?xml version="1.0" encoding="utf-8"?>
<!-- Generator: Adobe Illustrator 21.1.0, SVG Export Plug-In . SVG Version: 6.00 Build 0)  -->
<svg version="1.1" id="Слой_1" xmlns="http://www.w3.org/2000/svg"  x="0px" y="0px"
	 viewBox="0 0 30 30" style="enable-background:new 0 0 30 30;" xml:space="preserve">
<style type="text/css">
	.st0{fill:#A9C833;}
	.st1{fill:#FFFFFF;}
</style>
<path class="st0" d="M15,0C6.7,0,0,6.7,0,15c0,8.3,6.7,15,15,15c8.3,0,15-6.7,15-15C30,6.7,23.3,0,15,0"/>
<path class="st1" d="M10,22.3c-0.1,0-0.2,0-0.3-0.1c-0.1-0.1-0.2-0.3-0.2-0.5l0.9-5.3l-3.9-3.8c-0.1-0.1-0.2-0.3-0.1-0.5
	c0.1-0.2,0.2-0.3,0.4-0.3l5.4-0.8l2.4-4.8C14.7,6.1,14.8,6,15,6c0.2,0,0.3,0.1,0.4,0.3l2.4,4.8l5.4,0.8c0.2,0,0.3,0.1,0.4,0.3
	c0.1,0.2,0,0.4-0.1,0.5l-3.9,3.8l0.9,5.3c0,0.2,0,0.4-0.2,0.5c-0.1,0.1-0.3,0.1-0.5,0L15,19.7l-4.8,2.5C10.1,22.3,10.1,22.3,10,22.3
	 M7.9,12.7l3.4,3.3c0.1,0.1,0.2,0.3,0.1,0.4L10.6,21l4.2-2.2c0.1-0.1,0.3-0.1,0.4,0l4.2,2.2l-0.8-4.6c0-0.2,0-0.3,0.1-0.4l3.4-3.3
	L17.4,12c-0.2,0-0.3-0.1-0.4-0.3L15,7.5l-2.1,4.2c-0.1,0.1-0.2,0.2-0.4,0.3L7.9,12.7z"/>
</svg>
