<?xml version="1.0" encoding="utf-8"?>
<!-- Generator: Adobe Illustrator 21.1.0, SVG Export Plug-In . SVG Version: 6.00 Build 0)  -->
<svg version="1.1" id="Слой_1" xmlns="http://www.w3.org/2000/svg"  x="0px" y="0px"
	 viewBox="0 0 30 30" style="enable-background:new 0 0 30 30;" xml:space="preserve">
<style type="text/css">
	.st0{fill:#A9C833;}
	.st1{fill:#FFFFFF;}
</style>
<path class="st0" d="M15,30C6.7,30,0,23.3,0,15C0,6.7,6.7,0,15,0c8.3,0,15,6.7,15,15C30,23.3,23.3,30,15,30"/>
<path class="st1" d="M15,20.2H4.8c-0.3,0-0.5-0.2-0.5-0.5V6.9c0-0.3,0.2-0.5,0.5-0.5H15c0.3,0,0.5,0.2,0.5,0.5v12.9
	C15.5,20,15.3,20.2,15,20.2 M5.3,19.3h9.3V7.3H5.3V19.3z"/>
<path class="st1" d="M25.2,23.6H15c-0.3,0-0.5-0.2-0.5-0.5V10.3c0-0.3,0.2-0.5,0.5-0.5h10.2c0.3,0,0.5,0.2,0.5,0.5v12.9
	C25.7,23.4,25.5,23.6,25.2,23.6 M15.5,22.7h9.3V10.7h-9.3V22.7z"/>
<path class="st1" d="M15.4,23.2c-0.1,0-0.2,0-0.3-0.1c-0.2-0.2-0.2-0.5-0.1-0.7l9.9-12c0.2-0.2,0.5-0.2,0.7-0.1
	c0.2,0.2,0.2,0.5,0.1,0.7l-9.9,12C15.6,23.1,15.5,23.2,15.4,23.2"/>
<path class="st1" d="M20.5,23.6c-0.1,0-0.2,0-0.3-0.1C20,23.3,20,23,20.1,22.8l4.7-6c0.2-0.2,0.5-0.2,0.7-0.1
	c0.2,0.2,0.2,0.5,0.1,0.7l-4.7,6C20.8,23.5,20.6,23.6,20.5,23.6"/>
<path class="st1" d="M15.4,16.3c-0.1,0-0.2,0-0.3-0.1c-0.2-0.2-0.2-0.5-0.1-0.7l4.7-5.6c0.2-0.2,0.5-0.2,0.7-0.1
	c0.2,0.2,0.2,0.5,0.1,0.7l-4.7,5.6C15.6,16.3,15.5,16.3,15.4,16.3"/>
</svg>
