<?xml version="1.0" encoding="utf-8"?>
<!-- Generator: Adobe Illustrator 21.1.0, SVG Export Plug-In . SVG Version: 6.00 Build 0)  -->
<svg version="1.1" id="Слой_1" xmlns="http://www.w3.org/2000/svg"  x="0px" y="0px"
	 viewBox="0 0 70 70" style="enable-background:new 0 0 70 70;" xml:space="preserve">
<style type="text/css">
	.st0{fill:#9FC41F;}
	.st1{fill:none;stroke:#FFFFFF;stroke-width:2.2;stroke-linecap:round;stroke-linejoin:round;stroke-miterlimit:10;}
</style>
<path class="st0" d="M35,0C15.7,0,0,15.7,0,35c0,19.3,15.7,35,35,35c19.3,0,35-15.7,35-35C70,15.7,54.3,0,35,0"/>
<path class="st1" d="M38.1,29.7c-1.2-2.1-0.5-4.4,1.3-6.2l7.4-7.4"/>
<path class="st1" d="M55.4,24.8l-7.4,7.4c-1.6,1.6-3.8,2.3-5.8,1.5"/>
<line class="st1" x1="49.7" y1="19.2" x2="42.6" y2="26.2"/>
<line class="st1" x1="52.5" y1="21.9" x2="45.4" y2="29"/>
<path class="st1" d="M41.9,33.5L25.6,51.3c-0.9,0.9-2.8,0.6-4.2-0.8c-1.4-1.4-1.7-3.2-0.8-4.2l17.8-16.2"/>
<line class="st1" x1="31.2" y1="36.6" x2="28.2" y2="33.4"/>
<path class="st1" d="M39.2,36.9l10.1,9.4c0.9,0.9,0.6,2.8-0.8,4.2c-1.4,1.4-3.2,1.7-4.2,0.8l-9.1-10"/>
<line class="st1" x1="31.5" y1="29.9" x2="34.9" y2="33"/>
<path class="st1" d="M31.2,29.7c0.8-2.4,0.1-5.4-1.5-7.3c-2.2-2.5-8.5-8.5-13.2-4.1l0,0c0,0,0,0,0,0s0,0,0,0l0,0
	c-4.3,4.7,1.6,10.9,4.1,13.2c1.9,1.7,4.8,2.3,7.2,1.6"/>
</svg>
