<?xml version="1.0" encoding="utf-8"?>
<!-- Generator: Adobe Illustrator 21.1.0, SVG Export Plug-In . SVG Version: 6.00 Build 0)  -->
<svg version="1.1" id="Слой_1" xmlns="http://www.w3.org/2000/svg"  x="0px" y="0px"
	 viewBox="0 0 31 31" style="enable-background:new 0 0 31 31;" xml:space="preserve">
<style type="text/css">
	.st0{fill:#FFFFFF;stroke:#9FC41F;stroke-miterlimit:10;}
	.st1{fill:#A9C833;}
</style>
<g>
	<path class="st0" d="M0.5,15.5c0,8.3,6.7,15,15,15c8.3,0,15-6.7,15-15c0-8.3-6.7-15-15-15C7.2,0.5,0.5,7.2,0.5,15.5z"/>
	<g>
		<path class="st1" d="M13.7,21.7c-0.3,0-0.5-0.2-0.5-0.5l0-4.2l-1.9,0c-0.3,0-0.5-0.2-0.5-0.5c0-0.3,0.2-0.5,0.5-0.5l1.9,0l0-6.3
			c0-0.3,0.2-0.5,0.5-0.5l2.6,0c2.1,0,3.8,1.7,3.8,3.8c0,2.1-1.7,3.8-3.8,3.8l-2.2,0l0,4.2C14.1,21.5,13.9,21.7,13.7,21.7z
			 M14.1,16.1l2.2,0c1.6,0,2.9-1.3,2.9-2.9s-1.3-2.9-2.9-2.9l-2.2,0L14.1,16.1z"/>
		<path class="st1" d="M16.3,19.6l-5,0c-0.3,0-0.5-0.2-0.5-0.5c0-0.3,0.2-0.5,0.5-0.5l5,0c0.3,0,0.5,0.2,0.5,0.5
			S16.6,19.6,16.3,19.6z"/>
	</g>
	<path class="st1" d="M23.7,24.2l-16.5,0c-0.3,0-0.5-0.2-0.5-0.5l0-16.5C6.8,7,7,6.8,7.3,6.8l16.5,0c0.3,0,0.5,0.2,0.5,0.5l0,16.5
		C24.2,24,24,24.2,23.7,24.2z M7.8,23.3l15.5,0l0-15.5l-15.5,0L7.8,23.3z"/>
</g>
</svg>
