<?xml version="1.0" encoding="utf-8"?>
<!-- Generator: Adobe Illustrator 21.1.0, SVG Export Plug-In . SVG Version: 6.00 Build 0)  -->
<svg version="1.1" id="Слой_1" xmlns="http://www.w3.org/2000/svg"  x="0px" y="0px"
	 viewBox="0 0 33 33" style="enable-background:new 0 0 33 33;" xml:space="preserve">
<style type="text/css">
	.st0{fill:#A9C833;}
	.st1{fill:#FFFFFF;}
</style>
<g>
	<g>
		<path class="st0" d="M16.5,31.5c-8.3,0-15-6.7-15-15s6.7-15,15-15c8.3,0,15,6.7,15,15S24.8,31.5,16.5,31.5z"/>
		<path class="st1" d="M16.5,1.5c8.3,0,15,6.7,15,15s-6.7,15-15,15c-8.3,0-15-6.7-15-15S8.2,1.5,16.5,1.5 M16.5,0
			C7.4,0,0,7.4,0,16.5C0,25.6,7.4,33,16.5,33S33,25.6,33,16.5C33,7.4,25.6,0,16.5,0L16.5,0z"/>
	</g>
	<g>
		<path class="st1" d="M23.1,23.5c-1,0-1.9-0.8-1.9-1.9c0-0.3,0.2-0.5,0.5-0.5s0.5,0.2,0.5,0.5c0,0.5,0.4,0.9,0.9,0.9
			s0.9-0.4,0.9-0.9c0-0.4-0.3-0.8-0.7-0.9c-0.2-0.1-0.7-0.3-0.7-0.9c0-0.3,0-0.7,0-0.7c0-0.3,0.2-0.5,0.5-0.5c0.3,0,0.5,0.2,0.5,0.5
			c0,0,0,0.3,0,0.5c0,0,0,0,0,0c0.8,0.2,1.4,1,1.4,1.8C24.9,22.7,24.1,23.5,23.1,23.5z"/>
		<path class="st1" d="M23.1,19.6c-1,0-1.8-0.8-1.8-1.8s0.8-1.8,1.8-1.8s1.8,0.8,1.8,1.8S24.1,19.6,23.1,19.6z M23.1,16.9
			c-0.5,0-0.9,0.4-0.9,0.9s0.4,0.9,0.9,0.9s0.9-0.4,0.9-0.9S23.6,16.9,23.1,16.9z"/>
		<path class="st1" d="M17.8,26.3h-5.6c-0.3,0-0.5-0.2-0.5-0.5v-12c0-0.3,0.2-0.5,0.5-0.5s0.5,0.2,0.5,0.5v11.5h4.6V13.8
			c0-0.3,0.2-0.5,0.5-0.5s0.5,0.2,0.5,0.5v12C18.2,26.1,18,26.3,17.8,26.3z"/>
		<path class="st1" d="M17.8,12h-5.6c-0.2,0-0.3-0.1-0.4-0.2c-0.1-0.1-0.1-0.3,0-0.5l3-5.6c0.1-0.2,0.3-0.3,0.4-0.3
			c0.2,0,0.3,0.1,0.4,0.3l2.6,5.6c0.1,0.1,0.1,0.3,0,0.5C18.1,11.9,17.9,12,17.8,12z M13,11.1h4L15.1,7L13,11.1z"/>
		<path class="st1" d="M25.7,12c-0.1,0-0.1,0-0.2,0L16,7.8c-0.2-0.1-0.3-0.4-0.2-0.6c0.1-0.2,0.4-0.3,0.6-0.2l9.5,4.2
			c0.2,0.1,0.3,0.4,0.2,0.6C26,11.9,25.9,12,25.7,12z"/>
		<path class="st1" d="M7.1,12c-0.2,0-0.3-0.1-0.4-0.2c-0.1-0.2-0.1-0.5,0.2-0.6l7.3-4.2c0.2-0.1,0.5-0.1,0.6,0.2
			c0.1,0.2,0.1,0.5-0.2,0.6l-7.3,4.2C7.3,12,7.2,12,7.1,12z"/>
		<path class="st1" d="M26.2,14.2H6.9c-0.3,0-0.5-0.2-0.5-0.5v-2.1c0-0.3,0.2-0.5,0.5-0.5h19.3c0.3,0,0.5,0.2,0.5,0.5v2.1
			C26.6,14,26.4,14.2,26.2,14.2z M7.3,13.3h18.3v-1.2H7.3V13.3z"/>
		<path class="st1" d="M12.4,18.3c-0.1,0-0.3-0.1-0.4-0.2c-0.2-0.2-0.1-0.5,0.1-0.7l5.2-4c0.2-0.2,0.5-0.1,0.7,0.1
			c0.2,0.2,0.1,0.5-0.1,0.7l-5.2,4C12.6,18.2,12.5,18.3,12.4,18.3z"/>
		<path class="st1" d="M12.4,22.3c-0.1,0-0.3-0.1-0.4-0.2c-0.2-0.2-0.1-0.5,0.1-0.7l5.2-4c0.2-0.2,0.5-0.1,0.7,0.1
			c0.2,0.2,0.1,0.5-0.1,0.7l-5.2,4C12.6,22.2,12.5,22.3,12.4,22.3z"/>
		<path class="st1" d="M12.4,25.9c-0.1,0-0.3-0.1-0.4-0.2c-0.2-0.2-0.1-0.5,0.1-0.7l5.2-4c0.2-0.2,0.5-0.1,0.7,0.1
			c0.2,0.2,0.1,0.5-0.1,0.7l-5.2,4C12.6,25.9,12.5,25.9,12.4,25.9z"/>
		<path class="st1" d="M17.5,18.3h-5c-0.3,0-0.5-0.2-0.5-0.5s0.2-0.5,0.5-0.5h5c0.3,0,0.5,0.2,0.5,0.5S17.8,18.3,17.5,18.3z"/>
		<path class="st1" d="M17.5,22.2h-5c-0.3,0-0.5-0.2-0.5-0.5s0.2-0.5,0.5-0.5h5c0.3,0,0.5,0.2,0.5,0.5S17.8,22.2,17.5,22.2z"/>
		<path class="st1" d="M23.1,16.7c-0.3,0-0.5-0.2-0.5-0.5v-1.9c0-0.3,0.2-0.5,0.5-0.5s0.5,0.2,0.5,0.5v1.9
			C23.5,16.5,23.3,16.7,23.1,16.7z"/>
	</g>
</g>
</svg>
