<?xml version="1.0" encoding="utf-8"?>
<!-- Generator: Adobe Illustrator 21.1.0, SVG Export Plug-In . SVG Version: 6.00 Build 0)  -->
<svg version="1.1" id="Слой_1" xmlns="http://www.w3.org/2000/svg"  x="0px" y="0px"
	 viewBox="0 0 9.6 19.9" style="enable-background:new 0 0 9.6 19.9;" xml:space="preserve">
<style type="text/css">
	.st0{fill:#A9C833;}
</style>
<path class="st0" d="M4.9,5C3.6,5,2.4,3.9,2.4,2.5C2.4,1.1,3.6,0,4.9,0c1.4,0,2.5,1.1,2.5,2.5C7.4,3.9,6.3,5,4.9,5 M4.9,1
	C4.1,1,3.4,1.7,3.4,2.5C3.4,3.3,4.1,4,4.9,4c0.8,0,1.5-0.7,1.5-1.5C6.4,1.7,5.8,1,4.9,1"/>
<path class="st0" d="M8.5,19.9c-0.2,0-0.4-0.2-0.5-0.4l-0.8-4.2l-2.8-2.7c-0.1-0.1-0.2-0.2-0.2-0.4V7.4L3.4,7.1l-2.1,1L1,11.8
	c0,0.3-0.3,0.5-0.5,0.4C0.2,12.3,0,12,0,11.7l0.4-4c0-0.2,0.1-0.3,0.3-0.4l2.5-1.2c0.1-0.1,0.2-0.1,0.4,0l1.3,0.4
	C5.1,6.6,5.2,6.8,5.2,7v5L8,14.6c0.1,0.1,0.1,0.2,0.1,0.3L9,19.3C9,19.6,8.9,19.8,8.5,19.9C8.6,19.9,8.5,19.9,8.5,19.9"/>
<path class="st0" d="M0.5,19.6c-0.1,0-0.2,0-0.3-0.1c-0.2-0.1-0.3-0.4-0.2-0.7l3-5c0.1-0.2,0.5-0.3,0.7-0.2c0.2,0.1,0.3,0.4,0.2,0.7
	l-3,5C0.8,19.6,0.7,19.6,0.5,19.6"/>
<path class="st0" d="M9.1,10.2c-0.1,0-0.2,0-0.3-0.1L6.7,8.7C6.5,8.6,6.4,8.3,6.6,8c0.2-0.2,0.5-0.3,0.7-0.1l2.1,1.4
	C9.6,9.4,9.6,9.8,9.5,10C9.4,10.1,9.2,10.2,9.1,10.2"/>
</svg>
