<?xml version="1.0" encoding="utf-8"?>
<!-- Generator: Adobe Illustrator 21.1.0, SVG Export Plug-In . SVG Version: 6.00 Build 0)  -->
<svg version="1.1" id="Слой_1" xmlns="http://www.w3.org/2000/svg"  x="0px" y="0px"
	 viewBox="0 0 70 70" style="enable-background:new 0 0 70 70;" xml:space="preserve">
<style type="text/css">
	.st0{fill:#9FC41F;}
	.st1{fill:#FFFFFF;}
</style>
<path class="st0" d="M35,70C15.7,70,0,54.3,0,35C0,15.7,15.7,0,35,0c19.3,0,35,15.7,35,35C70,54.3,54.3,70,35,70"/>
<path class="st1" d="M22.2,46.1c-6.2,0-11.2-5-11.2-11.2c0-6.2,5-11.2,11.2-11.2c4.1,0,7.7,2.2,9.7,5.7h27.9c0.5,0,0.9,0.4,0.9,0.9
	v6.6c0,0.2-0.1,0.5-0.3,0.6l-2.3,2.3C58,39.9,57.8,40,57.5,40h-4.6c-0.2,0-0.5-0.1-0.6-0.3l-1.7-1.7l-1.7,1.7
	c-0.2,0.2-0.4,0.3-0.6,0.3h-5.6c-0.2,0-0.5-0.1-0.6-0.3l-1.7-1.7l-1.7,1.7c-0.2,0.2-0.4,0.3-0.6,0.3h-5.9
	C30.2,43.7,26.4,46.1,22.2,46.1 M22.2,25.5c-5.2,0-9.4,4.2-9.4,9.4c0,5.2,4.2,9.4,9.4,9.4c3.7,0,7.1-2.2,8.6-5.6
	c0.1-0.3,0.5-0.5,0.8-0.5h6.1l2.1-2.1c0.2-0.2,0.4-0.3,0.6-0.3c0.2,0,0.5,0.1,0.6,0.3l2.1,2.1h4.8l2.1-2.1c0.2-0.2,0.4-0.3,0.6-0.3
	c0.2,0,0.5,0.1,0.6,0.3l2.1,2.1h3.9l1.7-1.7v-2H31.6c-0.5,0-0.9-0.4-0.9-0.9s0.4-0.9,0.9-0.9h27.3v-1.5H31.4c-0.3,0-0.7-0.2-0.8-0.5
	C28.9,27.5,25.7,25.5,22.2,25.5 M18.7,38.2c-1.8,0-3.3-1.5-3.3-3.3c0-1.8,1.5-3.3,3.3-3.3c1.8,0,3.3,1.5,3.3,3.3
	C21.9,36.7,20.5,38.2,18.7,38.2 M18.7,33.5c-0.8,0-1.4,0.6-1.4,1.4c0,0.8,0.6,1.4,1.4,1.4c0.8,0,1.4-0.6,1.4-1.4
	C20.1,34.1,19.5,33.5,18.7,33.5"/>
</svg>
