<?xml version="1.0" encoding="utf-8"?>
<!-- Generator: Adobe Illustrator 21.1.0, SVG Export Plug-In . SVG Version: 6.00 Build 0)  -->
<svg version="1.1" id="Слой_1" xmlns="http://www.w3.org/2000/svg"  x="0px" y="0px"
	 viewBox="0 0 70 70" style="enable-background:new 0 0 70 70;" xml:space="preserve">
<style type="text/css">
	.st0{fill:#9FC41F;}
	.st1{fill:none;stroke:#FFFFFF;stroke-width:2.2;stroke-miterlimit:10;}
	.st2{fill:none;stroke:#FFFFFF;stroke-width:2.2;stroke-miterlimit:10;stroke-dasharray:8.495,8.495;}
	.st3{fill:none;stroke:#FFFFFF;stroke-width:2.2;stroke-miterlimit:10;stroke-dasharray:8.393,8.393;}
	.st4{fill:#A9C833;}
	.st5{fill:none;stroke:#FFFFFF;stroke-width:2.2;stroke-linecap:round;stroke-linejoin:round;stroke-miterlimit:10;}
</style>
<g>
	<path class="st0" d="M59.7,10.2c-13.6-13.6-35.9-13.6-49.5,0c-13.6,13.6-13.6,35.8,0,49.5c13.6,13.6,35.9,13.6,49.5,0
		C73.4,46.1,73.4,23.9,59.7,10.2"/>
</g>
<g>
	<polyline class="st1" points="34.8,42.9 34.8,36.9 40.8,36.9 	"/>
	<polyline class="st1" points="48.2,36.9 54.2,36.9 54.2,30.9 	"/>
	<polyline class="st1" points="54.2,23.7 54.2,17.7 48.2,17.7 	"/>
	<line class="st2" x1="39.7" y1="17.7" x2="27" y2="17.7"/>
	<polyline class="st1" points="22.7,17.7 16.7,17.7 16.7,23.7 	"/>
	<line class="st3" x1="16.7" y1="32.1" x2="16.7" y2="44.7"/>
	<polyline class="st1" points="16.7,48.8 16.7,54.8 22.7,54.8 	"/>
	<polyline class="st1" points="28.8,54.8 34.8,54.8 34.8,48.8 	"/>
	<path class="st4" d="M27.3,44.4c4.6,4.6,12,4.6,16.6,0c4.6-4.6,4.6-12,0-16.6c-4.6-4.6-12-4.6-16.6,0
		C22.7,32.4,22.7,39.9,27.3,44.4"/>
	<path class="st5" d="M27.3,44.4c4.6,4.6,12,4.6,16.6,0c4.6-4.6,4.6-12,0-16.6c-4.6-4.6-12-4.6-16.6,0
		C22.7,32.4,22.7,39.9,27.3,44.4z"/>
	<line class="st5" x1="31.9" y1="32.5" x2="39.2" y2="39.8"/>
	<line class="st5" x1="39.2" y1="32.5" x2="31.9" y2="39.8"/>
</g>
</svg>
