<?xml version="1.0" encoding="utf-8"?>
<!-- Generator: Adobe Illustrator 21.1.0, SVG Export Plug-In . SVG Version: 6.00 Build 0)  -->
<svg version="1.1" id="Слой_1" xmlns="http://www.w3.org/2000/svg"  x="0px" y="0px"
	 viewBox="0 0 25 25" style="enable-background:new 0 0 25 25;" xml:space="preserve">
<style type="text/css">
	.st0{fill:#2EB8FF;}
	.st1{fill:none;stroke:#FFFFFF;stroke-linecap:round;stroke-linejoin:round;stroke-miterlimit:10;}
	.st2{fill:#FFFFFF;}
</style>
<g>
	<path class="st0" d="M12.5,25C5.6,25,0,19.4,0,12.5C0,5.6,5.6,0,12.5,0C19.4,0,25,5.6,25,12.5S19.4,25,12.5,25z"/>
	<g>
		<g>
			<path class="st1" d="M19.7,7.6"/>
		</g>
		<path class="st2" d="M18.1,10.5h-13c-0.5,0-0.9-0.4-0.9-0.9V6.4c0-0.5,0.4-0.9,0.9-0.9h13c0.5,0,0.9,0.4,0.9,0.9v3.2
			C19,10.1,18.6,10.5,18.1,10.5z M5.2,9.5H18V6.5H5.2V9.5z"/>
		<path class="st2" d="M12.5,21.1h-1.8c-0.5,0-0.9-0.4-0.9-0.9v-5c0-0.5,0.4-0.9,0.9-0.9h1.8c0.5,0,0.9,0.4,0.9,0.9v5
			C13.4,20.7,13,21.1,12.5,21.1z M10.8,20.1h1.6v-4.8h-1.6V20.1z M12.5,15.3L12.5,15.3L12.5,15.3z"/>
	</g>
	<path class="st2" d="M11.7,15c-0.3,0-0.5-0.2-0.5-0.5v-1.4c0-0.3,0.2-0.5,0.4-0.5l8.5-1.2V7.6c0-0.3,0.2-0.5,0.5-0.5
		s0.5,0.2,0.5,0.5v4.3c0,0.3-0.2,0.5-0.4,0.5l-8.5,1.2v0.9C12.2,14.8,12,15,11.7,15z"/>
	<path class="st2" d="M6.7,10.4c-0.1,0-0.3,0-0.4-0.1c-0.2-0.2-0.2-0.5,0-0.7l3.6-3.6c0.2-0.2,0.5-0.2,0.7,0s0.2,0.5,0,0.7L7,10.2
		C7,10.3,6.8,10.4,6.7,10.4z"/>
</g>
</svg>
