<?xml version="1.0" encoding="utf-8"?>
<!-- Generator: Adobe Illustrator 21.1.0, SVG Export Plug-In . SVG Version: 6.00 Build 0)  -->
<svg version="1.1" id="Слой_1" xmlns="http://www.w3.org/2000/svg"  x="0px" y="0px"
	 viewBox="0 0 70 70" style="enable-background:new 0 0 70 70;" xml:space="preserve">
<style type="text/css">
	.st0{fill:#9FC41F;}
	.st1{fill:none;stroke:#FFFFFF;stroke-width:2.2;stroke-linecap:round;stroke-linejoin:round;stroke-miterlimit:10;}
</style>
<path class="st0" d="M35,70C15.7,70,0,54.3,0,35S15.7,0,35,0c19.3,0,35,15.7,35,35S54.3,70,35,70"/>
<polyline class="st1" points="37.9,26.8 37.9,54.8 25,54.8 25,26.8 "/>
<polygon class="st1" points="37.9,21.4 25,21.4 31.9,8.3 "/>
<line class="st1" x1="34.3" y1="11.7" x2="56.4" y2="21.4"/>
<line class="st1" x1="13.1" y1="21.4" x2="30.1" y2="11.5"/>
<rect x="12.5" y="21.6" class="st1" width="45" height="5"/>
<line class="st1" x1="37.7" y1="26.6" x2="25.5" y2="36"/>
<line class="st1" x1="37.7" y1="36" x2="25.5" y2="45.4"/>
<line class="st1" x1="37.7" y1="44.6" x2="25.5" y2="53.9"/>
<line class="st1" x1="25.8" y1="36" x2="37.4" y2="36"/>
<line class="st1" x1="25.8" y1="45.3" x2="37.4" y2="45.3"/>
<line class="st1" x1="50.3" y1="27.8" x2="50.3" y2="42.8"/>
<rect x="43.1" y="42.8" class="st1" width="15" height="7"/>
</svg>
