<?xml version="1.0" encoding="utf-8"?>
<!-- Generator: Adobe Illustrator 21.1.0, SVG Export Plug-In . SVG Version: 6.00 Build 0)  -->
<svg version="1.1" id="Слой_1" xmlns="http://www.w3.org/2000/svg"  x="0px" y="0px"
	 viewBox="0 0 28.3 28.3" style="enable-background:new 0 0 28.3 28.3;" xml:space="preserve">
<style type="text/css">
	.st0{fill:#FFFFFF;}
</style>
<path class="st0" d="M14.2,0C6.3,0,0,6.3,0,14.2s6.3,14.1,14.2,14.1c7.8,0,14.1-6.3,14.1-14.1S22,0,14.2,0 M14.2,27
	C7.1,27,1.3,21.2,1.3,14.2c0-7.1,5.8-12.9,12.9-12.9C21.2,1.3,27,7.1,27,14.2C27,21.2,21.2,27,14.2,27"/>
<path class="st0" d="M23.2,14h-8.9V5.2c0-0.4-0.3-0.7-0.6-0.7c-0.4,0-0.7,0.3-0.7,0.7v9.5c0,0.4,0.3,0.6,0.7,0.6h9.5
	c0.4,0,0.6-0.3,0.6-0.6C23.8,14.3,23.5,14,23.2,14"/>
</svg>
