<?xml version="1.0" encoding="utf-8"?>
<!-- Generator: Adobe Illustrator 21.1.0, SVG Export Plug-In . SVG Version: 6.00 Build 0)  -->
<svg version="1.1" id="Слой_1" xmlns="http://www.w3.org/2000/svg"  x="0px" y="0px"
	 viewBox="0 0 70 70" style="enable-background:new 0 0 70 70;" xml:space="preserve">
<style type="text/css">
	.st0{fill:#9FC41F;}
	.st1{fill:none;stroke:#FFFFFF;stroke-width:2.2;stroke-linecap:round;stroke-linejoin:round;stroke-miterlimit:10;}
</style>
<path class="st0" d="M35,0C15.7,0,0,15.7,0,35c0,19.3,15.7,35,35,35c19.3,0,35-15.7,35-35C70,15.7,54.3,0,35,0"/>
<rect x="18.2" y="55.2" class="st1" width="6.7" height="3.9"/>
<polyline class="st1" points="19.1,53.7 19.1,35.8 23.9,35.8 23.9,53.7 "/>
<path class="st1" d="M21.7,35V16.2c0-3.7,3-6.7,6.7-6.7c3.7,0,6.7,3,6.7,6.7"/>
<path class="st1" d="M41.6,23.1c0-0.1,0-0.2,0-0.3c0-3.5-2.8-6.3-6.3-6.3c-3.5,0-6.3,2.8-6.3,6.3c0,0.1,0,0.2,0,0.3H41.6z"/>
<path class="st1" d="M32.2,24c0,0.1,0,0.1,0,0.2c0,1.7,1.4,3.1,3.1,3.1c1.7,0,3.1-1.4,3.1-3.1c0-0.1,0-0.1,0-0.2"/>
<line class="st1" x1="30.6" y1="52.9" x2="53.6" y2="52.9"/>
<line class="st1" x1="30.6" y1="43.5" x2="53.6" y2="43.5"/>
<line class="st1" x1="30.6" y1="48.1" x2="53.6" y2="48.1"/>
<line class="st1" x1="33" y1="53.8" x2="33" y2="59"/>
<line class="st1" x1="50.6" y1="53.3" x2="50.6" y2="59"/>
</svg>
