<?xml version="1.0" encoding="utf-8"?>
<!-- Generator: Adobe Illustrator 21.1.0, SVG Export Plug-In . SVG Version: 6.00 Build 0)  -->
<svg version="1.1" id="Слой_1" xmlns="http://www.w3.org/2000/svg"  x="0px" y="0px"
	 viewBox="0 0 33 33" style="enable-background:new 0 0 33 33;" xml:space="preserve">
<style type="text/css">
	.st0{fill:#A9C833;}
	.st1{fill:#FFFFFF;}
</style>
<g>
	<g>
		<path class="st0" d="M16.5,31.5c-8.3,0-15-6.7-15-15s6.7-15,15-15c8.3,0,15,6.7,15,15S24.8,31.5,16.5,31.5z"/>
		<path class="st1" d="M16.5,1.5c8.3,0,15,6.7,15,15s-6.7,15-15,15c-8.3,0-15-6.7-15-15S8.2,1.5,16.5,1.5 M16.5,0
			C7.4,0,0,7.4,0,16.5C0,25.6,7.4,33,16.5,33S33,25.6,33,16.5C33,7.4,25.6,0,16.5,0L16.5,0z"/>
	</g>
	<g>
		<path class="st1" d="M27.7,16.3h-12c-0.2,0-0.4-0.2-0.4-0.4c0-0.2,0.2-0.4,0.4-0.4h12c0.2,0,0.4,0.2,0.4,0.4
			C28.1,16.1,27.9,16.3,27.7,16.3z"/>
		<path class="st1" d="M9.9,17.9c-0.9,0-1.5-0.7-1.5-1.5c0-0.9,0.7-1.5,1.5-1.5c0.9,0,1.5,0.7,1.5,1.5C11.4,17.2,10.8,17.9,9.9,17.9
			z M9.9,15.8c-0.3,0-0.6,0.3-0.6,0.6S9.6,17,9.9,17c0.3,0,0.6-0.3,0.6-0.6S10.2,15.8,9.9,15.8z"/>
		<path class="st1" d="M11.1,21.6c-2.9,0-5.3-2.4-5.3-5.3c0-2.9,2.4-5.3,5.3-5.3c2,0,3.9,1.1,4.7,2.9h11.8c0.3,0,0.5,0.2,0.5,0.5v2
			c0,0.1,0,0.2-0.1,0.3l-1.3,1.8c-0.1,0.1-0.2,0.2-0.4,0.2h-2.2c-0.1,0-0.3-0.1-0.4-0.2l-0.4-0.5l-0.6,0.6c-0.1,0.1-0.2,0.1-0.3,0.1
			H20c-0.1,0-0.2,0-0.3-0.1L19.1,18l-0.6,0.6c-0.1,0.1-0.2,0.1-0.3,0.1h-2.4C14.9,20.4,13.1,21.6,11.1,21.6z M11.1,11.9
			c-2.4,0-4.4,2-4.4,4.4s2,4.4,4.4,4.4c1.7,0,3.3-1,4-2.6c0.1-0.2,0.2-0.3,0.4-0.3H18l0.8-0.8c0.2-0.2,0.5-0.2,0.7,0l0.8,0.8h2.1
			l0.8-0.8c0.1-0.1,0.2-0.1,0.4-0.1c0.1,0,0.3,0.1,0.3,0.2l0.6,0.8h1.7l1-1.5v-1.4H15.5c-0.2,0-0.4-0.1-0.4-0.3
			C14.4,12.9,12.8,11.9,11.1,11.9z"/>
	</g>
</g>
</svg>
