<?xml version="1.0" encoding="utf-8"?>
<!-- Generator: Adobe Illustrator 21.1.0, SVG Export Plug-In . SVG Version: 6.00 Build 0)  -->
<svg version="1.1" id="Слой_1" xmlns="http://www.w3.org/2000/svg"  x="0px" y="0px"
	 viewBox="0 0 70 70" style="enable-background:new 0 0 70 70;" xml:space="preserve">
<style type="text/css">
	.st0{filter:url(#Adobe_OpacityMaskFilter);}
	.st1{fill:#FFFFFF;}
	.st2{mask:url(#mask-25_2_);fill:#A9C833;}
</style>
<g id="Icon" transform="translate(0.000000, 14.000000)">
	<g id="Group-3" transform="translate(0.000000, 1.211007)">
		<g id="Clip-2">
		</g>
		<defs>
			<filter id="Adobe_OpacityMaskFilter" filterUnits="userSpaceOnUse" x="0" y="-15.2" width="70" height="70">
				<feColorMatrix  type="matrix" values="1 0 0 0 0  0 1 0 0 0  0 0 1 0 0  0 0 0 1 0"/>
			</filter>
		</defs>
		<mask maskUnits="userSpaceOnUse" x="0" y="-15.2" width="70" height="70" id="mask-25_2_">
			<g class="st0">
				<polygon id="path-24_2_" class="st1" points="0,-15.2 70,-15.2 70,54.8 0,54.8 				"/>
			</g>
		</mask>
		<path id="Fill-1_9_" class="st2" d="M35-15.2c-19.3,0-35,15.7-35,35c0,19.3,15.7,35,35,35s35-15.7,35-35C70,0.5,54.3-15.2,35-15.2
			"/>
	</g>
	<path id="Fill-4" class="st1" d="M15.1,34.9h13.7V2.5L15.1,6.6V34.9z M30,37.1H14c-0.6,0-1.1-0.5-1.1-1.1V5.8
		c0-0.5,0.3-0.9,0.8-1.1L29.6,0c0.3-0.1,0.7,0,1,0.2c0.3,0.2,0.4,0.5,0.4,0.9V36C31.1,36.6,30.6,37.1,30,37.1z"/>
	<path id="Fill-6_6_" class="st1" d="M31.1,34.9h5.7V6.4L31.1,3V34.9z M37.9,37.1H30c-0.6,0-1.1-0.5-1.1-1.1V1c0-0.4,0.2-0.8,0.6-1
		c0.3-0.2,0.8-0.2,1.1,0l7.9,4.8C38.8,5.1,39,5.4,39,5.8V36C39,36.6,38.5,37.1,37.9,37.1z"/>
	<path id="Fill-8_6_" class="st1" d="M42.9,37.1h-5.2c-0.6,0-1.1-0.5-1.1-1.1c0-0.6,0.5-1.1,1.1-1.1h4.1V11l-3.3,0.9
		c-0.6,0.2-1.2-0.2-1.4-0.8c-0.2-0.6,0.2-1.2,0.8-1.4l4.7-1.3c0.3-0.1,0.7,0,1,0.2C43.9,8.9,44,9.2,44,9.5V36
		C44,36.6,43.5,37.1,42.9,37.1"/>
	<path id="Fill-10_6_" class="st1" d="M44,34.9h3.8V13.8L44,11.5V34.9z M48.9,37.1h-6c-0.6,0-1.1-0.5-1.1-1.1V9.5
		c0-0.4,0.2-0.8,0.6-1c0.3-0.2,0.8-0.2,1.1,0l6,3.6c0.3,0.2,0.5,0.6,0.5,0.9V36C50,36.6,49.5,37.1,48.9,37.1z"/>
	<path id="Fill-12_6_" class="st1" d="M53.3,37.1H49c-0.6,0-1.1-0.5-1.1-1.1c0-0.6,0.5-1.1,1.1-1.1h3.2V18l-2.3,0.7
		c-0.6,0.2-1.2-0.2-1.4-0.7c-0.2-0.6,0.2-1.2,0.7-1.4l3.8-1.1c0.3-0.1,0.7,0,1,0.2c0.3,0.2,0.4,0.5,0.4,0.9V36
		C54.4,36.6,53.9,37.1,53.3,37.1"/>
	<path id="Fill-14_6_" class="st1" d="M54.4,34.9h2.2V19.8l-2.2-1.3V34.9z M57.7,37.1h-4.4c-0.6,0-1.1-0.5-1.1-1.1V16.5
		c0-0.4,0.2-0.8,0.6-1s0.8-0.2,1.1,0l4.4,2.7c0.3,0.2,0.5,0.6,0.5,0.9V36C58.8,36.6,58.3,37.1,57.7,37.1z"/>
</g>
</svg>
