<?xml version="1.0" encoding="utf-8"?>
<!-- Generator: Adobe Illustrator 21.1.0, SVG Export Plug-In . SVG Version: 6.00 Build 0)  -->
<svg version="1.1" id="Слой_1" xmlns="http://www.w3.org/2000/svg"  x="0px" y="0px"
	 viewBox="0 0 27.1 27" style="enable-background:new 0 0 27.1 27;" xml:space="preserve">
<style type="text/css">
	.st0{fill:#FFFFFF;}
</style>
<path class="st0" d="M19.3,27c-0.1,0-0.2,0-0.3,0c-1.6-0.1-3.2-0.5-5-1.5c-3.4-1.7-6.4-4-8.9-6.9c-2-2.4-3.4-4.7-4.3-7.2
	C0.4,10.4-0.1,8.9,0,7.3c0.1-1,0.5-1.9,1.2-2.5C1.6,4.3,2,4,2.4,3.6C2.6,3.3,2.9,3,3.2,2.8c1.1-1.1,2.6-1.1,3.6,0
	c0.4,0.3,0.7,0.7,1.1,1.1l0.5,0.5c0.3,0.3,0.5,0.5,0.8,0.8c0.3,0.3,0.5,0.5,0.8,0.8c1.1,1.1,1.1,2.6,0,3.7L9.7,9.9
	c-0.5,0.5-1.1,1.1-1.6,1.6c0.4,0.9,0.9,1.7,1.6,2.6c1.5,1.8,3.1,3.3,4.7,4.3c0.2,0.1,0.5,0.3,0.7,0.4c0.1,0.1,0.3,0.1,0.4,0.2
	c0.6-0.6,1.3-1.3,1.9-1.9c1.1-1.1,2.6-1.1,3.7,0l0,0c1.1,1,2.1,2.1,3.1,3.1c1.1,1.1,1.1,2.6,0,3.7c-0.2,0.2-0.4,0.4-0.6,0.6
	c-0.4,0.4-0.8,0.8-1.1,1.2C21.7,26.6,20.6,27,19.3,27 M5,3.2c-0.3,0-0.7,0.2-1,0.5C3.8,3.9,3.5,4.2,3.2,4.4C2.8,4.8,2.5,5.2,2.1,5.6
	c-0.5,0.5-0.8,1-0.8,1.8C1.2,8.4,1.4,9.6,1.9,11c0.9,2.4,2.2,4.6,4.1,6.9c2.4,2.8,5.2,5,8.4,6.6c1.7,0.8,3.1,1.3,4.6,1.3
	c1.1,0.1,1.9-0.2,2.5-0.9c0.4-0.4,0.8-0.8,1.2-1.2c0.2-0.2,0.4-0.4,0.6-0.6c0.6-0.7,0.6-1.3,0-2c-1-1-2.1-2.1-3.1-3.1
	c-0.6-0.6-1.3-0.6-1.9,0c-0.7,0.6-1.3,1.3-1.9,1.9c-0.5,0.5-1,0.4-1.3,0.2c-0.2-0.1-0.3-0.2-0.5-0.2c-0.3-0.1-0.5-0.3-0.8-0.4
	c-1.8-1.1-3.4-2.6-5-4.6c-0.8-1-1.4-2-1.8-3c-0.2-0.4-0.1-0.8,0.2-1.2C7.7,10.1,8.2,9.6,8.8,9l0.3-0.3c0.7-0.7,0.7-1.3,0-2
	C8.8,6.5,8.6,6.3,8.3,6C8,5.7,7.8,5.5,7.5,5.2L7,4.7C6.7,4.3,6.3,4,6,3.7C5.6,3.3,5.3,3.2,5,3.2"/>
<path class="st0" d="M22.8,15.7c-0.3,0-0.6-0.3-0.6-0.6c0-5.6-4.6-10.2-10.2-10.2c-0.3,0-0.6-0.3-0.6-0.6c0-0.3,0.3-0.6,0.6-0.6
	c6.3,0,11.4,5.1,11.4,11.4C23.5,15.4,23.2,15.7,22.8,15.7"/>
<path class="st0" d="M26.5,15.7c-0.3,0-0.6-0.3-0.6-0.6c0-7.6-6.2-13.8-13.8-13.8c-0.3,0-0.6-0.3-0.6-0.6C11.4,0.3,11.7,0,12,0
	c8.3,0,15.1,6.8,15.1,15.1C27.1,15.4,26.8,15.7,26.5,15.7"/>
</svg>
