<?xml version="1.0" encoding="utf-8"?>
<!-- Generator: Adobe Illustrator 21.1.0, SVG Export Plug-In . SVG Version: 6.00 Build 0)  -->
<svg version="1.1" id="Слой_1" xmlns="http://www.w3.org/2000/svg"  x="0px" y="0px"
	 viewBox="0 0 30 30" style="enable-background:new 0 0 30 30;" xml:space="preserve">
<style type="text/css">
	.st0{fill:#A9C833;}
	.st1{fill:#FFFFFF;}
</style>
<g>
	<path class="st0" d="M15,0C6.7,0,0,6.7,0,15s6.7,15,15,15c8.3,0,15-6.7,15-15S23.3,0,15,0z"/>
	<g>
		<path class="st1" d="M15.6,8.5c-1.4,0-2.6-1.2-2.6-2.6s1.2-2.6,2.6-2.6s2.6,1.2,2.6,2.6S17.1,8.5,15.6,8.5z M15.6,4.3
			C14.7,4.3,14,5,14,5.9c0,0.9,0.7,1.7,1.7,1.7c0.9,0,1.7-0.7,1.7-1.7C17.3,5,16.6,4.3,15.6,4.3z"/>
		<path class="st1" d="M19.9,25.9c-0.6,0-1.1-0.4-1.3-1l-1.3-4.5L14.7,18c-0.4-0.4-0.7-1-0.7-1.6v-3.9L12.7,13l-0.4,3.5
			c-0.1,0.7-0.7,1.3-1.5,1.2c-0.7-0.1-1.3-0.8-1.2-1.5l0.4-3.8c0.1-0.8,0.6-1.5,1.4-1.8l2.2-0.9c0.6-0.2,1.3-0.2,1.9,0.1
			c0.8,0.4,1.3,1.2,1.3,2v4.4l2.5,2.4c0.3,0.3,0.5,0.7,0.6,1.1l1.3,4.5c0.2,0.7-0.2,1.5-0.9,1.7C20.2,25.9,20.1,25.9,19.9,25.9z
			 M14.5,11.3c0,0,0.1,0,0.1,0c0.2,0.1,0.3,0.2,0.3,0.4v4.6c0,0.4,0.1,0.7,0.4,1l2.6,2.5c0.1,0.1,0.1,0.1,0.1,0.2l1.4,4.6
			c0.1,0.2,0.3,0.4,0.6,0.3c0.1,0,0.2-0.1,0.3-0.2c0.1-0.1,0.1-0.2,0-0.3L19,19.9c0,0,0,0,0,0c-0.1-0.3-0.2-0.5-0.4-0.7L16,16.7
			c-0.1-0.1-0.1-0.2-0.1-0.3v-4.6c0-0.5-0.3-1-0.8-1.2c-0.4-0.2-0.8-0.2-1.1,0l-2.2,0.9c-0.5,0.2-0.8,0.6-0.8,1.1l-0.4,3.8
			c0,0.2,0.2,0.5,0.4,0.5c0.3,0,0.5-0.2,0.5-0.4l0.4-3.7c0-0.2,0.1-0.3,0.3-0.4l2.2-0.9C14.3,11.3,14.4,11.3,14.5,11.3z"/>
		<path class="st1" d="M11.1,25.9c-0.2,0-0.4-0.1-0.6-0.2c-0.7-0.3-0.9-1.2-0.6-1.8l2.3-4.6c0.3-0.7,1.2-0.9,1.8-0.6c0,0,0,0,0,0
			c0.7,0.3,0.9,1.2,0.6,1.8l-2.3,4.6C12.1,25.6,11.6,25.9,11.1,25.9z M13.5,19.5c-0.2,0-0.3,0.1-0.4,0.2l-2.3,4.6
			c-0.1,0.1-0.1,0.2,0,0.3c0,0.1,0.1,0.2,0.2,0.3c0.2,0.1,0.5,0,0.6-0.2l2.3-4.6c0.1-0.2,0-0.5-0.2-0.6
			C13.6,19.5,13.5,19.5,13.5,19.5z"/>
		<path class="st1" d="M20.6,15.9c-0.3,0-0.6-0.1-0.8-0.3l-1.8-1.3c-0.3-0.2-0.5-0.5-0.5-0.9s0-0.7,0.3-1c0.2-0.3,0.5-0.5,0.9-0.5
			c0.4-0.1,0.7,0,1,0.3l1.8,1.3c0.3,0.2,0.5,0.5,0.5,0.9c0.1,0.4,0,0.7-0.3,1C21.5,15.7,21.1,15.9,20.6,15.9z M18.9,12.8
			C18.9,12.8,18.8,12.8,18.9,12.8c-0.2,0-0.3,0.1-0.4,0.2c-0.1,0.2-0.1,0.5,0.1,0.6l1.8,1.3c0.2,0.1,0.5,0.1,0.6-0.1
			c0.1-0.1,0.1-0.2,0.1-0.3c0-0.1-0.1-0.2-0.2-0.3c0,0,0,0,0,0l-1.8-1.3C19.1,12.8,19,12.8,18.9,12.8z"/>
	</g>
</g>
</svg>
