<?xml version="1.0" encoding="utf-8"?>
<!-- Generator: Adobe Illustrator 21.1.0, SVG Export Plug-In . SVG Version: 6.00 Build 0)  -->
<svg version="1.1" id="Слой_1" xmlns="http://www.w3.org/2000/svg"  x="0px" y="0px"
	 viewBox="0 0 70 70" style="enable-background:new 0 0 70 70;" xml:space="preserve">
<style type="text/css">
	.st0{fill:#9FC41F;}
	.st1{fill:none;stroke:#FFFFFF;stroke-width:2.2;stroke-linecap:round;stroke-miterlimit:10;}
</style>
<path class="st0" d="M35,0C15.7,0,0,15.7,0,35s15.7,35,35,35c19.3,0,35-15.7,35-35S54.3,0,35,0"/>
<path class="st1" d="M52.7,15.4c-0.5-1.5-2-2.5-3.5-2.5H21.9c-1.8,0-3,1-3.5,2.5l-5.2,14.9v19.9c0,1.5,1,2.5,2.5,2.5h2.5
	c1.5,0,2.5-1,2.5-2.5v-2.5h29.8v2.5c0,1.5,1,2.5,2.5,2.5h2.5c1.5,0,2.5-1,2.5-2.5V30.3L52.7,15.4z M21.9,40.2c-2,0-3.7-1.8-3.7-3.7
	c0-2,1.7-3.7,3.7-3.7c2,0,3.7,1.8,3.7,3.7C25.6,38.5,23.9,40.2,21.9,40.2z M49.2,40.2c-2,0-3.7-1.8-3.7-3.7c0-2,1.8-3.7,3.7-3.7
	c2,0,3.7,1.8,3.7,3.7C53,38.5,51.2,40.2,49.2,40.2z M19.1,27.8l3.7-10.2h25.4L52,27.8H19.1z"/>
</svg>
