<?xml version="1.0" encoding="utf-8"?>
<!-- Generator: Adobe Illustrator 21.1.0, SVG Export Plug-In . SVG Version: 6.00 Build 0)  -->
<svg version="1.1" id="Слой_1" xmlns="http://www.w3.org/2000/svg"  x="0px" y="0px"
	 viewBox="0 0 44.6 44.6" style="enable-background:new 0 0 44.6 44.6;" xml:space="preserve">
<style type="text/css">
	.st0{fill:#FFFFFF;}
	.st1{fill:#B8B8B8;}
</style>
<path class="st0" d="M44.6,22.3c0,12.3-10,22.3-22.3,22.3C10,44.6,0,34.6,0,22.3C0,10,10,0,22.3,0C34.6,0,44.6,10,44.6,22.3"/>
<path class="st1" d="M19,20.6l9.2,9.2c0.4,0.4,0.4,1,0,1.4l-1.1,1.1c-0.4,0.4-1,0.4-1.4,0l-9.2-9.2c-0.4-0.4-0.4-1,0-1.4l1.1-1.1
	C17.9,20.2,18.6,20.2,19,20.6"/>
<path class="st1" d="M16.4,21.5l9.2-9.2c0.4-0.4,1.1-0.4,1.5,0l1.1,1.1c0.4,0.4,0.4,1,0,1.4L19,24c-0.4,0.4-1.1,0.4-1.5,0l-1.1-1.1
	C16,22.5,16,21.9,16.4,21.5"/>
</svg>
