<?xml version="1.0" encoding="utf-8"?>
<!-- Generator: Adobe Illustrator 21.1.0, SVG Export Plug-In . SVG Version: 6.00 Build 0)  -->
<svg version="1.1" id="Слой_1" xmlns="http://www.w3.org/2000/svg"  x="0px" y="0px"
	 viewBox="0 0 70 70" style="enable-background:new 0 0 70 70;" xml:space="preserve">
<style type="text/css">
	.st0{fill:#9FC41F;}
	.st1{fill:none;stroke:#FFFFFF;stroke-width:2.2;stroke-linecap:round;stroke-linejoin:round;stroke-miterlimit:10;}
	.st2{fill:#FFFFFF;}
</style>
<path class="st0" d="M35,0C15.7,0,0,15.7,0,35c0,19.3,15.7,35,35,35c19.3,0,35-15.7,35-35C70,15.7,54.3,0,35,0"/>
<path class="st1" d="M16.6,50.2L18,38.8l-6.2-2.9c3.5-1.3,8.2-5.5,8.3-8.6l16-0.1c4.5-8,10.9-12.2,20-12.1v20.8H50
	c0.2-3.6-3.3-5-5.8-2.6l5.3,17.1"/>
<polyline class="st1" points="23.2,52.4 28.5,42.9 37.9,43.2 41.3,52.1 "/>
<path class="st2" d="M52.4,23.3c0,1-0.8,1.7-1.9,1.7c-1,0-1.9-0.8-1.9-1.7c0-1,0.8-1.7,1.9-1.7C51.6,21.6,52.4,22.4,52.4,23.3"/>
<path class="st1" d="M56.6,50.7L55,47.6c-5.6,4.1-13.1,6.6-21.3,6.6c-8.1,0-15.5-2.4-21.1-6.5l-2,2.7"/>
</svg>
