<?xml version="1.0" encoding="utf-8"?>
<!-- Generator: Adobe Illustrator 21.1.0, SVG Export Plug-In . SVG Version: 6.00 Build 0)  -->
<svg version="1.1" id="Слой_1" xmlns="http://www.w3.org/2000/svg"  x="0px" y="0px"
	 viewBox="0 0 70 70" style="enable-background:new 0 0 70 70;" xml:space="preserve">
<style type="text/css">
	.st0{fill:#9FC41F;}
	.st1{fill:none;stroke:#FFFFFF;stroke-width:2.2;stroke-linecap:round;stroke-linejoin:round;stroke-miterlimit:10;}
</style>
<path class="st0" d="M35,0C15.7,0,0,15.7,0,35c0,19.3,15.7,35,35,35c19.3,0,35-15.7,35-35C70,15.7,54.3,0,35,0"/>
<rect x="37" y="16.4" class="st1" width="18.6" height="13.9"/>
<polygon class="st1" points="46.5,52.3 55.6,30.4 37,30.4 "/>
<line class="st1" x1="50.4" y1="40.8" x2="42.3" y2="40.8"/>
<line class="st1" x1="50.3" y1="30.4" x2="50.3" y2="16.4"/>
<line class="st1" x1="42.1" y1="30" x2="42.1" y2="16.4"/>
<path class="st1" d="M46.2,52.8H20.7c-2.5,0-4.5-2.1-4.5-4.8v-0.8c0-2.6,2-4.8,4.5-4.8h4.8c2.5,0,4.5-2.1,4.5-4.8v-0.3
	c0-2.6-2-4.8-4.5-4.8H11.9"/>
<ellipse transform="matrix(0.7071 -0.7071 0.7071 0.7071 -18.3169 20.3679)" class="st1" cx="15.4" cy="32.3" rx="3.9" ry="3.9"/>
</svg>
