<?xml version="1.0" encoding="utf-8"?>
<!-- Generator: Adobe Illustrator 21.1.0, SVG Export Plug-In . SVG Version: 6.00 Build 0)  -->
<svg version="1.1" id="Слой_1" xmlns="http://www.w3.org/2000/svg"  x="0px" y="0px"
	 viewBox="0 0 70 70" style="enable-background:new 0 0 70 70;" xml:space="preserve">
<style type="text/css">
	.st0{fill:#9FC41F;}
	.st1{fill:none;stroke:#FFFFFF;stroke-width:2.2;stroke-linecap:round;stroke-linejoin:round;stroke-miterlimit:10;}
</style>
<path class="st0" d="M35,70C15.7,70,0,54.3,0,35C0,15.7,15.7,0,35,0c19.3,0,35,15.7,35,35C70,54.3,54.3,70,35,70"/>
<polygon class="st1" points="52.4,36.7 24.9,36.7 24.9,14.7 52.4,14.7 44.6,25.3 "/>
<line class="st1" x1="24.9" y1="14.7" x2="24.9" y2="51.7"/>
<path class="st1" d="M30.6,50.2c0,1.5-2.5,2.7-5.7,2.7c-3.1,0-5.7-1.2-5.7-2.7c0-0.9,1-1.8,2.6-2.2c0.9-0.3,2-0.4,3.1-0.4
	C28.1,47.5,30.6,48.7,30.6,50.2z"/>
</svg>
