<?xml version="1.0" encoding="utf-8"?>
<!-- Generator: Adobe Illustrator 21.1.0, SVG Export Plug-In . SVG Version: 6.00 Build 0)  -->
<svg version="1.1" id="Слой_1" xmlns="http://www.w3.org/2000/svg"  x="0px" y="0px"
	 viewBox="0 0 31 31" style="enable-background:new 0 0 31 31;" xml:space="preserve">
<style type="text/css">
	.st0{fill:#FFFFFF;stroke:#9FC41F;stroke-miterlimit:10;}
	.st1{fill:#A9C833;}
</style>
<g>
	<path class="st0" d="M0.5,15.5c0,8.3,6.7,15,15,15c8.3,0,15-6.7,15-15c0-8.3-6.7-15-15-15C7.2,0.5,0.5,7.2,0.5,15.5z"/>
	<path class="st1" d="M13.5,23.4c-0.3,0-0.5-0.2-0.5-0.5l0-5.7l-2.6,0c-0.3,0-0.5-0.2-0.5-0.5c0-0.3,0.2-0.5,0.5-0.5l2.6,0l0-8.3
		c0-0.3,0.2-0.5,0.5-0.5l3.5,0c2.7,0,4.9,2.2,4.9,4.9s-2.2,4.9-4.9,4.9l-3,0l0,5.7C14,23.2,13.8,23.4,13.5,23.4z M14,16.3l3,0
		c2.2,0,3.9-1.8,3.9-3.9c0-2.2-1.8-3.9-3.9-3.9l-3,0L14,16.3z"/>
	<path class="st1" d="M17,20.7l-6.5,0c-0.3,0-0.5-0.2-0.5-0.5c0-0.3,0.2-0.5,0.5-0.5l6.5,0c0.3,0,0.5,0.2,0.5,0.5
		C17.5,20.5,17.3,20.7,17,20.7z"/>
</g>
</svg>
