<?xml version="1.0" encoding="utf-8"?>
<!-- Generator: Adobe Illustrator 21.1.0, SVG Export Plug-In . SVG Version: 6.00 Build 0)  -->
<svg version="1.1" id="Слой_1" xmlns="http://www.w3.org/2000/svg"  x="0px" y="0px"
	 viewBox="0 0 30 30" style="enable-background:new 0 0 30 30;" xml:space="preserve">
<style type="text/css">
	.st0{fill:#A9C833;}
	.st1{fill:#FFFFFF;}
</style>
<path class="st0" d="M15,0C6.7,0,0,6.7,0,15c0,8.3,6.7,15,15,15c8.3,0,15-6.7,15-15C30,6.7,23.3,0,15,0"/>
<path class="st1" d="M22.5,22.7h-15c-0.3,0-0.5-0.2-0.5-0.5v-15C7,7,7.2,6.7,7.5,6.7h15C22.8,6.7,23,7,23,7.2v15
	C23,22.5,22.8,22.7,22.5,22.7 M8,21.7H22V7.7H8V21.7z"/>
<path class="st1" d="M12,19.5c-0.3,0-0.5-0.2-0.5-0.5v-8c0-0.3,0.2-0.5,0.5-0.5c0.3,0,0.5,0.2,0.5,0.5v8
	C12.5,19.3,12.3,19.5,12,19.5"/>
<path class="st1" d="M15.5,16.5H12c-0.3,0-0.5-0.2-0.5-0.5c0-0.3,0.2-0.5,0.5-0.5h3.5c1.1,0,2-0.9,2-2c0-1.1-0.9-2-2-2H12
	c-0.3,0-0.5-0.2-0.5-0.5c0-0.3,0.2-0.5,0.5-0.5h3.5c1.6,0,3,1.3,3,3C18.5,15.2,17.1,16.5,15.5,16.5"/>
</svg>
