<?xml version="1.0" encoding="utf-8"?>
<!-- Generator: Adobe Illustrator 21.1.0, SVG Export Plug-In . SVG Version: 6.00 Build 0)  -->
<svg version="1.1" id="Слой_1" xmlns="http://www.w3.org/2000/svg"  x="0px" y="0px"
	 viewBox="0 0 70 70" style="enable-background:new 0 0 70 70;" xml:space="preserve">
<style type="text/css">
	.st0{fill:#9FC41F;}
	.st1{fill:#FFFFFF;}
</style>
<path class="st0" d="M35,70C15.7,70,0,54.3,0,35C0,15.7,15.7,0,35,0c19.3,0,35,15.7,35,35C70,54.3,54.3,70,35,70"/>
<path class="st1" d="M30,14l-5.5,5.5c-1,1-1.2,2.4-0.7,3.6l0,0.1l8.6,14.3l-4,4l-2-2L16.2,49.6l5.7,5.7l10.2-10.2l-2-2l5.3-5.3
	l-9.5-15.7c-0.1-0.4,0-0.7,0.2-1l3.9-3.9l2.2,2.2l-2,2c-1,1-1,2.6,0,3.5l12.2,12.2l-4.6,4.6c-1.2,1.2-1.2,3.1,0,4.3
	c1.2,1.2,3.1,1.2,4.3,0l0.4-0.4c0.1-0.1,0.3-0.1,0.4,0c0.1,0.1,0.1,0.3,0,0.4L41,48.1c-1.2,1.2-1.2,3.2,0,4.4c1.2,1.2,3.2,1.2,4.4,0
	l6.5-6.5c0.7,0.1,1.5-0.1,2.1-0.7l4.7-4.7c1-1,1-2.6,0-3.5L38.5,16.7c-1-1-2.6-1-3.5,0l-1.1,1.1L30,14z M44,38.8l5.9,5.9l-6.2,6.2
	c-0.3,0.3-0.8,0.3-1.1,0c-0.3-0.3-0.3-0.8,0-1.1l1.9-1.9c1-1,1-2.6,0-3.6c-1-1-2.6-1-3.6,0l-0.4,0.4c-0.3,0.3-0.8,0.3-1.1,0
	c-0.3-0.3-0.3-0.8,0-1.1L44,38.8z M36.5,18.3c0.1-0.1,0.2-0.1,0.3,0l20.2,20.2c0.1,0.1,0.1,0.2,0,0.3l-4.7,4.7
	c-0.1,0.1-0.2,0.1-0.3,0L31.8,23.3c-0.1-0.1-0.1-0.2,0-0.3L36.5,18.3z M19.4,49.6l1.6-1.6l2.5,2.5l-1.6,1.6L19.4,49.6z M26.4,42.7
	l2.5,2.5l-3.7,3.7l-2.5-2.5L26.4,42.7z"/>
</svg>
