<?xml version="1.0" encoding="utf-8"?>
<!-- Generator: Adobe Illustrator 21.1.0, SVG Export Plug-In . SVG Version: 6.00 Build 0)  -->
<svg version="1.1" id="Слой_1" xmlns="http://www.w3.org/2000/svg"  x="0px" y="0px"
	 viewBox="0 0 70 71.1" style="enable-background:new 0 0 70 71.1;" xml:space="preserve">
<style type="text/css">
	.st0{fill:none;stroke:#FFFFFF;stroke-width:2.2;stroke-linecap:round;stroke-linejoin:round;stroke-miterlimit:10;}
	.st1{fill:#9FC41F;}
</style>
<line class="st0" x1="39.8" y1="1.1" x2="39.8" y2="13.3"/>
<path class="st1" d="M35,1.1c-19.3,0-35,15.7-35,35c0,19.3,15.7,35,35,35c19.3,0,35-15.7,35-35C70,16.8,54.3,1.1,35,1.1"/>
<path class="st1" d="M49.3,33v8.2c0,2.9-6.2,6.2-14.5,6.2c-8.3,0-14.5-3.3-14.5-6.2V33"/>
<path class="st0" d="M49.3,33v8.2c0,2.9-6.2,6.2-14.5,6.2c-8.3,0-14.5-3.3-14.5-6.2V33"/>
<circle class="st0" cx="55.8" cy="43.6" r="3.2"/>
<polyline class="st0" points="53.1,52.9 55.9,46.8 58.5,52.7 "/>
<polygon class="st1" points="34.8,37.5 10.6,27.8 34.8,18.1 59.1,27.8 "/>
<polygon class="st0" points="34.8,37.5 10.6,27.8 34.8,18.1 59.1,27.8 "/>
</svg>
