<?xml version="1.0" encoding="utf-8"?>
<!-- Generator: Adobe Illustrator 21.1.0, SVG Export Plug-In . SVG Version: 6.00 Build 0)  -->
<svg version="1.1" id="Слой_1" xmlns="http://www.w3.org/2000/svg"  x="0px" y="0px"
	 viewBox="0 0 30 30" style="enable-background:new 0 0 30 30;" xml:space="preserve">
<style type="text/css">
	.st0{fill:#A9C833;}
	.st1{fill:#FFFFFF;}
</style>
<path class="st0" d="M15,30C6.7,30,0,23.3,0,15C0,6.7,6.7,0,15,0c8.3,0,15,6.7,15,15C30,23.3,23.3,30,15,30"/>
<path class="st1" d="M8,15.4c-2.5,0-4.5-2-4.5-4.5c0-2.5,2-4.5,4.5-4.5c2.5,0,4.5,2,4.5,4.5C12.5,13.4,10.5,15.4,8,15.4 M8,7.3
	c-2,0-3.6,1.6-3.6,3.6c0,2,1.6,3.6,3.6,3.6c2,0,3.6-1.6,3.6-3.6C11.6,8.9,10,7.3,8,7.3"/>
<path class="st1" d="M8,13.3c-1.3,0-2.4-1.1-2.4-2.4c0-1.3,1.1-2.4,2.4-2.4c1.3,0,2.4,1.1,2.4,2.4C10.4,12.2,9.3,13.3,8,13.3 M8,9.4
	c-0.8,0-1.5,0.7-1.5,1.5c0,0.8,0.7,1.5,1.5,1.5c0.8,0,1.5-0.7,1.5-1.5C9.5,10.1,8.8,9.4,8,9.4"/>
<path class="st1" d="M21.9,23.6c-2.5,0-4.5-2-4.5-4.5c0-2.5,2-4.5,4.5-4.5c2.5,0,4.5,2,4.5,4.5C26.5,21.5,24.4,23.6,21.9,23.6
	 M21.9,15.4c-2,0-3.6,1.6-3.6,3.6c0,2,1.6,3.6,3.6,3.6c2,0,3.6-1.6,3.6-3.6C25.5,17,23.9,15.4,21.9,15.4"/>
<path class="st1" d="M21.9,21.4c-1.3,0-2.4-1.1-2.4-2.4s1.1-2.4,2.4-2.4c1.3,0,2.4,1.1,2.4,2.4S23.3,21.4,21.9,21.4 M21.9,17.6
	c-0.8,0-1.5,0.7-1.5,1.5c0,0.8,0.7,1.5,1.5,1.5c0.8,0,1.5-0.7,1.5-1.5C23.4,18.2,22.7,17.6,21.9,17.6"/>
<path class="st1" d="M11,23.6c-0.3,0-0.6-0.1-0.9-0.2c-0.8-0.5-1.1-1.6-0.6-2.4l7.9-13.7c0.5-0.8,1.6-1.1,2.4-0.6
	C20.7,7,21,8.1,20.5,8.9l-7.9,13.7c-0.2,0.4-0.6,0.7-1.1,0.8C11.3,23.5,11.2,23.6,11,23.6 M19,7.3c-0.3,0-0.6,0.1-0.7,0.4l-7.9,13.7
	c-0.1,0.2-0.1,0.4-0.1,0.6c0.1,0.2,0.2,0.4,0.4,0.5c0.2,0.1,0.4,0.1,0.6,0.1c0.2-0.1,0.4-0.2,0.5-0.4l7.9-13.7
	c0.2-0.4,0.1-0.9-0.3-1.1C19.2,7.3,19.1,7.3,19,7.3"/>
</svg>
