<?xml version="1.0" encoding="utf-8"?>
<!-- Generator: Adobe Illustrator 21.1.0, SVG Export Plug-In . SVG Version: 6.00 Build 0)  -->
<svg version="1.1" id="Слой_1" xmlns="http://www.w3.org/2000/svg"  x="0px" y="0px"
	 viewBox="0 0 70 70" style="enable-background:new 0 0 70 70;" xml:space="preserve">
<style type="text/css">
	.st0{fill:#9FC41F;}
	.st1{fill:none;stroke:#FFFFFF;stroke-width:2.2;stroke-linecap:round;stroke-linejoin:round;stroke-miterlimit:10;}
</style>
<g>
	<g>
		<path class="st0" d="M35,0C15.7,0,0,15.7,0,35c0,19.3,15.7,35,35,35c19.3,0,35-15.7,35-35C70,15.7,54.3,0,35,0"/>
		<polygon class="st0" points="35,16 40.9,27.8 54,29.7 44.5,39 46.7,52 35,45.9 23.3,52 25.5,39 16,29.7 29.1,27.8 		"/>
	</g>
	<polygon class="st1" points="35,16 40.9,27.8 54,29.7 44.5,39 46.7,52 35,45.9 23.3,52 25.5,39 16,29.7 29.1,27.8 	"/>
</g>
</svg>
