<?xml version="1.0" encoding="utf-8"?>
<!-- Generator: Adobe Illustrator 21.1.0, SVG Export Plug-In . SVG Version: 6.00 Build 0)  -->
<svg version="1.1" id="Слой_1" xmlns="http://www.w3.org/2000/svg"  x="0px" y="0px"
	 viewBox="0 0 70 73.4" style="enable-background:new 0 0 70 73.4;" xml:space="preserve">
<style type="text/css">
	.st0{fill:#FFFFFF;}
	.st1{fill:none;stroke:#FFFFFF;stroke-width:2.2;stroke-linecap:round;stroke-linejoin:round;stroke-miterlimit:10;}
	.st2{fill:#9FC41F;}
</style>
<path class="st0" d="M50.8,15.5c0,1.5-1.2,2.7-2.7,2.7c-1.5,0-2.7-1.2-2.7-2.7c0-1.5,1.2-2.7,2.7-2.7C49.7,12.9,50.8,14.1,50.8,15.5
	"/>
<line class="st1" x1="48.3" y1="1.1" x2="51.3" y2="1.1"/>
<path class="st2" d="M35,73.4c-19.3,0-35-15.7-35-35c0-19.3,15.7-35,35-35c19.3,0,35,15.7,35,35C70,57.7,54.3,73.4,35,73.4"/>
<circle class="st1" cx="16" cy="46.6" r="3.9"/>
<circle class="st1" cx="37.8" cy="46.6" r="3.9"/>
<path class="st1" d="M37.8,50.9H16.3c-2.3,0-4.3-1.9-4.3-4.3c0-2.3,1.9-4.3,4.3-4.3h21.5c2.3,0,4.3,1.9,4.3,4.3
	C42,49,40.1,50.9,37.8,50.9z"/>
<polyline class="st1" points="15.4,42.6 15.4,22.6 28,22.6 32,32.1 32,41.6 "/>
<polyline class="st1" points="15.7,42.8 15.7,32.2 45.4,32.2 45.4,43.8 41.3,43.8 "/>
<polygon class="st1" points="57.7,50.8 52,50.8 52,33.5 55.7,33.5 "/>
<line class="st1" x1="51.3" y1="38.8" x2="45.7" y2="38.8"/>
<line class="st1" x1="45.1" y1="43.8" x2="51.3" y2="43.8"/>
</svg>
