<?xml version="1.0" encoding="utf-8"?>
<!-- Generator: Adobe Illustrator 21.1.0, SVG Export Plug-In . SVG Version: 6.00 Build 0)  -->
<svg version="1.1" id="Слой_1" xmlns="http://www.w3.org/2000/svg"  x="0px" y="0px"
	 viewBox="0 0 33 33" style="enable-background:new 0 0 33 33;" xml:space="preserve">
<style type="text/css">
	.st0{fill:#A9C833;}
	.st1{fill:#FFFFFF;}
</style>
<g>
	<g>
		<path class="st0" d="M16.5,1.5c-8.3,0-15,6.7-15,15s6.7,15,15,15c8.3,0,15-6.7,15-15S24.8,1.5,16.5,1.5z"/>
		<path class="st1" d="M16.5,1.5c8.3,0,15,6.7,15,15s-6.7,15-15,15c-8.3,0-15-6.7-15-15S8.2,1.5,16.5,1.5 M16.5,0
			C7.4,0,0,7.4,0,16.5C0,25.6,7.4,33,16.5,33S33,25.6,33,16.5C33,7.4,25.6,0,16.5,0L16.5,0z"/>
	</g>
	<path class="st1" d="M16.5,27.7c-2.6,0-5-0.8-7-2.4c-0.2-0.2-0.2-0.5-0.1-0.7c0.2-0.2,0.5-0.2,0.7-0.1c1.8,1.5,4,2.2,6.4,2.2
		c5.7,0,10.3-4.6,10.3-10.3c0-2.1-0.6-4-1.8-5.7c-0.1-0.2-0.1-0.5,0.1-0.7c0.2-0.1,0.5-0.1,0.7,0.1c1.3,1.9,1.9,4,1.9,6.3
		C27.7,22.7,22.7,27.7,16.5,27.7z"/>
	<path class="st1" d="M7.3,22.5c-0.2,0-0.3-0.1-0.4-0.2c-1-1.7-1.6-3.7-1.6-5.7c0-6.2,5-11.2,11.2-11.2c2.2,0,4.4,0.7,6.3,1.9
		C23,7.4,23,7.6,22.9,7.9c-0.1,0.2-0.4,0.3-0.7,0.1c-1.7-1.1-3.7-1.8-5.7-1.8c-5.7,0-10.3,4.6-10.3,10.3c0,1.9,0.5,3.7,1.5,5.3
		c0.1,0.2,0.1,0.5-0.2,0.6C7.5,22.5,7.4,22.5,7.3,22.5z"/>
	<g>
		<path class="st1" d="M21.1,22.1h-9.2c-0.3,0-0.5-0.2-0.5-0.5v-7.5c0-0.3,0.2-0.5,0.5-0.5s0.5,0.2,0.5,0.5v7h8.2v-7
			c0-0.3,0.2-0.5,0.5-0.5s0.5,0.2,0.5,0.5v7.5C21.5,21.9,21.3,22.1,21.1,22.1z"/>
		<path class="st1" d="M10.6,15.5c-0.1,0-0.3-0.1-0.4-0.2c-0.2-0.2-0.2-0.5,0-0.7l6-5.3c0.2-0.2,0.5-0.2,0.6,0l5.7,5.3
			c0.2,0.2,0.2,0.5,0,0.7c-0.2,0.2-0.5,0.2-0.7,0l-5.4-5l-5.7,5C10.9,15.4,10.7,15.5,10.6,15.5z"/>
		<path class="st1" d="M17.9,22.1h-2.7c-0.3,0-0.5-0.2-0.5-0.5V17c0-0.3,0.2-0.5,0.5-0.5h2.7c0.3,0,0.5,0.2,0.5,0.5v4.6
			C18.3,21.9,18.1,22.1,17.9,22.1z M15.6,21.1h1.8v-3.7h-1.8V21.1z"/>
	</g>
	<path class="st1" d="M20.4,9.1c-0.2,0-0.4-0.1-0.4-0.3c-0.1-0.2,0.1-0.5,0.3-0.6l2.1-0.7l-0.5-2.3C21.8,5,22,4.8,22.2,4.7
		c0.3-0.1,0.5,0.1,0.6,0.4l0.6,2.7C23.4,8,23.3,8.2,23,8.3l-2.5,0.8C20.5,9.1,20.4,9.1,20.4,9.1z"/>
	<path class="st1" d="M9.5,27.6C9.5,27.6,9.5,27.6,9.5,27.6c-0.3,0-0.5-0.2-0.5-0.5l0.1-2.7c0-0.2,0.2-0.4,0.4-0.4l2.7-0.1
		c0.3,0,0.5,0.2,0.5,0.4c0,0.3-0.2,0.5-0.4,0.5l-2.2,0.1L10,27.1C10,27.4,9.8,27.6,9.5,27.6z"/>
</g>
</svg>
