<?xml version="1.0" encoding="utf-8"?>
<!-- Generator: Adobe Illustrator 21.1.0, SVG Export Plug-In . SVG Version: 6.00 Build 0)  -->
<svg version="1.1" id="Слой_1" xmlns="http://www.w3.org/2000/svg"  x="0px" y="0px"
	 viewBox="0 0 30 30" style="enable-background:new 0 0 30 30;" xml:space="preserve">
<style type="text/css">
	.st0{fill:#A9C833;}
	.st1{fill:#FFFFFF;}
</style>
<path class="st0" d="M0,15C0,6.7,6.7,0,15,0s15,6.7,15,15c0,8.3-6.7,15-15,15S0,23.3,0,15"/>
<path class="st1" d="M23.4,23.3h-8.6c-0.3,0-0.5-0.2-0.5-0.5v-3.4c0-0.3,0.2-0.5,0.5-0.5c0.3,0,0.5,0.2,0.5,0.5v2.9h7.7V7.7h-8.2
	c-0.3,0-0.5-0.2-0.5-0.5c0-0.3,0.2-0.5,0.5-0.5h8.6c0.3,0,0.5,0.2,0.5,0.5v15.6C23.8,23.1,23.6,23.3,23.4,23.3"/>
<path class="st1" d="M15.3,23.3H6.6c-0.3,0-0.5-0.2-0.5-0.5V7.2c0-0.3,0.2-0.5,0.5-0.5h8.6c0.3,0,0.5,0.2,0.5,0.5
	c0,0.3-0.2,0.5-0.5,0.5H7.1v14.7h8.2c0.3,0,0.5,0.2,0.5,0.5S15.5,23.3,15.3,23.3"/>
<path class="st1" d="M23.3,15H19c-0.3,0-0.5-0.2-0.5-0.5c0-0.3,0.2-0.5,0.5-0.5h4.3c0.3,0,0.5,0.2,0.5,0.5
	C23.8,14.8,23.5,15,23.3,15"/>
</svg>
