<?xml version="1.0" encoding="utf-8"?>
<!-- Generator: Adobe Illustrator 21.1.0, SVG Export Plug-In . SVG Version: 6.00 Build 0)  -->
<svg version="1.1" id="Слой_1" xmlns="http://www.w3.org/2000/svg"  x="0px" y="0px"
	 viewBox="0 0 30 30" style="enable-background:new 0 0 30 30;" xml:space="preserve">
<style type="text/css">
	.st0{fill:#A9C833;}
	.st1{fill:#FFFFFF;}
</style>
<path class="st0" d="M15,0C6.7,0,0,6.7,0,15c0,8.3,6.7,15,15,15c8.3,0,15-6.7,15-15C30,6.7,23.3,0,15,0"/>
<path class="st1" d="M22.6,20.1H7.2c-1.1,0-2-0.9-2-2c0-1.1,0.9-2,2-2h15.4c1.1,0,2,0.9,2,2C24.6,19.2,23.7,20.1,22.6,20.1
	 M7.2,17.1c-0.6,0-1,0.5-1,1c0,0.6,0.5,1,1,1h15.4c0.6,0,1-0.5,1-1c0-0.6-0.5-1-1-1H7.2z"/>
<path class="st1" d="M22.9,17.2c-0.3,0-0.5-0.2-0.5-0.5v-1.1c0-3.2-2.2-6.2-5.3-7.1c-0.2-0.1-0.4-0.3-0.3-0.6
	c0.1-0.2,0.3-0.4,0.6-0.3c3.5,1.1,5.9,4.4,5.9,8v1.1C23.3,17,23.1,17.2,22.9,17.2"/>
<path class="st1" d="M7,17.2c-0.3,0-0.5-0.2-0.5-0.5v-1.1c0-3.7,2.5-7,6.1-8.1c0.3-0.1,0.5,0.1,0.6,0.3c0.1,0.3-0.1,0.5-0.3,0.6
	c-3.2,0.9-5.4,3.9-5.4,7.2v1.1C7.5,17,7.3,17.2,7,17.2"/>
<path class="st1" d="M17.1,12.8c-0.3,0-0.5-0.2-0.5-0.5V7.7c0-0.3-0.2-0.5-0.5-0.5h-2.3c-0.3,0-0.5,0.2-0.5,0.5v4.6
	c0,0.3-0.2,0.5-0.5,0.5c-0.3,0-0.5-0.2-0.5-0.5V7.7c0-0.8,0.7-1.4,1.5-1.4h2.3c0.8,0,1.5,0.6,1.5,1.4v4.6
	C17.5,12.6,17.3,12.8,17.1,12.8"/>
<path class="st1" d="M10.6,12c-0.3,0-0.5-0.2-0.5-0.5V9.4c0-0.3,0.2-0.5,0.5-0.5c0.3,0,0.5,0.2,0.5,0.5v2.1
	C11.1,11.8,10.9,12,10.6,12"/>
<path class="st1" d="M19.2,12c-0.3,0-0.5-0.2-0.5-0.5V9.4c0-0.3,0.2-0.5,0.5-0.5c0.3,0,0.5,0.2,0.5,0.5v2.1
	C19.7,11.8,19.5,12,19.2,12"/>
</svg>
