<?xml version="1.0" encoding="utf-8"?>
<!-- Generator: Adobe Illustrator 21.1.0, SVG Export Plug-In . SVG Version: 6.00 Build 0)  -->
<svg version="1.1" id="Слой_1" xmlns="http://www.w3.org/2000/svg"  x="0px" y="0px"
	 viewBox="0 0 33 33" style="enable-background:new 0 0 33 33;" xml:space="preserve">
<style type="text/css">
	.st0{fill:#A9C833;}
	.st1{fill:#FFFFFF;}
</style>
<g>
	<g>
		<g>
			<path class="st0" d="M27.1,27.1c-5.9,5.9-15.4,5.9-21.2,0S0,11.7,5.9,5.9C11.7,0,21.3,0,27.1,5.9S33,21.3,27.1,27.1z"/>
			<path class="st1" d="M16.5,1.5c3.8,0,7.7,1.5,10.6,4.4c5.9,5.9,5.9,15.4,0,21.2c-2.9,2.9-6.8,4.4-10.6,4.4
				c-3.8,0-7.7-1.5-10.6-4.4C0,21.3,0,11.7,5.9,5.9C8.8,3,12.7,1.5,16.5,1.5 M16.5,0L16.5,0C12.1,0,7.9,1.7,4.8,4.8
				C1.7,7.9,0,12.1,0,16.5c0,4.4,1.7,8.6,4.8,11.7c3.1,3.1,7.3,4.8,11.7,4.8c4.4,0,8.6-1.7,11.7-4.8c6.4-6.4,6.4-16.9,0-23.3
				C25.1,1.7,20.9,0,16.5,0L16.5,0z"/>
		</g>
	</g>
	<g>
		<path class="st1" d="M23.7,20.6c-0.1,0-0.2,0-0.3-0.1L14,11c-0.2-0.2-0.2-0.5,0-0.7l3-3c0.2-0.2,0.5-0.2,0.7,0l9.4,9.4
			c0.1,0.1,0.1,0.2,0.1,0.3c0,0.1,0,0.2-0.1,0.3l-3,3C24,20.5,23.8,20.6,23.7,20.6z M15,10.7l8.7,8.7l2.4-2.4l-8.7-8.7L15,10.7z"/>
		<path class="st1" d="M10.4,24.8c-0.1,0-0.2,0-0.3-0.1l-2.1-2.1c-0.1-0.1-0.1-0.2-0.1-0.3c0-0.1,0-0.2,0.1-0.3l4.2-4.2
			c0.2-0.2,0.5-0.2,0.7,0l2.1,2.1c0.2,0.2,0.2,0.5,0,0.7l-4.2,4.2C10.6,24.8,10.5,24.8,10.4,24.8z M8.9,22.2l1.5,1.5l3.6-3.6
			l-1.5-1.5L8.9,22.2z"/>
		<path class="st1" d="M11.9,23.3c-0.1,0-0.2,0-0.3-0.1L9.4,21c-0.2-0.2-0.2-0.5,0-0.7s0.5-0.2,0.7,0l2.1,2.1c0.2,0.2,0.2,0.5,0,0.7
			C12.1,23.2,12,23.3,11.9,23.3z"/>
		<path class="st1" d="M13.8,19.5c-0.1,0-0.2,0-0.3-0.1c-0.2-0.2-0.2-0.5,0-0.7l1.5-1.5L11.2,10c-0.1-0.2-0.1-0.4,0.1-0.6L13.7,7
			c0.2-0.2,0.5-0.2,0.7,0l1.8,1.8c0.2,0.2,0.2,0.5,0,0.7s-0.5,0.2-0.7,0L14,8l-1.8,1.8l3.8,7.3c0.1,0.2,0.1,0.4-0.1,0.6l-1.7,1.7
			C14.1,19.5,13.9,19.5,13.8,19.5z"/>
		<path class="st1" d="M18.3,20.8c-0.3,0-0.7-0.1-0.9-0.4c-0.5-0.5-0.5-1.4,0-1.9l2.4-2.4c0.2-0.2,0.5-0.2,0.7,0
			c0.2,0.2,0.2,0.5,0,0.7L18,19.2c-0.2,0.2-0.2,0.4,0,0.5c0.2,0.1,0.4,0.2,0.5,0l0.6-0.6c0.2-0.2,0.5-0.2,0.7,0s0.2,0.5,0,0.7
			l-0.6,0.6C18.9,20.7,18.6,20.8,18.3,20.8z"/>
		<path class="st1" d="M19.5,22.4c-0.1,0-0.2,0-0.3-0.1c-0.2-0.2-0.2-0.5,0-0.7l1.2-1.2c0.2-0.2,0.2-0.4,0-0.5
			c-0.2-0.2-0.4-0.2-0.5,0l-0.6,0.6c-0.2,0.2-0.5,0.2-0.7,0c-0.2-0.2-0.2-0.5,0-0.7l0.6-0.6c0.5-0.5,1.4-0.5,1.9,0
			c0.3,0.3,0.4,0.6,0.4,0.9S21.3,20.8,21,21l-1.2,1.2C19.7,22.3,19.6,22.4,19.5,22.4z"/>
		<path class="st1" d="M19.5,24.4c-0.4,0-0.7-0.1-0.9-0.4c-0.5-0.5-0.5-1.4,0-1.9l1.2-1.2c0.2-0.2,0.5-0.2,0.7,0s0.2,0.5,0,0.7
			l-1.2,1.2c-0.2,0.2-0.2,0.4,0,0.5c0.2,0.2,0.4,0.2,0.5,0l3.6-3.6c0.2-0.2,0.5-0.2,0.7,0s0.2,0.5,0,0.7l-3.6,3.6
			C20.2,24.3,19.8,24.4,19.5,24.4z"/>
	</g>
</g>
</svg>
