<?xml version="1.0" encoding="utf-8"?>
<!-- Generator: Adobe Illustrator 21.1.0, SVG Export Plug-In . SVG Version: 6.00 Build 0)  -->
<svg version="1.1" id="Слой_1" xmlns="http://www.w3.org/2000/svg"  x="0px" y="0px"
	 viewBox="0 0 70 70" style="enable-background:new 0 0 70 70;" xml:space="preserve">
<style type="text/css">
	.st0{fill:#9FC41F;}
	.st1{fill:none;stroke:#FFFFFF;stroke-width:2.2;stroke-linecap:round;stroke-linejoin:round;stroke-miterlimit:10;}
</style>
<path class="st0" d="M35,70C15.7,70,0,54.3,0,35C0,15.7,15.7,0,35,0c19.3,0,35,15.7,35,35C70,54.3,54.3,70,35,70"/>
<polygon class="st1" points="48.8,49.7 19.8,49.7 19.8,21.2 27.4,12.7 48.8,12.7 "/>
<polyline class="st1" points="28.1,12.7 28.1,21.2 19.8,21.2 "/>
<polygon class="st0" points="40.1,61.8 38.1,59.4 34.9,59.8 39.4,47.7 44.7,49.7 "/>
<polygon class="st1" points="40.1,61.8 38.1,59.4 34.9,59.8 39.4,47.7 44.7,49.7 "/>
<polygon class="st0" points="52,59.5 48.9,59.2 46.9,61.8 41.5,50 46.7,47.7 "/>
<polygon class="st1" points="52,59.5 48.9,59.2 46.9,61.8 41.5,50 46.7,47.7 "/>
<path class="st0" d="M52.1,44.9c0,5.3-4.3,9.6-9.6,9.6c-5.3,0-9.6-4.3-9.6-9.6c0-5.3,4.3-9.6,9.6-9.6C47.7,35.3,52.1,39.6,52.1,44.9
	"/>
<circle class="st1" cx="42.4" cy="44.9" r="9.6"/>
<line class="st1" x1="27.5" y1="26" x2="42.2" y2="26"/>
<line class="st1" x1="27.5" y1="31.1" x2="42.2" y2="31.1"/>
<polyline class="st0" points="38.7,44.5 41.7,47.6 46.7,42.6 "/>
<polyline class="st1" points="38.7,44.5 41.7,47.6 46.7,42.6 "/>
</svg>
