<?xml version="1.0" encoding="utf-8"?>
<!-- Generator: Adobe Illustrator 21.1.0, SVG Export Plug-In . SVG Version: 6.00 Build 0)  -->
<svg version="1.1" id="Слой_1" xmlns="http://www.w3.org/2000/svg"  x="0px" y="0px"
	 viewBox="0 0 31 31" style="enable-background:new 0 0 31 31;" xml:space="preserve">
<style type="text/css">
	.st0{fill:#FFFFFF;stroke:#A9C833;stroke-miterlimit:10;}
	.st1{fill:#A9C833;}
</style>
<g>
	<path class="st0" d="M15.5,0.5c-8.3,0-15,6.7-15,15s6.7,15,15,15c8.3,0,15-6.7,15-15S23.8,0.5,15.5,0.5z"/>
	<path class="st1" d="M13.2,20.9c-0.3,0-0.5-0.2-0.5-0.5V14c0-1.5-1.2-2.7-2.7-2.7S7.3,12.5,7.3,14v6.4c0,0.3-0.2,0.5-0.5,0.5
		c-0.3,0-0.5-0.2-0.5-0.5V14c0-2,1.7-3.7,3.7-3.7s3.7,1.7,3.7,3.7v6.4C13.7,20.7,13.5,20.9,13.2,20.9z"/>
	<path class="st1" d="M19.7,21.1c-0.3,0-0.5-0.2-0.5-0.5v-6.4c0-1.5-1.2-2.7-2.7-2.7s-2.7,1.2-2.7,2.7v6.4c0,0.3-0.2,0.5-0.5,0.5
		c-0.3,0-0.5-0.2-0.5-0.5v-6.4c0-2,1.7-3.7,3.7-3.7s3.7,1.7,3.7,3.7v6.4C20.1,20.9,19.9,21.1,19.7,21.1z"/>
	<path class="st1" d="M25.2,13.6h-3.4c-0.2,0-0.4-0.1-0.4-0.3c-0.1-0.2,0-0.4,0.1-0.5c0,0,0.6-0.7,1.4-1.5c0.7-0.7,1.6-1.7,1.6-2.4
		c0-0.6-0.5-1.1-1.1-1.1c-0.6,0-1.1,0.5-1.1,1.1c0,0.3-0.2,0.5-0.5,0.5S21.4,9.2,21.4,9c0-1.1,0.9-2,2-2s2,0.9,2,2c0,1-1,2.1-1.9,3
		c-0.2,0.3-0.5,0.5-0.7,0.7h2.3c0.3,0,0.5,0.2,0.5,0.5C25.7,13.4,25.5,13.6,25.2,13.6z"/>
</g>
</svg>
