<?xml version="1.0" encoding="utf-8"?>
<!-- Generator: Adobe Illustrator 21.1.0, SVG Export Plug-In . SVG Version: 6.00 Build 0)  -->
<svg version="1.1" id="Слой_1" xmlns="http://www.w3.org/2000/svg"  x="0px" y="0px"
	 viewBox="0 0 31 31" style="enable-background:new 0 0 31 31;" xml:space="preserve">
<style type="text/css">
	.st0{fill:#FFFFFF;}
	.st1{fill:#A9C833;}
</style>
<g>
	<g>
		<path class="st0" d="M15.5,0.5c-8.3,0-15,6.7-15,15s6.7,15,15,15c8.3,0,15-6.7,15-15S23.8,0.5,15.5,0.5z"/>
		<path class="st1" d="M15.5,31C7,31,0,24,0,15.5S7,0,15.5,0S31,7,31,15.5S24,31,15.5,31z M15.5,1C7.5,1,1,7.5,1,15.5
			S7.5,30,15.5,30c8,0,14.5-6.5,14.5-14.5S23.5,1,15.5,1z"/>
	</g>
	<g>
		<path class="st1" d="M16.1,9c-1.4,0-2.6-1.2-2.6-2.6s1.2-2.6,2.6-2.6s2.6,1.2,2.6,2.6S17.6,9,16.1,9z M16.1,4.8
			c-0.9,0-1.7,0.7-1.7,1.7c0,0.9,0.7,1.7,1.7,1.7c0.9,0,1.7-0.7,1.7-1.7C17.8,5.5,17.1,4.8,16.1,4.8z"/>
		<path class="st1" d="M20.4,26.4c-0.6,0-1.1-0.4-1.3-1l-1.3-4.5l-2.6-2.4c-0.4-0.4-0.7-1-0.7-1.6v-3.9l-1.4,0.6L12.8,17
			c-0.1,0.7-0.7,1.3-1.5,1.2c-0.7-0.1-1.3-0.8-1.2-1.5l0.4-3.8c0.1-0.8,0.6-1.5,1.4-1.8l2.2-0.9c0.6-0.2,1.3-0.2,1.9,0.1
			c0.8,0.4,1.3,1.2,1.3,2v4.4l2.5,2.4c0.3,0.3,0.5,0.7,0.6,1.1l1.3,4.5c0.2,0.7-0.2,1.5-0.9,1.7C20.7,26.4,20.6,26.4,20.4,26.4z
			 M15,11.8c0,0,0.1,0,0.1,0c0.2,0.1,0.3,0.2,0.3,0.4v4.6c0,0.4,0.1,0.7,0.4,1l2.6,2.5c0.1,0.1,0.1,0.1,0.1,0.2l1.4,4.6
			c0.1,0.2,0.3,0.4,0.6,0.3c0.1,0,0.2-0.1,0.3-0.2c0.1-0.1,0.1-0.2,0-0.3l-1.3-4.5c0,0,0,0,0,0c-0.1-0.3-0.2-0.5-0.4-0.7l-2.6-2.5
			c-0.1-0.1-0.1-0.2-0.1-0.3v-4.6c0-0.5-0.3-1-0.8-1.2c-0.4-0.2-0.8-0.2-1.1,0l-2.2,0.9c-0.5,0.2-0.8,0.6-0.8,1.1L11,16.8
			c0,0.2,0.2,0.5,0.4,0.5c0.3,0,0.5-0.2,0.5-0.4l0.4-3.7c0-0.2,0.1-0.3,0.3-0.4l2.2-0.9C14.8,11.8,14.9,11.8,15,11.8z"/>
		<path class="st1" d="M11.6,26.4c-0.2,0-0.4-0.1-0.6-0.2c-0.7-0.3-0.9-1.2-0.6-1.8l2.3-4.6c0.3-0.7,1.2-0.9,1.8-0.6c0,0,0,0,0,0
			c0.7,0.3,0.9,1.2,0.6,1.8l-2.3,4.6C12.6,26.1,12.1,26.4,11.6,26.4z M14,20c-0.2,0-0.3,0.1-0.4,0.2l-2.3,4.6
			c-0.1,0.1-0.1,0.2,0,0.3c0,0.1,0.1,0.2,0.2,0.3c0.2,0.1,0.5,0,0.6-0.2l2.3-4.6c0.1-0.2,0-0.5-0.2-0.6C14.1,20,14,20,14,20z"/>
		<path class="st1" d="M21.1,16.4c-0.3,0-0.6-0.1-0.8-0.3l-1.8-1.3c-0.3-0.2-0.5-0.5-0.5-0.9c-0.1-0.4,0-0.7,0.3-1
			c0.2-0.3,0.5-0.5,0.9-0.5c0.4-0.1,0.7,0,1,0.3L22,14c0.3,0.2,0.5,0.5,0.5,0.9c0.1,0.4,0,0.7-0.3,1C22,16.2,21.6,16.4,21.1,16.4z
			 M19.4,13.3C19.4,13.3,19.3,13.3,19.4,13.3c-0.2,0-0.3,0.1-0.4,0.2c-0.1,0.2-0.1,0.5,0.1,0.6l1.8,1.3c0.2,0.1,0.5,0.1,0.6-0.1
			c0.1-0.1,0.1-0.2,0.1-0.3c0-0.1-0.1-0.2-0.2-0.3c0,0,0,0,0,0l-1.8-1.3C19.6,13.3,19.5,13.3,19.4,13.3z"/>
	</g>
</g>
</svg>
