<?xml version="1.0" encoding="utf-8"?>
<!-- Generator: Adobe Illustrator 21.1.0, SVG Export Plug-In . SVG Version: 6.00 Build 0)  -->
<svg version="1.1" id="Слой_1" xmlns="http://www.w3.org/2000/svg"  x="0px" y="0px"
	 viewBox="0 0 70 70" style="enable-background:new 0 0 70 70;" xml:space="preserve">
<style type="text/css">
	.st0{filter:url(#Adobe_OpacityMaskFilter);}
	.st1{fill:#FFFFFF;}
	.st2{mask:url(#mask-29_2_);fill:#A9C833;}
</style>
<g id="Icon_1_" transform="translate(0.000000, 14.000000)">
	<g id="Group-3_1_" transform="translate(0.000000, 1.211007)">
		<g id="Clip-2_1_">
		</g>
		<defs>
			<filter id="Adobe_OpacityMaskFilter" filterUnits="userSpaceOnUse" x="0" y="-15.2" width="70" height="70">
				<feColorMatrix  type="matrix" values="1 0 0 0 0  0 1 0 0 0  0 0 1 0 0  0 0 0 1 0"/>
			</filter>
		</defs>
		<mask maskUnits="userSpaceOnUse" x="0" y="-15.2" width="70" height="70" id="mask-29_2_">
			<g class="st0">
				<polygon id="path-28_2_" class="st1" points="0,-15.2 70,-15.2 70,54.8 0,54.8 				"/>
			</g>
		</mask>
		<path id="Fill-1_10_" class="st2" d="M35-15.2c-19.3,0-35,15.7-35,35s15.7,35,35,35s35-15.7,35-35S54.3-15.2,35-15.2"/>
	</g>
	<path id="Fill-4_1_" class="st1" d="M20.5,37.7h17.4V0.5L20.5,5.3V37.7z M38.9,39.9H19.4c-0.6,0-1.1-0.5-1.1-1.1V4.5
		c0-0.5,0.3-0.9,0.8-1.1L38.6-2c0.3-0.1,0.7,0,1,0.2C39.9-1.6,40-1.3,40-1v39.7C40,39.4,39.5,39.9,38.9,39.9z"/>
	<path id="Fill-6_7_" class="st1" d="M40,37.7h7.5V5.1L40,0.9V37.7z M48.6,39.9h-9.7c-0.6,0-1.1-0.5-1.1-1.1V-1
		c0-0.4,0.2-0.8,0.5-0.9c0.3-0.2,0.8-0.2,1.1,0l9.7,5.4c0.3,0.2,0.6,0.6,0.6,1v34.3C49.7,39.4,49.2,39.9,48.6,39.9z"/>
</g>
</svg>
