<?xml version="1.0" encoding="utf-8"?>
<!-- Generator: Adobe Illustrator 21.1.0, SVG Export Plug-In . SVG Version: 6.00 Build 0)  -->
<svg version="1.1" id="Слой_1" xmlns="http://www.w3.org/2000/svg"  x="0px" y="0px"
	 viewBox="0 0 70 70" style="enable-background:new 0 0 70 70;" xml:space="preserve">
<style type="text/css">
	.st0{fill:none;stroke:#FFFFFF;stroke-width:2.2;stroke-linecap:round;stroke-linejoin:round;stroke-miterlimit:10;}
	.st1{fill:#9FC41F;}
</style>
<path class="st0" d="M51.3,65.4c0-2.2-0.8-4.3-2.4-5.8"/>
<path class="st1" d="M35,0C15.7,0,0,15.7,0,35c0,19.3,15.7,35,35,35c19.3,0,35-15.7,35-35C70,15.7,54.3,0,35,0"/>
<polygon class="st0" points="50.6,28.8 41,28.8 41,19.2 29,19.2 29,28.8 19.4,28.8 19.4,40.9 29,40.9 29,50.5 41,50.5 41,40.9 
	50.6,40.9 "/>
</svg>
