<?xml version="1.0" encoding="utf-8"?>
<!-- Generator: Adobe Illustrator 21.1.0, SVG Export Plug-In . SVG Version: 6.00 Build 0)  -->
<svg version="1.1" id="Слой_1" xmlns="http://www.w3.org/2000/svg"  x="0px" y="0px"
	 viewBox="0 0 70 70" style="enable-background:new 0 0 70 70;" xml:space="preserve">
<style type="text/css">
	.st0{fill:#9FC41F;}
	.st1{fill:none;stroke:#FFFFFF;stroke-width:2.2;stroke-linecap:round;stroke-linejoin:round;stroke-miterlimit:10;}
	.st2{fill:none;stroke:#FFFFFF;stroke-width:2.2;stroke-linecap:round;stroke-miterlimit:10;}
</style>
<path class="st0" d="M35,0C15.7,0,0,15.7,0,35c0,19.3,15.7,35,35,35c19.3,0,35-15.7,35-35C70,15.7,54.3,0,35,0"/>
<path class="st1" d="M51.4,22.6c-2-2-4.6-3.1-7.5-3.1c-2.8,0-5.5,1.1-7.5,3.1l-1,1l-1.1-1.1c-2-2-4.7-3.1-7.5-3.1
	c-2.8,0-5.5,1.1-7.4,3.1c-2,2-3.1,4.6-3.1,7.5c0,2.8,1.1,5.5,3.1,7.5l15.2,15.2c0.2,0.2,0.5,0.3,0.8,0.3c0.3,0,0.6-0.1,0.8-0.3
	l15.2-15.2c2-2,3.1-4.6,3.1-7.5C54.5,27.3,53.4,24.6,51.4,22.6z"/>
<path class="st1" d="M50.8,31.2c0-2.2-0.8-4.3-2.4-5.8"/>
<polyline class="st2" points="11.3,35.8 25.9,35.8 29.3,29.7 33,41.7 36.8,35.9 43.8,35.9 "/>
</svg>
