<?xml version="1.0" encoding="utf-8"?>
<!-- Generator: Adobe Illustrator 21.1.0, SVG Export Plug-In . SVG Version: 6.00 Build 0)  -->
<svg version="1.1" id="Слой_1" xmlns="http://www.w3.org/2000/svg"  x="0px" y="0px"
	 viewBox="0 0 30 30" style="enable-background:new 0 0 30 30;" xml:space="preserve">
<style type="text/css">
	.st0{fill:#A9C833;}
	.st1{fill:#FFFFFF;}
</style>
<path class="st0" d="M15,0C6.7,0,0,6.7,0,15c0,8.3,6.7,15,15,15c8.3,0,15-6.7,15-15C30,6.7,23.3,0,15,0"/>
<path class="st1" d="M20.4,24H9.7c-0.3,0-0.5-0.2-0.5-0.5V5.9c0-0.3,0.2-0.5,0.5-0.5h10.7c0.3,0,0.5,0.2,0.5,0.5v17.6
	C20.9,23.8,20.7,24,20.4,24 M10.2,23h9.8V6.4h-9.8V23z"/>
<path class="st1" d="M9.7,24c-0.1,0-0.2,0-0.2-0.1c-0.1-0.1-0.2-0.2-0.2-0.4V5.9c0-0.3,0.2-0.5,0.5-0.5h6.4c0.3,0,0.5,0.2,0.5,0.5
	v13.7c0,0.2-0.1,0.3-0.2,0.4l-6.4,3.9C9.9,23.9,9.8,24,9.7,24 M10.2,6.4v16.3l5.5-3.3v-13H10.2z M16.1,19.6L16.1,19.6L16.1,19.6z"/>
<path class="st1" d="M20,17.1h-3.9c-0.3,0-0.5-0.2-0.5-0.5c0-0.3,0.2-0.5,0.5-0.5H20c0.3,0,0.5,0.2,0.5,0.5
	C20.4,16.9,20.2,17.1,20,17.1"/>
<path class="st1" d="M14.8,13.4c0,0.4-0.3,0.6-0.6,0.6c-0.4,0-0.6-0.3-0.6-0.6c0-0.4,0.3-0.6,0.6-0.6C14.5,12.8,14.8,13.1,14.8,13.4
	"/>
</svg>
