<?xml version="1.0" encoding="utf-8"?>
<!-- Generator: Adobe Illustrator 21.1.0, SVG Export Plug-In . SVG Version: 6.00 Build 0)  -->
<svg version="1.1" id="Слой_1" xmlns="http://www.w3.org/2000/svg"  x="0px" y="0px"
	 viewBox="0 0 70 70" style="enable-background:new 0 0 70 70;" xml:space="preserve">
<style type="text/css">
	.st0{fill:#9FC41F;}
	.st1{fill:none;stroke:#FFFFFF;stroke-width:2.2;stroke-linecap:round;stroke-linejoin:round;stroke-miterlimit:10;}
	.st2{fill:#A9C833;}
</style>
<path class="st0" d="M10.2,59.7c13.6,13.6,35.9,13.6,49.5,0c13.6-13.6,13.6-35.8,0-49.5c-13.6-13.6-35.8-13.6-49.5,0
	C-3.4,23.9-3.4,46.1,10.2,59.7"/>
<path class="st1" d="M49.5,42.8H24c-2.5,0-4.5-2.1-4.5-4.8v-0.8c0-2.6,2-4.8,4.5-4.8h4.8c2.5,0,4.5-2.1,4.5-4.8v-0.3
	c0-2.6-2-4.8-4.5-4.8H15.2"/>
<path class="st2" d="M37.1,51.6c4.7,4.7,12.3,4.7,17,0c4.7-4.7,4.7-12.3,0-17c-4.7-4.7-12.3-4.7-17,0C32.4,39.3,32.4,46.9,37.1,51.6
	"/>
<path class="st1" d="M37.1,51.6c4.7,4.7,12.3,4.7,17,0c4.7-4.7,4.7-12.3,0-17c-4.7-4.7-12.3-4.7-17,0C32.4,39.3,32.4,46.9,37.1,51.6
	z"/>
<line class="st1" x1="41.8" y1="39.3" x2="49.4" y2="46.9"/>
<line class="st1" x1="49.4" y1="39.3" x2="41.8" y2="46.9"/>
<path class="st2" d="M12,25c-1.5-1.5-1.5-4,0-5.5c1.5-1.5,4-1.5,5.5,0s1.5,4,0,5.5C16,26.5,13.5,26.5,12,25"/>
<ellipse transform="matrix(0.7071 -0.7071 0.7071 0.7071 -11.4352 16.9509)" class="st1" cx="14.7" cy="22.3" rx="3.9" ry="3.9"/>
<path class="st2" d="M28,25c-1.5-1.5-1.5-4,0-5.5c1.5-1.5,4-1.5,5.5,0s1.5,4,0,5.5C32,26.5,29.5,26.5,28,25"/>
<ellipse transform="matrix(0.7071 -0.7071 0.7071 0.7071 -6.7489 28.2646)" class="st1" cx="30.7" cy="22.3" rx="3.9" ry="3.9"/>
<path class="st2" d="M20,45c-1.5-1.5-1.5-4,0-5.5c1.5-1.5,4-1.5,5.5,0c1.5,1.5,1.5,4,0,5.5C24,46.5,21.5,46.5,20,45"/>
<ellipse transform="matrix(0.7071 -0.7071 0.7071 0.7071 -23.2342 28.4656)" class="st1" cx="22.7" cy="42.3" rx="3.9" ry="3.9"/>
</svg>
