<?xml version="1.0" encoding="utf-8"?>
<!-- Generator: Adobe Illustrator 21.1.0, SVG Export Plug-In . SVG Version: 6.00 Build 0)  -->
<svg version="1.1" id="Слой_1" xmlns="http://www.w3.org/2000/svg"  x="0px" y="0px"
	 viewBox="0 0 30 30" style="enable-background:new 0 0 30 30;" xml:space="preserve">
<style type="text/css">
	.st0{fill:#A9C833;}
	.st1{fill:#FFFFFF;}
</style>
<path class="st0" d="M15,0C6.7,0,0,6.7,0,15c0,8.3,6.7,15,15,15c8.3,0,15-6.7,15-15C30,6.7,23.3,0,15,0"/>
<path class="st1" d="M22.5,22.7h-15c-0.3,0-0.5-0.2-0.5-0.5v-15c0-0.3,0.2-0.5,0.5-0.5h15C22.8,6.7,23,7,23,7.2v15
	C23,22.5,22.8,22.7,22.5,22.7 M8,21.7h14.1V7.7H8V21.7z"/>
<path class="st1" d="M22.5,22.7h-15c-0.3,0-0.5-0.2-0.5-0.5v-7.7c0-0.3,0.2-0.5,0.5-0.5h15c0.3,0,0.5,0.2,0.5,0.5v7.7
	C23,22.5,22.8,22.7,22.5,22.7 M8,21.7h14.1V15H8V21.7z"/>
<path class="st1" d="M14.8,22.7H7.5c-0.3,0-0.5-0.2-0.5-0.5v-7.7c0-0.3,0.2-0.5,0.5-0.5h7.3c0.3,0,0.5,0.2,0.5,0.5v7.7
	C15.3,22.5,15.1,22.7,14.8,22.7 M8,21.7h6.3V15H8V21.7z"/>
<path class="st1" d="M14.8,18.8H7.5c-0.3,0-0.5-0.2-0.5-0.5c0-0.3,0.2-0.5,0.5-0.5h6.8V15H7.5c-0.3,0-0.5-0.2-0.5-0.5S7.3,14,7.5,14
	h7.3c0.3,0,0.5,0.2,0.5,0.5v3.9C15.3,18.6,15.1,18.8,14.8,18.8"/>
<path class="st1" d="M11.1,18.8c-0.3,0-0.5-0.2-0.5-0.5v-3.9c0-0.3,0.2-0.5,0.5-0.5c0.3,0,0.5,0.2,0.5,0.5v3.9
	C11.6,18.6,11.4,18.8,11.1,18.8"/>
<path class="st1" d="M15,22.5c-0.1,0-0.2,0-0.3-0.1c-0.2-0.2-0.2-0.5,0-0.7l7.5-7.5c0.2-0.2,0.5-0.2,0.7,0c0.2,0.2,0.2,0.5,0,0.7
	l-7.5,7.5C15.3,22.5,15.2,22.5,15,22.5"/>
</svg>
