<?xml version="1.0" encoding="utf-8"?>
<!-- Generator: Adobe Illustrator 21.1.0, SVG Export Plug-In . SVG Version: 6.00 Build 0)  -->
<svg version="1.1" id="Слой_1" xmlns="http://www.w3.org/2000/svg"  x="0px" y="0px"
	 viewBox="0 0 70 70" style="enable-background:new 0 0 70 70;" xml:space="preserve">
<style type="text/css">
	.st0{fill:#9FC41F;}
	.st1{fill:none;stroke:#FFFFFF;stroke-width:2.2;stroke-linecap:round;stroke-linejoin:round;stroke-miterlimit:10;}
</style>
<path class="st0" d="M35,0C15.7,0,0,15.7,0,35c0,19.3,15.7,35,35,35c19.3,0,35-15.7,35-35C70,15.7,54.3,0,35,0"/>
<path class="st1" d="M19.4,54.6C23.7,58,29.1,60,35,60c13.8,0,25-11.2,25-25c0-5.2-1.6-10-4.3-14"/>
<path class="st1" d="M49,14.2c-4-2.7-8.8-4.3-14-4.3c-13.8,0-25,11.2-25,25c0,4.7,1.3,9.1,3.6,12.8"/>
<polyline class="st1" points="45.7,29.4 45.7,46.9 24.3,46.9 24.3,29.4 "/>
<polyline class="st1" points="48.7,31.5 35.3,19.1 21.3,31.5 "/>
<rect x="31.8" y="36.1" class="st1" width="6.3" height="10.8"/>
<polyline class="st1" points="44,16.7 49.9,14.8 48.6,8.6 "/>
<polyline class="st1" points="25.3,53.1 19,53.4 18.7,59.7 "/>
</svg>
