<?xml version="1.0" encoding="utf-8"?>
<!-- Generator: Adobe Illustrator 21.1.0, SVG Export Plug-In . SVG Version: 6.00 Build 0)  -->
<svg version="1.1" id="Слой_1" xmlns="http://www.w3.org/2000/svg"  x="0px" y="0px"
	 viewBox="0 0 30 30" style="enable-background:new 0 0 30 30;" xml:space="preserve">
<style type="text/css">
	.st0{fill:#5300BC;}
	.st1{fill:#FFFFFF;}
	.st2{fill:none;stroke:#FFFFFF;stroke-linecap:round;stroke-miterlimit:10;}
	.st3{fill:none;stroke:#FFFFFF;stroke-linecap:round;stroke-linejoin:round;stroke-miterlimit:10;}
</style>
<g>
	<g>
		<path class="st0" d="M0,15C0,6.7,6.7,0,15,0c8.3,0,15,6.7,15,15c0,8.3-6.7,15-15,15S0,23.3,0,15z"/>
		<path class="st1" d="M23.5,23.5h-17v-17h17V23.5z M7.5,22.5h15v-15h-15V22.5z"/>
	</g>
	<path class="st2" d="M14.7,17.9c-1.4,1-3.3,0.9-4.5-0.4c-1.4-1.4-1.4-3.5,0-4.9c1.2-1.2,3-1.3,4.4-0.4"/>
	<polyline class="st3" points="20.5,18.4 20.5,11.9 16.9,11.9 16.9,18.4 	"/>
</g>
</svg>
