<?xml version="1.0" encoding="utf-8"?>
<!-- Generator: Adobe Illustrator 21.1.0, SVG Export Plug-In . SVG Version: 6.00 Build 0)  -->
<svg version="1.1" id="Слой_1" xmlns="http://www.w3.org/2000/svg"  x="0px" y="0px"
	 viewBox="0 0 30 30" style="enable-background:new 0 0 30 30;" xml:space="preserve">
<style type="text/css">
	.st0{fill:#A9C833;}
	.st1{fill:#FFFFFF;}
</style>
<path class="st0" d="M15,30C6.7,30,0,23.3,0,15C0,6.7,6.7,0,15,0s15,6.7,15,15C30,23.3,23.3,30,15,30"/>
<path class="st1" d="M15,22.2c-0.1,0-0.3,0-0.4-0.1L13,20.8c-0.2-0.1-0.2-0.4-0.2-0.6l1.6-6c0.1-0.2,0.3-0.4,0.6-0.4
	c0.3,0,0.5,0.2,0.6,0.4l1.6,6c0.1,0.2,0,0.4-0.2,0.6l-1.6,1.3C15.3,22.2,15.1,22.2,15,22.2 M13.8,20.2l1.2,1l1.2-1L15,15.8
	L13.8,20.2z M13.6,20.1L13.6,20.1C13.6,20.1,13.6,20.1,13.6,20.1 M15.4,14.5L15.4,14.5L15.4,14.5z M14.9,14.4L14.9,14.4L14.9,14.4z"
	/>
<path class="st1" d="M18.7,23.8c-0.3,0-0.5-0.2-0.5-0.5v-3.9c0-0.3,0.2-0.5,0.5-0.5c0.3,0,0.5,0.2,0.5,0.5v3.9
	C19.1,23.6,18.9,23.8,18.7,23.8"/>
<path class="st1" d="M11.3,24c-0.3,0-0.5-0.2-0.5-0.5v-3.9c0-0.3,0.2-0.5,0.5-0.5c0.3,0,0.5,0.2,0.5,0.5v3.9
	C11.8,23.7,11.6,24,11.3,24"/>
<path class="st1" d="M15,14c-2.3,0-4.1-1.8-4.1-4.1c0-0.3,0.2-0.5,0.5-0.5s0.5,0.2,0.5,0.5c0,1.7,1.4,3.2,3.2,3.2
	c1.7,0,3.2-1.4,3.2-3.2c0-0.3,0.2-0.5,0.5-0.5c0.3,0,0.5,0.2,0.5,0.5C19.1,12.1,17.3,14,15,14"/>
<path class="st1" d="M19.3,24.3h-8.5c-1.5,0-2.6-1.2-2.6-2.6v-5.1c0-1.5,1.2-2.6,2.6-2.6h8.5c1.5,0,2.6,1.2,2.6,2.6v5.1
	C21.9,23.1,20.7,24.3,19.3,24.3 M10.7,14.8c-0.9,0-1.7,0.8-1.7,1.7v5.1c0,0.9,0.8,1.7,1.7,1.7h8.5c0.9,0,1.7-0.8,1.7-1.7v-5.1
	c0-0.9-0.8-1.7-1.7-1.7H10.7z"/>
<path class="st1" d="M18.9,8.5c-0.3,0-0.5-0.2-0.5-0.5V7.5c0-1.5-1-2.9-2.4-3.3c-0.2-0.1-0.4-0.3-0.3-0.6c0.1-0.2,0.3-0.4,0.6-0.3
	c1.8,0.6,3.1,2.3,3.1,4.2v0.6C19.4,8.3,19.2,8.5,18.9,8.5"/>
<path class="st1" d="M11.1,8.5c-0.3,0-0.5-0.2-0.5-0.5V7.5c0-1.9,1.3-3.7,3.2-4.2c0.3-0.1,0.5,0.1,0.6,0.3S14.3,4.1,14,4.2
	c-1.5,0.4-2.5,1.8-2.5,3.3v0.6C11.5,8.3,11.3,8.5,11.1,8.5"/>
<path class="st1" d="M16.1,6.4c-0.3,0-0.5-0.2-0.5-0.5V3.6l-1.2,0l0,2.3c0,0.3-0.2,0.5-0.5,0.5c-0.3,0-0.5-0.2-0.5-0.5V3.6
	c0-0.5,0.4-0.9,1-0.9h1.1c0.5,0,1,0.4,1,0.9v2.3C16.5,6.2,16.3,6.4,16.1,6.4"/>
<path class="st1" d="M19.5,9h-9C10.2,9,10,8.7,10,8.5S10.2,8,10.5,8h9C19.8,8,20,8.2,20,8.5S19.8,9,19.5,9"/>
</svg>
