<?xml version="1.0" encoding="utf-8"?>
<!-- Generator: Adobe Illustrator 21.1.0, SVG Export Plug-In . SVG Version: 6.00 Build 0)  -->
<svg version="1.1" id="Слой_1" xmlns="http://www.w3.org/2000/svg"  x="0px" y="0px"
	 viewBox="0 0 70 70" style="enable-background:new 0 0 70 70;" xml:space="preserve">
<style type="text/css">
	.st0{fill:#9FC41F;}
	.st1{fill:none;stroke:#FFFFFF;stroke-width:2.2;stroke-linecap:round;stroke-linejoin:round;stroke-miterlimit:10;}
</style>
<path class="st0" d="M35,70C15.7,70,0,54.3,0,35C0,15.7,15.7,0,35,0c19.3,0,35,15.7,35,35C70,54.3,54.3,70,35,70"/>
<path class="st1" d="M47.1,47c0,1.8,1.5,3.3,3.3,3.3c1.8,0,3.3-1.5,3.3-3.3c0-1.5-1-2.8-2.4-3.2c0,0-0.8-0.2-0.9-1.1
	c-0.1-0.7,0-1.4,0-1.4"/>
<circle class="st1" cx="50.3" cy="38.1" r="3.1"/>
<polyline class="st1" points="37.9,28.8 37.9,56.8 25,56.8 25,28.8 "/>
<polygon class="st1" points="37.9,23.4 25,23.4 31.9,10.3 "/>
<line class="st1" x1="34.3" y1="13.7" x2="56.4" y2="23.4"/>
<line class="st1" x1="13.1" y1="23.4" x2="30.1" y2="13.5"/>
<rect x="12.5" y="23.6" class="st1" width="45" height="5"/>
<line class="st1" x1="37.7" y1="28.6" x2="25.5" y2="38"/>
<line class="st1" x1="37.7" y1="38" x2="25.5" y2="47.4"/>
<line class="st1" x1="37.7" y1="46.6" x2="25.5" y2="55.9"/>
<line class="st1" x1="25.8" y1="38" x2="37.4" y2="38"/>
<line class="st1" x1="25.8" y1="47.3" x2="37.4" y2="47.3"/>
<line class="st1" x1="50.3" y1="29.8" x2="50.3" y2="34.3"/>
</svg>
