<?xml version="1.0" encoding="utf-8"?>
<!-- Generator: Adobe Illustrator 21.1.0, SVG Export Plug-In . SVG Version: 6.00 Build 0)  -->
<svg version="1.1" id="Слой_1" xmlns="http://www.w3.org/2000/svg"  x="0px" y="0px"
	 viewBox="0 0 30 30" style="enable-background:new 0 0 30 30;" xml:space="preserve">
<style type="text/css">
	.st0{fill:#A9C833;}
	.st1{fill:#FFFFFF;}
</style>
<path class="st0" d="M15,0C6.7,0,0,6.7,0,15c0,8.3,6.7,15,15,15s15-6.7,15-15C30,6.7,23.3,0,15,0"/>
<path class="st1" d="M14.9,10.1c-1.1,0-2.1,0.5-2.7,1.3c-0.7-0.8-1.6-1.3-2.7-1.3c-2,0-3.6,1.6-3.6,3.6v1.5v3.4
	c0,0.5,0.4,0.9,0.9,0.9c0.5,0,0.9-0.4,0.9-0.9v-3.4v-1.5c0-1,0.8-1.9,1.9-1.9s1.9,0.8,1.9,1.9v1.5v3.4c0,0.5,0.4,0.9,0.9,0.9
	S13,19,13,18.6v-3.4v-1.5c0-1,0.8-1.9,1.9-1.9c1,0,1.9,0.8,1.9,1.9v1.5v3.4c0,0.5,0.4,0.9,0.9,0.9s0.9-0.4,0.9-0.9v-3.4v-1.5
	C18.5,11.7,16.8,10.1,14.9,10.1"/>
<path class="st1" d="M24.5,12.7H23l1.9-2.4c0.5-0.6,0.4-1.4,0.2-1.9c-0.2-0.5-0.6-1-1.2-1.2c-0.8-0.4-1.8-0.2-2.5,0.5l-0.1,0.1v0
	c-0.4,0.4-0.5,0.9-0.5,1.4c0,0.4,0.3,0.7,0.8,0.7c0.4,0,0.8-0.3,0.8-0.7c0-0.2,0.1-0.5,0.3-0.6c0.3-0.2,0.7-0.1,0.8,0.1
	c0.2,0.2,0.3,0.5,0.2,0.8l-2.8,3.5c-0.1,0.1-0.2,0.3-0.2,0.5c0,0.4,0.3,0.7,0.7,0.7h3c0.4,0,0.7-0.3,0.7-0.7
	C25.3,13,24.9,12.7,24.5,12.7"/>
</svg>
