<?xml version="1.0" encoding="utf-8"?>
<!-- Generator: Adobe Illustrator 21.1.0, SVG Export Plug-In . SVG Version: 6.00 Build 0)  -->
<svg version="1.1" id="Слой_1" xmlns="http://www.w3.org/2000/svg"  x="0px" y="0px"
	 viewBox="0 0 70 71.1" style="enable-background:new 0 0 70 71.1;" xml:space="preserve">
<style type="text/css">
	.st0{fill:none;stroke:#FFFFFF;stroke-width:2.2;stroke-linecap:round;stroke-linejoin:round;stroke-miterlimit:10;}
	.st1{fill:#9FC41F;}
</style>
<path class="st0" d="M41.8,1.1c-0.4,0.9-1.3,1.5-2.3,1.5c-1,0-1.9-0.6-2.3-1.5"/>
<path class="st1" d="M35,1.1c-19.3,0-35,15.7-35,35c0,19.3,15.7,35,35,35c19.3,0,35-15.7,35-35C70,16.8,54.3,1.1,35,1.1"/>
<path class="st0" d="M13.5,18.4v11.4v3.1V34c0,8.2,8.8,13.4,12.3,13.4c3.6,0,12.3-4.7,12.3-13.4v-1.1v-3.1V18.4H13.5z"/>
<path class="st0" d="M28.9,28.2c0.4-0.9,1.3-1.5,2.3-1.5c1,0,1.9,0.6,2.3,1.5"/>
<path class="st0" d="M18.8,28.2c0.4-0.9,1.3-1.5,2.3-1.5c1,0,1.9,0.6,2.3,1.5"/>
<path class="st0" d="M32.7,44.5C33.4,52,41.6,56.8,45,56.8c3.6,0,12.3-4.7,12.3-13.4v-1.1v-3.1V27.8H38.8"/>
<path class="st0" d="M42.5,36.1c-0.4,0.9-1.3,1.5-2.3,1.5c-1,0-1.9-0.6-2.3-1.5"/>
<path class="st0" d="M50,48.7c-0.9-1.5-2.7-2.5-4.7-2.5c-2.1,0-3.9,1.1-4.8,2.6"/>
<path class="st0" d="M21.3,37.9c0.9,1.5,2.7,2.5,4.7,2.5c2.1,0,3.9-1.1,4.8-2.6"/>
</svg>
