<?xml version="1.0" encoding="utf-8"?>
<!-- Generator: Adobe Illustrator 21.1.0, SVG Export Plug-In . SVG Version: 6.00 Build 0)  -->
<svg version="1.1" id="Слой_1" xmlns="http://www.w3.org/2000/svg"  x="0px" y="0px"
	 viewBox="0 0 25 25" style="enable-background:new 0 0 25 25;" xml:space="preserve">
<style type="text/css">
	.st0{fill:#E73800;}
	.st1{fill:#FFFFFF;}
</style>
<g>
	<path class="st0" d="M12.5,0C5.6,0,0,5.6,0,12.5S5.6,25,12.5,25S25,19.4,25,12.5S19.4,0,12.5,0z"/>
	<path class="st1" d="M14.9,20.1H7.4c-1.7,0-3-1.3-3-3s1.3-3,3-3h7.5c1.7,0,3,1.3,3,3S16.6,20.1,14.9,20.1z M7.4,15.1
		c-1.1,0-2,0.9-2,2s0.9,2,2,2h7.5c1.1,0,2-0.9,2-2s-0.9-2-2-2H7.4z"/>
	<path class="st1" d="M12.4,12H6.3V6h4.6L12.4,12z M7.3,11h3.9l-1-4H7.3V11z"/>
	<polygon class="st1" points="7.3,14.7 6.3,14.7 6.3,11 14.8,11 14.8,14.2 13.8,14.2 13.8,12 7.3,12 	"/>
	<path class="st1" d="M19.3,15.1c-1.3,0-2.4-1.1-2.4-2.4s1.1-2.4,2.4-2.4s2.4,1.1,2.4,2.4S20.6,15.1,19.3,15.1z M19.3,11.4
		c-0.8,0-1.4,0.6-1.4,1.4s0.6,1.4,1.4,1.4s1.4-0.6,1.4-1.4S20,11.4,19.3,11.4z"/>
	<path class="st1" d="M13,12c-0.1,0-0.3,0-0.4-0.1c-0.2-0.2-0.2-0.5,0-0.7l4.9-4.9l-6.3,1.8C11,8.1,10.7,8,10.6,7.7
		c-0.1-0.3,0.1-0.5,0.3-0.6l8.2-2.3c0.2-0.1,0.5,0,0.6,0.2c0.1,0.2,0.1,0.4-0.1,0.6l-6.3,6.3C13.3,11.9,13.2,12,13,12z"/>
	<path class="st1" d="M19.3,10.7c-0.3,0-0.5-0.2-0.5-0.5v-5c0-0.3,0.2-0.5,0.5-0.5s0.5,0.2,0.5,0.5v5C19.8,10.5,19.6,10.7,19.3,10.7
		z"/>
	<g>
		<circle class="st1" cx="7.4" cy="17.1" r="0.9"/>
		<circle class="st1" cx="14.9" cy="17.1" r="0.9"/>
		<circle class="st1" cx="12.4" cy="17.1" r="0.9"/>
		<circle class="st1" cx="9.9" cy="17.1" r="0.9"/>
	</g>
</g>
</svg>
