<?xml version="1.0" encoding="utf-8"?>
<!-- Generator: Adobe Illustrator 21.1.0, SVG Export Plug-In . SVG Version: 6.00 Build 0)  -->
<svg version="1.1" id="Слой_1" xmlns="http://www.w3.org/2000/svg"  x="0px" y="0px"
	 viewBox="0 0 33 33" style="enable-background:new 0 0 33 33;" xml:space="preserve">
<style type="text/css">
	.st0{fill:#A9C833;}
	.st1{fill:#FFFFFF;}
</style>
<g>
	<g>
		<path class="st0" d="M16.5,31.5c-8.3,0-15-6.7-15-15s6.7-15,15-15c8.3,0,15,6.7,15,15S24.8,31.5,16.5,31.5z"/>
		<path class="st1" d="M16.5,1.5c8.3,0,15,6.7,15,15s-6.7,15-15,15c-8.3,0-15-6.7-15-15S8.2,1.5,16.5,1.5 M16.5,0
			C7.4,0,0,7.4,0,16.5C0,25.6,7.4,33,16.5,33S33,25.6,33,16.5C33,7.4,25.6,0,16.5,0L16.5,0z"/>
	</g>
	<path class="st1" d="M23.9,17.7H12.2c-0.3,0-0.5-0.2-0.5-0.5V7.8c0-0.3,0.2-0.5,0.5-0.5h11.8c0.2,0,0.3,0.1,0.4,0.3
		c0.1,0.2,0.1,0.3,0,0.5l-3.1,4.3l3.1,4.6c0.1,0.1,0.1,0.3,0,0.5C24.3,17.6,24.1,17.7,23.9,17.7z M12.7,16.7H23l-2.8-4.1
		c-0.1-0.2-0.1-0.4,0-0.5L23,8.3H12.7V16.7z"/>
	<path class="st1" d="M12.2,24.1c-0.3,0-0.5-0.2-0.5-0.5V7.8c0-0.3,0.2-0.5,0.5-0.5s0.5,0.2,0.5,0.5v15.9
		C12.7,23.9,12.5,24.1,12.2,24.1z"/>
	<path class="st1" d="M12.2,24.6c-1.7,0-2.9-0.7-2.9-1.6c0-0.6,0.5-1.1,1.4-1.4c0.4-0.1,0.9-0.2,1.5-0.2c1.7,0,2.9,0.7,2.9,1.6
		C15.1,24,13.9,24.6,12.2,24.6z M12.2,22.3c-0.4,0-0.8,0.1-1.2,0.2c-0.6,0.2-0.8,0.4-0.8,0.5c0,0.2,0.7,0.7,2,0.7s2-0.5,2-0.7
		C14.1,22.8,13.5,22.3,12.2,22.3z"/>
</g>
</svg>
