<svg xmlns="http://www.w3.org/2000/svg" viewBox="0 0 33 33">
  <defs>
    <style>
      .cls-1 {
        fill: #fff;
      }

      .cls-2 {
        fill: #a9c833;
      }
    </style>
  </defs>
  <title>иконка с обводкой</title>
  <g id="Слой_2" data-name="Слой 2">
    <g id="Layer_1" data-name="Layer 1">
      <g>
        <circle class="cls-1" cx="16.5" cy="16.5" r="16.5" transform="translate(-0.92 32.02) rotate(-86.69)"/>
        <g>
          <path class="cls-2" d="M16.5,31.5a15,15,0,1,1,15-15A15,15,0,0,1,16.5,31.5Z"/>
          <g>
            <path class="cls-1" d="M22.41,23.26H10a.47.47,0,0,1-.47-.47V10.57a.47.47,0,0,1,.12-.32l3.29-3.64a.47.47,0,0,1,.35-.16h9.14a.47.47,0,0,1,.47.47V22.79A.47.47,0,0,1,22.41,23.26Zm-12-.94H21.93V7.4H13.47l-3,3.35Z"/>
            <path class="cls-1" d="M13.55,11H10a.47.47,0,0,1,0-.94h3.1V6.93a.47.47,0,1,1,.94,0v3.64A.47.47,0,0,1,13.55,11Z"/>
          </g>
          <g>
            <g>
              <polygon class="cls-2" points="18.7 27.98 17.83 26.95 16.44 27.14 18.39 21.96 20.64 22.8 18.7 27.98"/>
              <path class="cls-1" d="M18.7,28.46a.47.47,0,0,1-.36-.17l-.7-.83-1.13.15A.47.47,0,0,1,16,27l1.95-5.18a.47.47,0,0,1,.61-.28l2.26.85a.47.47,0,0,1,.28.61l-1.95,5.18a.47.47,0,0,1-.36.3Zm-.87-2a.47.47,0,0,1,.36.17l.35.42,1.5-4-1.37-.52-1.5,4,.6-.08Z"/>
            </g>
            <g>
              <polygon class="cls-2" points="23.78 26.99 22.44 26.88 21.59 27.99 19.3 22.95 21.5 21.95 23.78 26.99"/>
              <path class="cls-1" d="M21.59,28.46h-.05a.47.47,0,0,1-.38-.27l-2.29-5a.47.47,0,0,1,.23-.62l2.19-1a.47.47,0,0,1,.62.23l2.29,5a.47.47,0,0,1-.47.66l-1.09-.09-.69.91A.47.47,0,0,1,21.59,28.46Zm-1.66-5.28,1.77,3.89.37-.48a.47.47,0,0,1,.41-.18l.54,0-1.76-3.88Z"/>
            </g>
          </g>
          <g>
            <circle class="cls-2" cx="19.68" cy="20.74" r="4.13"/>
            <path class="cls-1" d="M19.68,25.33a4.6,4.6,0,1,1,4.6-4.6A4.6,4.6,0,0,1,19.68,25.33Zm0-8.25a3.65,3.65,0,1,0,3.65,3.65A3.66,3.66,0,0,0,19.68,17.08Z"/>
          </g>
          <path class="cls-1" d="M19.59,13.12h-6.3a.47.47,0,0,1,0-.94h6.3a.47.47,0,0,1,0,.94Z"/>
          <path class="cls-1" d="M19.59,15.31h-6.3a.47.47,0,0,1,0-.94h6.3a.47.47,0,0,1,0,.94Z"/>
          <g>
            <polyline class="cls-2" points="18.07 20.57 19.38 21.89 21.5 19.77"/>
            <path class="cls-1" d="M19.38,22.36a.47.47,0,0,1-.33-.14l-1.31-1.31a.47.47,0,0,1,.67-.67l1,1,1.78-1.78a.47.47,0,0,1,.67.67l-2.12,2.12A.47.47,0,0,1,19.38,22.36Z"/>
          </g>
        </g>
      </g>
    </g>
  </g>
</svg>
