<?xml version="1.0" encoding="utf-8"?>
<!-- Generator: Adobe Illustrator 21.1.0, SVG Export Plug-In . SVG Version: 6.00 Build 0)  -->
<svg version="1.1" id="Слой_1" xmlns="http://www.w3.org/2000/svg"  x="0px" y="0px"
	 viewBox="0 0 70 70" style="enable-background:new 0 0 70 70;" xml:space="preserve">
<style type="text/css">
	.st0{fill:#9FC41F;}
	.st1{fill:none;stroke:#FFFFFF;stroke-width:2.2;stroke-linecap:round;stroke-linejoin:round;stroke-miterlimit:10;}
</style>
<path class="st0" d="M35,70C15.7,70,0,54.3,0,35C0,15.7,15.7,0,35,0c19.3,0,35,15.7,35,35C70,54.3,54.3,70,35,70"/>
<path class="st1" d="M34.8,33.5L31,47.5c0,0.1,0,0.1,0.1,0.2l3.7,3.1c0.1,0.1,0.3,0.1,0.3,0l3.7-3.1c0.1,0,0.1-0.1,0.1-0.2
	l-3.7-13.9C35.2,33.3,34.8,33.3,34.8,33.5z"/>
<line class="st1" x1="43" y1="45.4" x2="43" y2="54.4"/>
<line class="st1" x1="27" y1="45.4" x2="27" y2="54.4"/>
<circle class="st1" cx="35.2" cy="23" r="8.5"/>
<path class="st1" d="M44.9,55.5H25.1c-2.8,0-5.1-2.3-5.1-5.1V38.6c0-2.8,2.3-5.1,5.1-5.1h19.9c2.8,0,5.1,2.3,5.1,5.1v11.9
	C50,53.2,47.7,55.5,44.9,55.5z"/>
</svg>
