<?xml version="1.0" encoding="utf-8"?>
<!-- Generator: Adobe Illustrator 21.1.0, SVG Export Plug-In . SVG Version: 6.00 Build 0)  -->
<svg version="1.1" id="Слой_1" xmlns="http://www.w3.org/2000/svg"  x="0px" y="0px"
	 viewBox="0 0 12.4 22.5" style="enable-background:new 0 0 12.4 22.5;" xml:space="preserve">
<style type="text/css">
	.st0{fill:#A9C833;}
</style>
<path class="st0" d="M6.1,5.1C4.6,5.1,3.5,4,3.5,2.6C3.5,1.2,4.6,0,6.1,0c1.4,0,2.6,1.2,2.6,2.6C8.6,4,7.5,5.1,6.1,5.1 M6.1,0.9
	c-0.9,0-1.7,0.7-1.7,1.7c0,0.9,0.7,1.7,1.7,1.7c0.9,0,1.7-0.7,1.7-1.7C7.7,1.7,7,0.9,6.1,0.9"/>
<path class="st0" d="M10.4,22.5c-0.6,0-1.1-0.4-1.3-1l-1.3-4.5l-2.6-2.4c-0.4-0.4-0.7-1-0.7-1.6V9.1L3.1,9.6l-0.4,3.5
	c-0.1,0.7-0.7,1.3-1.5,1.2c-0.7-0.1-1.3-0.8-1.2-1.5l0.4-3.8C0.5,8.3,1,7.5,1.8,7.2L4,6.3c0.6-0.2,1.3-0.2,1.9,0.1
	c0.8,0.4,1.3,1.2,1.3,2v4.4l2.5,2.4c0.3,0.3,0.5,0.7,0.6,1.1l1.3,4.5c0.2,0.7-0.2,1.5-0.9,1.7C10.6,22.5,10.5,22.5,10.4,22.5 M4.9,8
	C5,8,5,8,5,8C5.2,8,5.4,8.2,5.4,8.4V13c0,0.4,0.1,0.7,0.4,1l2.6,2.5c0.1,0.1,0.1,0.1,0.1,0.2l1.4,4.6c0.1,0.2,0.3,0.4,0.6,0.3
	c0.1,0,0.2-0.1,0.3-0.2c0.1-0.1,0.1-0.2,0-0.3l-1.3-4.5c0,0,0,0,0,0c-0.1-0.3-0.2-0.5-0.4-0.7l-2.6-2.5c-0.1-0.1-0.1-0.2-0.1-0.3
	V8.4c0-0.5-0.3-1-0.8-1.2C5.2,7,4.7,7,4.4,7.2L2.1,8.1C1.7,8.3,1.4,8.7,1.3,9.2l-0.4,3.8c0,0.2,0.2,0.5,0.4,0.5
	c0.3,0,0.5-0.2,0.5-0.4l0.4-3.7c0-0.2,0.1-0.3,0.3-0.4L4.7,8C4.8,8,4.8,8,4.9,8"/>
<path class="st0" d="M1.5,22.5c-0.2,0-0.4-0.1-0.6-0.2c-0.7-0.3-0.9-1.2-0.6-1.8L2.7,16c0.3-0.7,1.2-0.9,1.8-0.6
	c0.7,0.3,0.9,1.2,0.6,1.8l-2.3,4.6C2.5,22.3,2.1,22.5,1.5,22.5 M3.9,16.2c-0.2,0-0.3,0.1-0.4,0.2L1.1,21c-0.1,0.1-0.1,0.2,0,0.3
	c0,0.1,0.1,0.2,0.2,0.3c0.2,0.1,0.5,0,0.6-0.2l2.3-4.6c0.1-0.2,0-0.5-0.2-0.6C4,16.2,4,16.2,3.9,16.2"/>
<path class="st0" d="M11.1,12.6c-0.3,0-0.6-0.1-0.8-0.3L8.5,11c-0.3-0.2-0.5-0.5-0.5-0.9c-0.1-0.4,0-0.7,0.3-1
	c0.2-0.3,0.5-0.5,0.9-0.5c0.4-0.1,0.7,0,1,0.3l1.8,1.3c0.3,0.2,0.5,0.5,0.5,0.9c0.1,0.4,0,0.7-0.3,1C11.9,12.4,11.5,12.6,11.1,12.6
	 M9.3,9.4C9.3,9.4,9.3,9.4,9.3,9.4C9.1,9.5,9,9.5,8.9,9.6C8.8,9.8,8.8,10.1,9,10.3l1.8,1.3c0.2,0.1,0.5,0.1,0.6-0.1
	c0.1-0.1,0.1-0.2,0.1-0.3c0-0.1-0.1-0.2-0.2-0.3h0L9.6,9.5C9.5,9.5,9.4,9.4,9.3,9.4"/>
<g>
	<g>
		<path class="st0" d="M1.8,9.2c0.6,0,0.6-1,0-1C1.2,8.2,1.2,9.2,1.8,9.2L1.8,9.2z"/>
	</g>
</g>
<g>
	<g>
		<path class="st0" d="M1.9,9.1C2.6,9,3,8.6,3.6,8.4C3.9,8.3,4.5,8,4.8,8c0.6,0,0.6,0.6,0.6,1c0.3,0,0.7-0.1,1-0.1
			C6.3,8.5,6,7.9,5.7,7.6C5.4,7.4,5,7.5,4.6,7.5C4,7.5,3.3,7.4,2.8,7.6C2.4,7.8,2,8.2,1.7,8.5c-0.4,0.4,0,0.9,0.5,0.8
			c0.6-0.1,1-0.2,1.5-0.6C4.2,8.4,3.5,7.7,3,8.1c-0.3,0.2-0.7,0.3-1,0.3C2.1,8.7,2.3,9,2.4,9.3C2.6,9.1,2.8,8.8,3,8.7
			c0.4-0.2,0.7-0.2,1.1-0.2c0.2,0,0.8-0.1,0.9,0C5.2,8.6,5.4,9,5.4,9.2c0.2,0.6,0.9,0.4,1-0.1c0.1-0.8-0.3-2.1-1.3-2.1
			c-1.3,0-2.3,1-3.5,1.2C1,8.2,1.3,9.2,1.9,9.1L1.9,9.1z"/>
	</g>
</g>
<g>
	<g>
		<path class="st0" d="M1.5,8.8C1.3,9.3,1.1,9.7,1,10.2c0.3,0,0.6,0,1,0C1.9,9.6,2.3,9.2,2.1,8.6c-0.2-0.5-0.8-0.5-1,0
			C0.8,9.4,0.8,10.2,0.9,11c0.1,0.4,0.7,0.5,0.9,0.1c0.1-0.2,0.3-0.5,0.4-0.7c-0.3-0.1-0.6-0.2-0.9-0.3c0,0.3,0,0.7-0.1,1
			c0.3,0,0.7,0.1,1,0.1c0-0.4,0-0.7,0.1-1.1C2,10.1,1.7,10,1.4,9.9c-0.1,0.7-0.2,1.5-0.4,2.2c0.3,0,0.7,0.1,1,0.1c0-0.2,0-0.4,0-0.6
			c0-0.6-0.8-0.6-1-0.1c-0.1,0.3-0.2,0.5-0.2,0.8c-0.1,0.6,0.9,0.7,1,0.1c0.1-0.4,0.1-0.7,0.1-1.1c0-0.5-0.7-0.7-0.9-0.3
			c-0.3,0.6-0.4,1.2-0.3,1.9c0.1,0.5,0.9,0.4,1,0c0.1-0.3,0.1-0.5,0.2-0.8c-0.3,0-0.7-0.1-1-0.1c0,0.2,0,0.5,0,0.7
			c0,0.4,0.6,0.7,0.9,0.4c0.1-0.1,0.2-0.2,0.3-0.4c-0.3-0.1-0.6-0.2-0.9-0.4c0,0.1,0,0.3,0,0.4c0.3,0,0.7,0,1,0c0-0.1,0-0.2,0-0.3
			c-0.1-0.6-1.1-0.6-1,0c0,0.1,0,0.2,0,0.3c0.1,0.6,0.9,0.6,1,0c0-0.1,0-0.2,0-0.4c0-0.4-0.6-0.7-0.9-0.4c-0.1,0.1-0.2,0.2-0.3,0.4
			c0.3,0.1,0.6,0.2,0.9,0.4c0-0.2,0-0.5,0-0.7c0-0.6-0.8-0.7-1-0.1c-0.1,0.3-0.1,0.5-0.2,0.8c0.3,0,0.6,0,1,0
			c-0.1-0.4,0-0.8,0.2-1.2c-0.3-0.1-0.6-0.2-0.9-0.3c0,0.3,0,0.5-0.1,0.8c0.3,0,0.7,0.1,1,0.1c0-0.2,0.1-0.4,0.2-0.6
			c-0.3,0-0.7-0.1-1-0.1c0,0.2,0,0.4,0,0.6c0,0.5,0.9,0.7,1,0.1c0.1-0.7,0.3-1.5,0.4-2.2c0.1-0.6-0.8-0.9-1-0.3
			c-0.1,0.5-0.1,0.9-0.1,1.4c0,0.5,0.9,0.7,1,0.1c0.1-0.4,0.1-0.8,0.1-1.3c0-0.5-0.7-0.7-0.9-0.3c-0.1,0.2-0.3,0.5-0.4,0.7
			c0.3,0,0.6,0.1,0.9,0.1c-0.1-0.7,0-1.3,0.2-1.9c-0.3,0-0.6,0-1,0C1.3,9.3,0.9,9.9,1,10.5c0.1,0.5,0.8,0.4,1,0
			C2.1,10,2.3,9.5,2.4,9.1C2.7,8.5,1.7,8.2,1.5,8.8L1.5,8.8z"/>
	</g>
</g>
<g>
	<g>
		<path class="st0" d="M5.1,9.3c0,0.5,0.1,1,0.1,1.5c0,0.3,0.1,0.7,0.3,0.9c0.3,0.3,0.7,0.1,0.8-0.2c0.2-0.7,0.5-1.5,0.3-2.2
			c-0.2-0.6-1.1-0.4-1,0.3c0.1,0.5-0.2,1.2-0.3,1.6C5.7,11.1,6,11,6.3,10.9c-0.1-0.1-0.1-0.6-0.1-0.8c0-0.3-0.1-0.6-0.1-0.9
			C6,8.6,5,8.6,5.1,9.3L5.1,9.3z"/>
	</g>
</g>
<g>
	<g>
		<path class="st0" d="M5.2,11.1c0.1,0.7,0.1,1.4,0.1,2.1c0,0.4,0.6,0.7,0.9,0.4c0.3-0.3,0.4-0.7,0.5-1.1c0-0.2,0.1-0.4,0.1-0.6
			c0-0.1-0.1-0.4-0.1-0.5c0.3-0.6-0.6-1.1-0.9-0.5c-0.3,0.6,0.1,1.4-0.4,2C5.7,12.9,6,13,6.3,13.1c0-0.8-0.1-1.6-0.2-2.4
			C6.1,10.2,5.1,10.4,5.2,11.1L5.2,11.1z"/>
	</g>
</g>
<g>
	<g>
		<path class="st0" d="M5.4,12.7c0.1,0.9,0.3,1.6,0.8,2.4c0.2,0.4,1,0.3,0.9-0.3c-0.1-0.9-0.4-1.5-1.2-1.9c-0.3-0.2-0.8,0-0.8,0.4
			c0,0.8,0.6,0.9,1.2,1.2c1.1,0.6,1.5,1.8,2.6,2.4c0.4,0.2,0.8-0.1,0.7-0.6c-0.2-0.7-0.7-1.2-1.3-1.6c-0.1-0.1-1.3-0.5-0.9-0.2
			c-0.3-0.3-0.9,0.2-0.7,0.6c0.2,0.5,0.5,0.6,0.9,1c1,1,1.2,1.9,1.4,3.2c0.1,0.7,0.6,2.2,1.4,2.4c0.5,0.1,0.9-0.3,0.9-0.8
			c0-0.5-0.3-0.6-0.5-1c-0.5-1.1-0.8-2.3-1.1-3.5c-0.1-0.6-1.1-0.4-1,0.3c0.2,1,0.4,2.1,0.9,3.1c0.1,0.1,0.2,0.7,0.4,0.7
			c0.5,0.2,0-1.5-0.1-1.9c-0.1-0.7-0.2-1.2-0.6-1.9c-0.4-0.6-1.5-1.4-1.7-2c-0.2,0.2-0.5,0.4-0.7,0.6c0.2,0.1,0.4,0,0.5,0.1
			c0.4,0.3,1.1,0.4,1.3,1.1c0.2-0.2,0.5-0.4,0.7-0.6c-0.8-0.5-1.2-1.3-1.8-2c-0.1-0.1-1.4-1.1-1.4-0.9c-0.3,0.1-0.5,0.3-0.8,0.4
			c0.2,0.4,0.5,0.7,0.7,1.1c0.3-0.1,0.6-0.2,0.9-0.3c-0.4-0.6-0.6-1.2-0.7-1.9C6.3,12.1,5.3,12.1,5.4,12.7L5.4,12.7z"/>
	</g>
</g>
<g>
	<g>
		<path class="st0" d="M8.5,9.9c0.6,0.9,1.6,1.8,2.8,1.9c0.3,0,0.6-0.3,0.5-0.6c-0.3-0.9-1.2-1.5-2-2c-0.6-0.3-1.1,0.5-0.5,0.9
			c0.5,0.3,1.3,0.8,1.6,1.4c0.2-0.2,0.3-0.4,0.5-0.6c-0.7,0-1.5-0.9-1.9-1.4C9,8.9,8.1,9.4,8.5,9.9L8.5,9.9z"/>
	</g>
</g>
<g>
	<g>
		<path class="st0" d="M4,16.1c-0.7,0.7-1.6,1.4-2.1,2.2c-0.5,0.8-0.6,1.9-1.1,2.8c-0.1,0.2-0.1,0.5,0.2,0.7c1,0.6,1.5-0.7,1.9-1.4
			c0.7-1.3,1.2-2.6,1.1-4c-0.2,0.2-0.3,0.3-0.5,0.5c0,0,0.1,0,0.1,0c0.6,0.1,0.6-0.9,0-1c0,0-0.1,0-0.1,0c-0.3,0-0.5,0.3-0.5,0.5
			c0,1-0.2,1.9-0.6,2.7c-0.1,0.2-1,1.8-0.9,1.8c0.1,0.2,0.1,0.5,0.2,0.7c0.4-0.8,0.6-1.6,0.9-2.4c0.4-1,1.4-1.7,2.1-2.4
			C5.2,16.3,4.5,15.6,4,16.1L4,16.1z"/>
	</g>
</g>
<g>
	<g>
		<path class="st0" d="M6.6,0.8c-0.4-0.1-1-0.4-1.4-0.2c-0.5,0.2-0.8,0.9-1,1.4C4,2.4,3.9,2.9,4.1,3.4c0.1,0.4,0.4,1,0.7,1.3
			C5.1,4.9,5.6,4.9,6,4.8c0.3-0.1,0.5-0.3,0.8-0.4C7,4.3,7.3,4.2,7.5,4.1c0.4-0.2,0.5-0.5,0.5-0.9c0-0.5,0-1.3-0.1-1.8
			C7.7,0.5,6.3,0.7,5.7,1.1c-0.8,0.5-1.1,1.5-1,2.4c0.2,0.9,1.4,0.8,1.9,0.3c0.5-0.5,0.9-2,0-2.3C5.5,1.2,5,3.1,5.7,3.7
			C5.9,3.9,6.5,4,6.8,3.9c0.6-0.2,0.7-0.7,0.6-1.2c-0.3,0-0.7,0.1-1,0.1c0,0.2,0,0.4,0,0.6C6.4,4,7.4,4,7.5,3.3c0-0.3,0-0.5,0-0.8
			C7.3,2,6.4,2.1,6.5,2.7c0,0.2,0.2,0.3,0,0.2c0,0-0.1,0-0.1,0c0.1-0.1,0.2-0.3,0.2-0.4c-0.1,0-0.2-0.1-0.4-0.1
			c0.1,0.2,0,0.4-0.1,0.6C6,3,5.9,3.1,5.8,3.1c-0.2,0-0.2,0.1,0,0.2c0-0.4,0-0.9,0.3-1.2c0.1-0.1,0.3-0.2,0.5-0.3
			c0.1,0,0.5,0,0.4-0.1c0-0.1,0-0.1,0,0.2C7,2,7,2.1,7,2.3c0,0.2,0.1,0.5,0,0.7c0,0.2,0,0.2-0.1,0.3C6.8,3.4,6.6,3.4,6.5,3.4
			C6.3,3.5,6.1,3.6,5.9,3.7c-0.4,0.2-0.5,0-0.7-0.3C4.9,2.9,5,2.5,5.3,2c0.1-0.2,0.2-0.4,0.3-0.4c0.2-0.1,0.5,0,0.7,0.1
			C7,1.9,7.2,0.9,6.6,0.8L6.6,0.8z"/>
	</g>
</g>
<g>
	<g>
		<path class="st0" d="M2.1,8.7c-0.7,0.4-1.2,0.7-1.3,1.5c-0.1,1,0,2,0,3c0,0.6,1,0.6,1,0c0-0.7,0-1.4,0-2.1c0-0.2-0.1-0.7,0-0.9
			c0.1-0.4,0.5-0.5,0.8-0.7C3.2,9.3,2.6,8.4,2.1,8.7L2.1,8.7z"/>
	</g>
</g>
<g>
	<g>
		<path class="st0" d="M1.4,9c0.2,0.9-0.3,1.3-0.5,2.1c-0.2,0.7-0.1,1.4-0.2,2.1c-0.1,0.6,0.8,0.9,1,0.3c0.2-0.9,0.1-1.8,0.4-2.6
			c0.3-0.7,0.4-1.4,0.3-2.2C2.2,8.1,1.2,8.3,1.4,9L1.4,9z"/>
	</g>
</g>
</svg>
