<?xml version="1.0" encoding="utf-8"?>
<!-- Generator: Adobe Illustrator 21.1.0, SVG Export Plug-In . SVG Version: 6.00 Build 0)  -->
<svg version="1.1" id="Слой_1" xmlns="http://www.w3.org/2000/svg"  x="0px" y="0px"
	 viewBox="0 0 33 33" style="enable-background:new 0 0 33 33;" xml:space="preserve">
<style type="text/css">
	.st0{fill:#A9C833;}
	.st1{fill:#FFFFFF;}
</style>
<g>
	<g>
		<path class="st0" d="M16.5,31.5c-8.3,0-15-6.7-15-15s6.7-15,15-15c8.3,0,15,6.7,15,15S24.8,31.5,16.5,31.5z"/>
		<path class="st1" d="M16.5,1.5c8.3,0,15,6.7,15,15s-6.7,15-15,15c-8.3,0-15-6.7-15-15S8.2,1.5,16.5,1.5 M16.5,0
			C7.4,0,0,7.4,0,16.5C0,25.6,7.4,33,16.5,33S33,25.6,33,16.5C33,7.4,25.6,0,16.5,0L16.5,0z"/>
	</g>
	<path class="st1" d="M8.4,22.2c-1.2,0-2.1-1-2.1-2.1s1-2.1,2.1-2.1s2.1,1,2.1,2.1S9.5,22.2,8.4,22.2z M8.4,18.8
		c-0.7,0-1.2,0.5-1.2,1.2c0,0.7,0.5,1.2,1.2,1.2c0.7,0,1.2-0.5,1.2-1.2C9.6,19.4,9,18.8,8.4,18.8z"/>
	<path class="st1" d="M17.7,22.2c-1.2,0-2.1-1-2.1-2.1s1-2.1,2.1-2.1s2.1,1,2.1,2.1S18.9,22.2,17.7,22.2z M17.7,18.8
		c-0.7,0-1.2,0.5-1.2,1.2c0,0.7,0.5,1.2,1.2,1.2c0.7,0,1.2-0.5,1.2-1.2C18.9,19.4,18.4,18.8,17.7,18.8z"/>
	<path class="st1" d="M17.7,22.3H8.5c-1.3,0-2.3-1-2.3-2.3s1-2.3,2.3-2.3h9.2c1.3,0,2.3,1,2.3,2.3S19,22.3,17.7,22.3z M8.5,18.7
		c-0.7,0-1.3,0.6-1.3,1.3s0.6,1.3,1.3,1.3h9.2c0.7,0,1.3-0.6,1.3-1.3s-0.6-1.3-1.3-1.3H8.5z"/>
	<path class="st1" d="M8.1,18.8c-0.3,0-0.5-0.2-0.5-0.5V9.7c0-0.3,0.2-0.5,0.5-0.5h5.4c0.2,0,0.4,0.1,0.4,0.3l1.7,4.1
		c0,0.1,0,0.1,0,0.2v4.1c0,0.3-0.2,0.5-0.5,0.5s-0.5-0.2-0.5-0.5v-4l-1.6-3.7H8.6v8.1C8.6,18.5,8.3,18.8,8.1,18.8z"/>
	<path class="st1" d="M20.9,19.3h-1.8c-0.3,0-0.5-0.2-0.5-0.5s0.2-0.5,0.5-0.5h1.3v-4H8.7v4.1c0,0.3-0.2,0.5-0.5,0.5
		c-0.3,0-0.5-0.2-0.5-0.5v-4.5c0-0.3,0.2-0.5,0.5-0.5h12.7c0.3,0,0.5,0.2,0.5,0.5v5C21.4,19,21.2,19.3,20.9,19.3z"/>
	<path class="st1" d="M26.2,22.3h-2.4c-0.3,0-0.5-0.2-0.5-0.5v-7.4c0-0.3,0.2-0.5,0.5-0.5h1.6c0.2,0,0.4,0.2,0.5,0.4l0.9,7.4
		c0,0.1,0,0.3-0.1,0.4C26.5,22.2,26.4,22.3,26.2,22.3z M24.3,21.3h1.4l-0.7-6.5h-0.7V21.3z"/>
	<path class="st1" d="M23.5,17.2h-2.4c-0.3,0-0.5-0.2-0.5-0.5s0.2-0.5,0.5-0.5h2.4c0.3,0,0.5,0.2,0.5,0.5S23.7,17.2,23.5,17.2z"/>
	<path class="st1" d="M23.5,19.3h-2.6c-0.3,0-0.5-0.2-0.5-0.5s0.2-0.5,0.5-0.5h2.6c0.3,0,0.5,0.2,0.5,0.5S23.7,19.3,23.5,19.3z"/>
</g>
</svg>
